<svg width="68" height="68" viewBox="0 0 68 68" fill="none" xmlns="http://www.w3.org/2000/svg">
<g id="Group">
<g id="Group_2">
<path id="Vector" d="M0.100006 57.4999V0.499878C1.50001 0.399878 2.9 0.399902 4.3 0.399902C39.1 0.399902 67.4 28.5999 67.4 63.4999C67.4 64.9999 67.3 66.4999 67.2 67.9999H10.5C4.8 67.9999 0.100006 63.2999 0.100006 57.4999Z" fill="#E98F2D"/>
<g id="Group_3">
<g id="Group_4">
<path id="Vector_2" d="M30.2 55.8998C25.5 55.8998 21.6 51.9998 21.6 47.2998C21.6 42.5998 25.5 38.6997 30.2 38.6997C34.9 38.6997 38.8 42.5998 38.8 47.2998C38.8 51.9998 34.9 55.8998 30.2 55.8998ZM30.2 40.5997C26.5 40.5997 23.5 43.5998 23.5 47.2998C23.5 50.9998 26.5 53.9998 30.2 53.9998C33.9 53.9998 36.9 50.9998 36.9 47.2998C36.9 43.5998 33.9 40.5997 30.2 40.5997Z" fill="white"/>
</g>
<g id="Group_5">
<path id="Vector_3" d="M28.3 52.1C28.1 52.1 28 52.1 27.8 52C27.5 51.8 27.3 51.5 27.3 51.1V43.3001C27.3 42.9001 27.5 42.6 27.8 42.4C28.1 42.2 28.5 42.3 28.8 42.5L34.6 46.4C34.9 46.6 35 46.9 35 47.2C35 47.5 34.8 47.8 34.6 48L28.8 51.9C28.7 52.1 28.5 52.1 28.3 52.1ZM29.3 45.2V49.3001L32.4 47.2L29.3 45.2Z" fill="white"/>
</g>
<g id="Group_6">
<g id="Group_7">
<path id="Vector_4" d="M12.9 60.1C12.6 60.1 12.3 60 12.1 59.7C9.60001 56 8.2 51.7001 8.2 47.3001C8.2 42.7001 9.6 38.3 12.3 34.6C12.6 34.2 13.2 34.1 13.7 34.4C14.1 34.7 14.2 35.3001 13.9 35.8001C11.5 39.2001 10.2 43.2 10.2 47.4C10.2 51.5 11.4 55.4 13.7 58.7C14 59.1 13.9 59.7 13.5 60.1C13.3 60.1 13.1 60.1 12.9 60.1Z" fill="white"/>
</g>
<g id="Group_8">
<path id="Vector_5" d="M15.3 56.3999C13.6 53.6999 12.7 50.4999 12.7 47.2999C12.7 43.8999 13.7 40.6999 15.5 37.8999L17.1 38.9999C15.5 41.4999 14.6 44.3999 14.6 47.3999C14.6 50.2999 15.4 53.0999 16.9 55.4999L15.3 56.3999Z" fill="white"/>
</g>
<g id="Group_9">
<path id="Vector_6" d="M16.1 56.9C15.8 56.9 15.5 56.7 15.3 56.4C13.6 53.7 12.7 50.5001 12.7 47.3001C12.7 43.9001 13.7 40.7 15.5 37.9C15.8 37.5 16.4 37.3 16.8 37.6C17.2 37.9 17.4 38.5 17.1 38.9C15.5 41.4 14.6 44.3001 14.6 47.3001C14.6 50.2001 15.4 53 16.9 55.4C17.2 55.9 17 56.5 16.6 56.7C16.5 56.8 16.3 56.9 16.1 56.9Z" fill="white"/>
</g>
<g id="Group_10">
<path id="Vector_7" d="M18.7 52.8999C17.8 51.1999 17.4 49.2999 17.4 47.2999C17.4 45.1999 17.9 43.1999 18.9 41.3999L20.6 42.2999C19.8 43.7999 19.3 45.4999 19.3 47.2999C19.3 48.8999 19.7 50.4999 20.4 51.9999L18.7 52.8999Z" fill="white"/>
</g>
<g id="Group_11">
<path id="Vector_8" d="M19.6 53.3999C19.2 53.3999 18.9 53.1999 18.7 52.8999C17.8 51.1999 17.4 49.2999 17.4 47.2999C17.4 45.1999 17.9 43.1999 18.9 41.3999C19.2 40.8999 19.7 40.7999 20.2 40.9999C20.7 41.2999 20.8 41.7999 20.6 42.2999C19.8 43.7999 19.3 45.4999 19.3 47.2999C19.3 48.8999 19.7 50.4999 20.4 51.9999C20.6 52.4999 20.4 53.0999 20 53.2999C19.9 53.3999 19.8 53.3999 19.6 53.3999Z" fill="white"/>
</g>
</g>
<g id="Group_12">
<g id="Group_13">
<path id="Vector_9" d="M46.8 60.0998C46.6 60.0998 46.4 59.9999 46.2 59.8999C45.8 59.5999 45.7 58.9998 46 58.4998C48.3 55.1998 49.5 51.2998 49.5 47.1998C49.5 42.9998 48.2 38.9998 45.8 35.5998C45.5 35.1998 45.6 34.5998 46 34.1998C46.4 33.8998 47 33.9999 47.4 34.3999C50.1 38.0999 51.5 42.4998 51.5 47.0998C51.5 51.5998 50.2 55.8998 47.6 59.4998C47.5 59.9998 47.2 60.0998 46.8 60.0998Z" fill="white"/>
</g>
<g id="Group_14">
<path id="Vector_10" d="M44.4 56.3998L42.8 55.3998C44.3 52.9998 45.1 50.1998 45.1 47.2998C45.1 44.2998 44.2 41.3998 42.6 38.8998L44.2 37.7998C46 40.5998 47 43.8997 47 47.1997C47 50.4997 46.1 53.6998 44.4 56.3998Z" fill="white"/>
</g>
<g id="Group_15">
<path id="Vector_11" d="M43.6 56.9001C43.4 56.9001 43.2 56.9001 43.1 56.8001C42.6 56.5001 42.5 55.9 42.8 55.5C44.3 53.1 45.1 50.3001 45.1 47.4001C45.1 44.4001 44.2 41.5 42.6 39C42.3 38.6 42.4 38 42.9 37.7C43.3 37.4 43.9 37.5 44.2 38C46 40.8 47 44.1001 47 47.4001C47 50.6001 46.1 53.8 44.4 56.5C44.2 56.7 43.9 56.9001 43.6 56.9001Z" fill="white"/>
</g>
<g id="Group_16">
<path id="Vector_12" d="M41 52.8999L39.3 51.9999C40 50.4999 40.4 48.9999 40.4 47.2999C40.4 45.5999 40 43.7999 39.1 42.2999L40.8 41.3999C41.8 43.1999 42.3 45.1999 42.3 47.2999C42.3 49.1999 41.8 51.0999 41 52.8999Z" fill="white"/>
</g>
<g id="Group_17">
<path id="Vector_13" d="M40.1 53.3999C40 53.3999 39.8 53.3999 39.7 53.2999C39.2 53.0999 39 52.4998 39.3 51.9998C40 50.4998 40.4 48.9999 40.4 47.2999C40.4 45.5999 40 43.7999 39.1 42.2999C38.8 41.7999 39 41.1998 39.5 40.9998C40 40.6998 40.6 40.8999 40.8 41.3999C41.8 43.1999 42.3 45.1999 42.3 47.2999C42.3 49.1999 41.9 51.0999 41 52.8999C40.8 53.1999 40.5 53.3999 40.1 53.3999Z" fill="white"/>
</g>
</g>
</g>
</g>
</g>
</svg>
