<svg width="68" height="68" viewBox="0 0 68 68" fill="none" xmlns="http://www.w3.org/2000/svg">
<g id="Group">
<g id="Group_2">
<path id="Vector" d="M0.600098 57.4999V0.499878C2.0001 0.399878 3.40008 0.399902 4.80008 0.399902C39.6001 0.399902 67.9001 28.5999 67.9001 63.4999C67.9001 64.9999 67.8001 66.4999 67.7001 67.9999H11.0001C5.20009 67.9999 0.600098 63.2999 0.600098 57.4999Z" fill="#E98F2D"/>
<g id="teJN0V_00000143607139782356474840000013230707029995616410_">
<g id="Group_3">
<path id="Vector_2" d="M30 18.7998C30.3 18.9998 30.4001 19.2997 30.4001 19.6997C30.4001 20.5997 30.4001 21.5998 30.4001 22.4998C30.4001 23.1998 30.2 23.3998 29.5 23.3998C29.4 23.3998 29.4 23.3998 29.3 23.3998C29.4 23.4998 29.5 23.4997 29.6 23.5997C31.5 24.5997 33.3 25.4998 35.2 26.4998C35.4 26.5998 35.5 26.5998 35.7 26.3998C36.4 25.7998 37.2 25.5998 38 25.9998C39.4 26.6998 40.9 27.3997 42.2 28.1997C43.2 28.7997 43.5 29.9997 43 31.0997C42.4 32.1997 41.3 32.6997 40.2 32.1997C38.7 31.4997 37.2 30.6998 35.8 29.8998C35.1 29.4998 34.8001 28.6998 34.9001 27.8998C34.9001 27.6998 34.9 27.5998 34.7 27.4998C32.4 26.2998 30 25.0998 27.7 23.8998H27.6C27.6 24.7998 27.6 25.7998 27.6 26.7998C28 26.7998 28.4001 26.7998 28.9001 26.7998C30.6001 26.7998 30.5 26.7998 30.5 28.4998C30.5 30.9998 30.5 33.4997 30.5 36.0997C30.5 36.3997 30.6 36.6998 30.7 36.9998C33.8 43.9998 36.8001 50.9998 39.9001 57.9998C39.9001 58.0998 40 58.1998 40 58.2998C40.1 58.6998 39.9001 59.0997 39.4001 59.0997C38.5001 59.0997 37.6 59.0997 36.7 59.0997C36.4 59.0997 36.2 58.7997 36.1 58.5997C35 56.0997 33.9 53.4998 32.8 50.9998C31.2 47.3998 29.6 43.6997 28 40.0997C28 39.9997 27.9 39.8998 27.8 39.7998C27.8 39.8998 27.8 40.0997 27.8 40.1997C27.8 46.1997 27.8 52.1997 27.8 58.1997C27.8 58.9997 27.7 59.1997 26.8 59.1997C26.1 59.1997 25.4 59.1997 24.8 59.1997C24 59.1997 23.9001 58.9998 23.9001 58.2998C23.9001 54.4998 23.9001 50.5998 23.9001 46.7998C23.9001 44.5998 23.9001 42.4998 23.9001 40.2998C23.9001 40.1998 23.9001 39.9998 23.9001 39.8998C23.9001 39.8998 23.9 39.8998 23.8 39.8998C23.7 39.9998 23.7 40.0998 23.6 40.2998C20.9 46.3998 18.2 52.4997 15.6 58.5997C15.4 59.0997 15.1 59.3998 14.5 59.2998C13.8 59.2998 13.1 59.2998 12.4 59.2998C11.6 59.2998 11.4 58.8997 11.7 58.1997C14.7 51.3997 17.7 44.5998 20.6 37.7998C20.9 37.0998 21.1 36.3997 21.1 35.5997C21.1 35.0997 21.1 34.4998 21.1 33.9998C21.1 33.4998 21.3 33.2998 21.7 33.2998C22.1 33.2998 22.3 33.5998 22.3 33.9998C22.3 34.6998 22.3 35.4997 22.3 36.1997C24.6 36.1997 26.9 36.1997 29.3 36.1997C29.3 33.4997 29.3 30.8997 29.3 28.1997C27 28.1997 24.7 28.1997 22.3 28.1997C22.3 28.4997 22.3 28.8997 22.3 29.1997C22.3 29.4997 22.2 29.7998 21.8 29.8998C21.5 29.9998 21.1 29.6998 21.1 29.3998C21.1 28.7998 21.1 28.1997 21.1 27.5997C21.1 27.1997 21.4 26.9998 21.8 26.9998C22.5 26.9998 23.2 26.9998 24 26.9998C24 25.8998 24 24.7997 24 23.5997C23.6 23.5997 23.2001 23.5997 22.9001 23.5997C22.5001 23.5997 22.2 23.5997 21.8 23.5997C21.4 23.5997 21.1 23.3998 21.1 22.9998C21.1 21.8998 21.1 20.7997 21.1 19.6997C21.1 19.4997 21.3001 19.2997 21.4001 19.0997C24.2001 18.7997 27.1 18.7998 30 18.7998ZM26.4001 57.7998C26.4001 50.8998 26.4001 44.0997 26.4001 37.1997C25.9001 37.1997 25.4001 37.1997 24.9001 37.1997C24.9001 44.0997 24.9001 50.8998 24.9001 57.7998C25.4001 57.7998 25.9001 57.7998 26.4001 57.7998ZM23.4001 37.0997C23.0001 37.0997 22.7001 37.0997 22.4001 37.0997C22.1001 37.0997 22.0001 37.1998 21.9001 37.4998C19.1001 43.8998 16.3 50.3998 13.4 56.7998C13.3 57.0998 13.1 57.3998 13 57.7998C13.4 57.7998 13.7 57.7998 14 57.7998C14.3 57.7998 14.4 57.6998 14.6 57.3998C16.9 52.0998 19.2 46.8997 21.5 41.5997C22.1 40.0997 22.7001 38.6997 23.4001 37.0997ZM38.4001 57.7998C38.3001 57.5998 38.3 57.4998 38.2 57.3998C36.6 53.6998 34.9 49.8997 33.3 46.1997C32 43.2997 30.8 40.3997 29.5 37.5997C29.4 37.4997 29.3 37.2998 29.2 37.2998C28.8 37.2998 28.4 37.2998 28 37.2998C28.1 37.4998 28.1 37.5997 28.2 37.6997C30 41.6997 31.7 45.7998 33.5 49.7998C34.6 52.3998 35.8001 54.9998 36.9001 57.4998C37.0001 57.5998 37.1 57.7998 37.2 57.7998C37.6 57.7998 38.0001 57.7998 38.4001 57.7998ZM29.1 22.0997C29.1 21.3997 29.1 20.6998 29.1 19.9998C26.8 19.9998 24.5 19.9998 22.2 19.9998C22.2 20.6998 22.2 21.3997 22.2 22.0997C24.5 22.0997 26.8 22.0997 29.1 22.0997ZM42 29.9998C42 29.5998 41.7001 29.2997 41.4001 29.0997C40.1001 28.4997 38.9 27.7997 37.6 27.1997C37 26.8997 36.5 27.0997 36.2 27.6997C35.9 28.2997 36 28.7997 36.6 29.0997C37.9 29.7997 39.1001 30.3997 40.4001 31.0997C41.2001 31.3997 42 30.8998 42 29.9998ZM25.1 26.6997C25.5 26.6997 25.8 26.6997 26.2 26.6997C26.2 25.5997 26.2 24.4998 26.2 23.3998C25.8 23.3998 25.5 23.3998 25.1 23.3998C25.1 24.4998 25.1 25.5997 25.1 26.6997Z" fill="white"/>
</g>
</g>
</g>
</g>
</svg>
