<svg width="110" height="87" viewBox="0 0 110 87" fill="none" xmlns="http://www.w3.org/2000/svg">
<g id="_x32_0_00000159454166768878850260000010722674353062454935_">
<g id="Group">
<path id="Vector" d="M109.4 86.5H0.0996094V14.5H109.4V18.4H3.89966V82.6H105.5V24.3H109.4V86.5Z" fill="#E98F2D"/>
</g>
<g id="Group_2">
<path id="Vector_2" d="M58.2994 18.4H54.3994V0.0999756H87.0994V11.2H83.2994V3.90002H58.2994V18.4Z" fill="#E98F2D"/>
</g>
<g id="Group_3">
<path id="Vector_3" d="M28.4995 18.4H11.9995V6.40002H28.4995V18.4ZM15.7995 14.5H24.5995V10.2H15.7995V14.5Z" fill="#E98F2D"/>
</g>
<g id="Group_4">
<path id="Vector_4" d="M20.1997 40.4C16.0997 40.4 12.6997 37.1 12.6997 32.9C12.6997 28.8 15.9997 25.4 20.1997 25.4C24.2997 25.4 27.6997 28.7 27.6997 32.9C27.6997 37 24.3997 40.4 20.1997 40.4ZM20.1997 29.3C18.1997 29.3 16.5997 30.9 16.5997 32.9C16.5997 34.9 18.1997 36.5 20.1997 36.5C22.1997 36.5 23.7997 34.9 23.7997 32.9C23.8997 30.9 22.1997 29.3 20.1997 29.3Z" fill="#E98F2D"/>
</g>
<g id="Group_5">
<path id="Vector_5" d="M70.7997 78.6C55.2997 78.6 42.6997 66 42.6997 50.5C42.6997 35 55.2997 22.4 70.7997 22.4C86.2997 22.4 98.8997 35 98.8997 50.5C98.8997 66 86.2997 78.6 70.7997 78.6ZM70.7997 26.3C57.3997 26.3 46.5997 37.2 46.5997 50.5C46.5997 63.8 57.4997 74.7 70.7997 74.7C84.0997 74.7 94.9997 63.8 94.9997 50.5C94.9997 37.2 84.0997 26.3 70.7997 26.3Z" fill="#E98F2D"/>
</g>
<g id="Group_6">
<path id="Vector_6" d="M70.7998 70C59.9998 70 51.2998 61.3 51.2998 50.5C51.2998 39.7 59.9998 31 70.7998 31C81.5998 31 90.2998 39.7 90.2998 50.5C90.2998 61.3 81.4998 70 70.7998 70ZM70.7998 34.8C62.1998 34.8 55.1998 41.8 55.1998 50.4C55.1998 59 62.1998 66 70.7998 66C79.3998 66 86.3998 59 86.3998 50.4C86.3998 41.8 79.3998 34.8 70.7998 34.8Z" fill="#E98F2D"/>
</g>
<g id="Group_7">
<path id="Vector_7" d="M70.7995 59.3C65.8995 59.3 61.9995 55.3 61.9995 50.5C61.9995 45.6 65.9995 41.7 70.7995 41.7H72.6995V45.6H70.7995C68.0995 45.6 65.7995 47.8 65.7995 50.6C65.7995 53.3 67.9995 55.6 70.7995 55.6C72.6995 55.6 74.3995 54.5 75.2995 52.8C75.5995 52.1 75.7995 51.4 75.7995 50.6V48.7H79.6995V50.6C79.6995 52 79.3995 53.3 78.7995 54.5C77.1995 57.4 74.1995 59.3 70.7995 59.3Z" fill="#E98F2D"/>
</g>
<g id="Group_8">
<path id="Vector_8" d="M79.5995 7.30005H61.9995V11.2H79.5995V7.30005Z" fill="#E98F2D"/>
</g>
<g id="Group_9">
<path id="Vector_9" d="M24.3995 45H15.9995V48.9H24.3995V45Z" fill="#E98F2D"/>
</g>
</g>
</svg>
