<svg width="118" height="54" viewBox="0 0 118 54" fill="none" xmlns="http://www.w3.org/2000/svg">
<g id="pncGM9_00000154393295864611808300000002336575508643006111_">
<g id="Group">
<path id="Vector" d="M117.7 49.3002C117.6 49.7002 117.6 50.2002 117.5 50.6002C117.2 51.7002 116.6 52.6002 115.4 53.1002C114.6 53.4002 113.8 53.5002 113 53.5002C111.8 53.5002 110.6 53.5002 109.5 53.5002H109.4C109.4 53.4002 109.4 53.4002 109.4 53.3002C109.4 50.0002 109.4 46.7002 109.4 43.3002C109.4 43.3002 109.4 43.3002 109.4 43.2002C109.5 43.2002 109.6 43.2002 109.7 43.2002C110.8 43.2002 111.9 43.2002 113 43.2002C113.6 43.2002 114.1 43.2002 114.7 43.3002C115.6 43.5002 116.5 43.9002 117 44.7002C117.3 45.2002 117.5 45.8002 117.7 46.4002C117.8 46.7002 117.8 46.9002 117.8 47.2002C117.6 47.5002 117.7 47.7002 117.9 47.9002C117.9 48.1002 117.9 48.3002 117.9 48.5002C117.7 48.7002 117.5 49.0002 117.7 49.3002ZM111.4 51.5002C111.6 51.5002 111.7 51.5002 111.9 51.5002C112.6 51.5002 113.3 51.5002 114 51.4002C114.4 51.4002 114.8 51.2002 115 50.9002C115.3 50.6002 115.5 50.1002 115.6 49.6002C115.6 49.4002 115.7 49.2002 115.7 48.9002C115.8 47.9002 115.8 47.0002 115.4 46.1002C115.2 45.5002 114.9 45.1002 114.2 45.0002C113.9 44.9002 113.7 44.9002 113.4 44.9002C112.9 44.9002 112.4 44.9002 111.9 44.9002C111.7 44.9002 111.6 44.9002 111.4 44.9002C111.4 47.2002 111.4 49.3002 111.4 51.5002Z" fill="white"/>
<path id="Vector_2" d="M33.8 53.7001C33.8 53.6001 33.8 53.6001 33.8 53.7001C34.2 53.6001 34.6001 53.6001 35.0001 53.6001V53.7001C34.6001 53.7001 34.2 53.7001 33.8 53.7001Z" fill="white"/>
<path id="Vector_3" d="M117.7 49.3C117.5 49 117.6 48.8 117.8 48.5C117.8 48.7 117.8 49 117.7 49.3Z" fill="white"/>
<path id="Vector_4" d="M117.8 47.9002C117.7 47.7002 117.6 47.4002 117.7 47.2002C117.7 47.2002 117.7 47.2002 117.8 47.2002C117.8 47.4002 117.8 47.6002 117.8 47.9002Z" fill="white"/>
<path id="Vector_5" d="M35 53.7001V53.6001C35.2 53.6001 35.4 53.5001 35.5 53.6001V53.7001C35.3 53.7001 35.1 53.7001 35 53.7001Z" fill="white"/>
<path id="Vector_6" d="M42.5 30.6001C42 29.9001 41.6 29.2001 41.1 28.4001C40.6 28.3001 40 28.3001 39.5 28.2001C39.1 28.1001 38.7 28.0001 38.4 28.0001C37.9 27.9001 37.4 27.8001 37 27.7001C36.5 27.6001 36 27.4001 35.6 27.3001C35.4 27.2001 35.3 27.1001 35.3 26.9001C35.2 26.3001 35 25.8001 34.9 25.2001C34.9 25.1001 34.9 25.1001 34.9 25.0001C34.9 24.7001 34.8 24.6001 34.6 24.6001C33.8 24.4001 33 23.9001 32.3 23.5001C31.7 23.2001 31.2 22.9001 30.6 22.5001C30.4 22.4001 30.4 22.3001 30.4 22.2001C30.4 21.7001 30.4 21.2001 30.4 20.7001C30.4 20.4001 30.4 20.2001 30.4 19.9001C30.5 20.0001 30.6 20.0001 30.7 20.0001C31.9 20.9001 33.3 21.6001 34.7 22.2001C35.5 22.6001 36.4 23.0001 37.3 23.2001C37.8 23.3001 38.4 23.5001 38.9 23.7001C39 23.7001 39.1 23.7001 39.2 23.7001C39 22.9001 38.8 22.2001 38.6 21.4001C37.2 21.0001 35.8 20.5001 34.5 19.8001C34.5 19.0001 34.6 18.2001 34.7 17.5001C34.2 17.2001 33.7 16.9001 33.3 16.5001C32.9 16.2001 32.5 15.9001 32.1 15.5001C32 15.5001 32 15.4001 31.9 15.4001C31.5 15.1001 31.6 15.1001 31.7 14.7001C31.9 14.1001 32.1 13.6001 32.3 13.0001C32.9 13.5001 33.5 14.0001 34.1 14.5001C34.7 15.0001 35.4 15.4001 36.1 15.8001C36.8 16.2001 37.5 16.5001 38.3 16.8001C38.3 16.0001 38.4 15.3001 38.4 14.6001C37.6 14.2001 36.8 13.8001 36 13.3001C35.7 13.1001 35.7 13.1001 35.8 12.8001C36 12.4001 36.1 12.0001 36.3 11.6001C36.5 11.2001 36.4 11.2001 36.1 10.9001C35.5 10.4001 34.9 9.80013 34.4 9.20013C34.8 8.70013 35.2 8.2001 35.5 7.6001C36.1 8.2001 36.6 8.70013 37.2 9.20013C37.9 9.80013 38.7 10.4001 39.1 10.4001C39.3 9.70015 39.5 9.00015 39.7 8.40015C39.3 8.10015 38.8 7.80012 38.4 7.50012C38.9 6.90012 39.3 6.30013 39.8 5.70013C39.4 5.30013 39 4.90015 38.6 4.40015C40.4 2.90015 42.3 1.5001 44.5 0.600098C44.4 1.1001 44.2 1.50012 44.2 2.00012C44.1 2.60012 43.9 3.20015 43.8 3.90015C43.8 4.30015 43.6 4.70013 43.6 5.20013C43.6 5.60013 43.5 6.00011 43.5 6.30011C43.5 7.10011 43.4 7.8001 43.4 8.6001C43.4 9.4001 43.4 10.3001 43.5 11.1001C43.5 11.8001 43.6 12.5001 43.7 13.1001C43.8 13.8001 44 14.5001 44.1 15.1001C44.3 15.8001 44.5 16.6001 44.8 17.3001C45 17.9001 45.3 18.6001 45.6 19.2001C46 20.1001 46.4 20.9001 46.9 21.7001C47.4 22.5001 47.9 23.4001 48.6 24.1001C49.2 24.8001 49.7 25.5001 50.4 26.1001C51.7 27.3001 53 28.5001 54.6 29.5001C55.3 30.0001 56.1 30.4001 56.8 30.9001C57.4 31.2001 58 31.5001 58.6 31.9001C58.7 32.0001 58.8 32.0001 58.9 32.1001C58.8 32.2001 58.8 32.2001 58.7 32.2001C57.9 32.5001 57.1 32.8001 56.3 33.1001C55.6 33.4001 54.9 33.6001 54.3 33.8001C53.9 33.9001 53.5 34.0001 53.1 34.1001C52.3 34.3001 51.4 34.5001 50.6 34.7001C50.2 34.8001 49.8 34.8001 49.4 34.9001C48.9 35.0001 48.4 35.1001 47.9 35.1001C46.9 35.2001 45.9 35.2001 44.9 35.2001C43.8 35.2001 42.8 35.2001 41.7 35.1001C41.2 35.1001 40.6 35.0001 40.1 34.9001C40 34.9001 40 34.9001 39.9 34.9001C39.7 34.9001 39.5 34.8001 39.3 34.6001C38.9 34.0001 38.4 33.3001 38 32.7001C37.8 32.5001 37.7 32.2001 37.4 32.3001C36.7 32.1001 36.1 31.9001 35.4 31.7001C34.8 31.5001 34.2 31.4001 33.7 31.2001C33.2 31.0001 32.8 30.8001 32.3 30.7001C32.1 30.6001 32 30.4001 31.9 30.2001C31.7 29.5001 31.5 28.8001 31.2 28.1001C31.2 28.0001 31.2 27.9001 31.1 27.9001C31.2 27.8001 31.3 27.9001 31.4 27.9001C32.1 28.2001 32.7 28.5001 33.4 28.8001C34.2 29.1001 35 29.4001 35.8 29.6001C36.3 29.7001 36.8 29.9001 37.3 30.0001C37.9 30.1001 38.5 30.2001 39.1 30.4001C39.5 30.5001 39.8 30.6001 40.2 30.6001C40.5 30.6001 40.9 30.7001 41.2 30.7001C41.4 30.6001 42 30.6001 42.5 30.6001C42.5 30.7001 42.5 30.7001 42.5 30.6001Z" fill="white"/>
<path id="Vector_7" d="M79.0001 47.7003C79.2001 47.9003 79.4001 48.1003 79.7001 48.3003C80.1001 48.6003 80.2001 49.1003 80.4001 49.6003C80.6001 50.1003 80.5001 50.6003 80.4001 51.1003C80.2001 51.9003 79.8001 52.5003 79.1001 52.9003C78.5001 53.2003 77.9001 53.5003 77.2001 53.5003C76.1001 53.5003 74.9 53.5003 73.8 53.6003C73.2 53.6003 72.7001 53.6003 72.1001 53.6003C72.0001 53.6003 71.9 53.6003 71.8 53.6003C71.8 50.2003 71.8 46.7003 71.8 43.3003C71.9 43.3003 72.0001 43.3003 72.1001 43.3003C73.6001 43.3003 75.1001 43.3003 76.7001 43.3003C77.3001 43.3003 77.9001 43.4003 78.4001 43.6003C78.9001 43.8003 79.4001 44.0003 79.7001 44.5003C80.0001 45.0003 80.2001 45.6003 80.0001 46.3003C80.0001 46.4003 79.9001 46.5003 79.9001 46.7003C79.8001 47.0003 79.5001 47.3003 79.0001 47.7003ZM73.9001 51.5003C75.0001 51.5003 76.1001 51.5003 77.2001 51.5003C77.5001 51.5003 77.8001 51.3003 78.1001 51.1003C78.6001 50.5003 78.5001 49.8003 78.0001 49.2003C77.9001 49.1003 77.8001 49.0003 77.6001 49.0003C77.3001 48.9003 77.0001 48.8003 76.7001 48.8003C75.9001 48.8003 75.0001 48.8003 74.2001 48.8003C74.1001 48.8003 74.0001 48.8003 73.9001 48.8003C73.9001 49.7003 73.9001 50.6003 73.9001 51.5003ZM73.9001 46.9003C74.0001 46.9003 74.0001 46.9003 74.1001 46.9003C75.1001 46.9003 76.0001 46.9003 77.0001 46.9003C77.1001 46.9003 77.2 46.8003 77.3 46.8003C77.8 46.8003 78.0001 46.4003 78.0001 45.9003C78.0001 45.4003 77.7 45.0003 77.3 45.0003C77.1 45.0003 77 44.9003 76.8 44.9003C75.9 44.9003 75.0001 44.9003 74.2001 44.9003C74.1001 44.9003 74.0001 44.9003 73.9001 44.9003C73.9001 45.6003 73.9001 46.2003 73.9001 46.9003Z" fill="white"/>
<path id="Vector_8" d="M17.7001 46.4001C17.7001 48.7001 17.7001 51.0001 17.7001 53.4001C17.0001 53.4001 16.3001 53.4001 15.6001 53.4001C15.6001 50.0001 15.6001 46.6001 15.6001 43.1001C15.7001 43.1001 15.8001 43.1001 15.8001 43.1001C16.5001 43.1001 17.1001 43.1001 17.8001 43.1001C18.0001 43.1001 18.1001 43.2001 18.3001 43.4001C18.8001 44.3001 19.4001 45.3001 19.9001 46.2001C20.4001 47.1001 20.9001 47.9001 21.4001 48.8001C21.6001 49.2001 21.8001 49.5001 22.1001 49.9001C22.1001 49.9001 22.1001 49.9001 22.2001 49.9001C22.2001 49.9001 22.2001 49.9001 22.2001 49.8001C22.2001 49.0001 22.2001 48.2001 22.2001 47.4001C22.2001 46.1001 22.2001 44.8001 22.2001 43.5001C22.2001 43.4001 22.2001 43.3001 22.2001 43.1001C22.6001 43.1001 22.9001 43.1001 23.2001 43.1001C23.5001 43.1001 23.9001 43.1001 24.2001 43.1001C24.2001 43.2001 24.2001 43.3001 24.2001 43.4001C24.2001 46.7001 24.2001 50.0001 24.2001 53.3001C24.2001 53.3001 24.2001 53.3001 24.2001 53.4001C24.2001 53.4001 24.2001 53.5001 24.1001 53.5001C23.8001 53.5001 23.5001 53.5001 23.2001 53.5001C22.9001 53.5001 22.5001 53.5001 22.2001 53.5001C22.0001 53.5001 21.8001 53.4001 21.7001 53.2001C21.4001 52.6001 21.0001 52.0001 20.7001 51.5001C20.2001 50.6001 19.7001 49.8001 19.2001 48.9001C18.7001 48.1001 18.2001 47.3001 17.8001 46.5001L17.7001 46.4001Z" fill="white"/>
<path id="Vector_9" d="M94.8001 43.1001C96.7001 43.1001 98.5001 43.1001 100.3 43.1001C100.9 43.1001 101.4 43.2001 101.9 43.6001C102.4 43.9001 102.8 44.4001 103 45.1001C103.2 45.6001 103.2 46.1001 103.1 46.6001C102.9 47.4001 102.6 48.0001 102 48.5001C101.8 48.6001 101.6 48.7001 101.4 48.8001C102.1 50.3001 102.7 51.9001 103.4 53.4001C102.7 53.5001 102 53.4001 101.2 53.4001C100.5 51.9001 100 50.4001 99.3001 48.9001C98.5001 48.9001 97.6001 48.9001 96.7001 48.9001C96.7001 50.4001 96.7001 51.9001 96.7001 53.4001C96.0001 53.4001 95.3001 53.4001 94.6001 53.4001C94.8001 50.0001 94.8001 46.5001 94.8001 43.1001ZM97.0001 45.0001C96.9001 45.3001 96.9001 45.5001 96.9001 45.8001C96.9001 46.2001 96.9001 46.6001 96.9001 47.1001C97.1001 47.1001 97.2001 47.1001 97.3001 47.1001C98.1001 47.1001 98.9001 47.1001 99.7001 47.1001C99.9001 47.1001 100.2 47.1001 100.4 47.0001C101 46.9001 101.2 46.3001 101.2 45.8001C101.1 45.2001 100.7 44.9001 100.1 44.9001C99.1001 44.9001 98.0001 45.0001 97.0001 45.0001Z" fill="white"/>
<path id="Vector_10" d="M35.5001 53.6003C35.3001 53.5003 35.2001 53.5003 35.0001 53.6003C34.6001 53.6003 34.2 53.6003 33.8 53.6003C32.5 53.4003 31.6001 52.7003 31.0001 51.6003C30.7001 51.0003 30.4 50.4003 30.3 49.7003C30.2 49.1003 30.2001 48.4003 30.2001 47.8003C30.2001 46.9003 30.4001 46.0003 30.9001 45.2003C31.3001 44.4003 31.9001 43.7003 32.7001 43.3003C33.4001 43.0003 34.1001 42.8003 34.9001 42.8003C35.4001 42.8003 36.0001 42.9003 36.5001 43.1003C37.1001 43.3003 37.6001 43.5003 38.0001 44.0003C38.5001 44.6003 38.7001 44.9003 38.9001 45.7003C38.3001 46.0003 37.6001 46.2003 37.0001 46.4003C36.9001 45.8003 36.6001 45.3003 36.2001 45.0003C36.0001 44.9003 35.8001 44.7003 35.5001 44.7003H35.4001C35.0001 44.5003 34.6 44.6003 34.3 44.7003C33.4 44.9003 33 45.6003 32.8 46.4003C32.7 46.7003 32.6001 47.0003 32.6001 47.3003C32.6001 47.8003 32.6001 48.3003 32.6001 48.8003C32.6001 49.2003 32.6 49.6003 32.8 50.0003C33.1 50.9003 33.5001 51.6003 34.5001 51.8003C35.6001 52.0003 36.9 51.5003 37.3 50.5003C37.4 50.4003 37.4001 50.3003 37.4001 50.1003C37.4001 49.8003 37.4001 49.5003 37.4001 49.1003C36.6001 49.1003 35.9001 49.1003 35.1001 49.1003C35.1001 49.1003 35.1001 49.1003 35.0001 49.0003C35.0001 48.5003 35.0001 47.9003 35.0001 47.4003C35.0001 47.4003 35.0001 47.4003 35.1001 47.3003C35.9001 47.3003 36.6001 47.3003 37.4001 47.3003C38.1001 47.3003 38.7001 47.3003 39.4001 47.3003C39.4001 49.3003 39.4001 51.3003 39.4001 53.3003C39.0001 53.4003 38.5001 53.3003 38.1001 53.3003C37.9001 53.3003 37.9001 53.1003 37.9001 52.9003C37.9001 52.7003 37.9 52.5003 37.8 52.3003C37 53.1003 36.3001 53.5003 35.5001 53.6003Z" fill="white"/>
<path id="Vector_11" d="M45.6001 53.4001C45.6001 50.0001 45.6001 46.5001 45.6001 43.1001C48.2001 43.1001 50.8001 43.1001 53.4001 43.1001C53.4001 43.7001 53.4001 44.3001 53.4001 44.9001C51.5001 44.9001 49.6001 44.9001 47.7001 44.9001C47.7001 45.6001 47.7001 46.2001 47.7001 46.8001C47.9001 46.8001 48.0001 46.8001 48.2001 46.8001C49.4001 46.8001 50.5001 46.8001 51.7001 46.8001C52.0001 46.8001 52.4001 46.8001 52.8001 46.8001C52.8001 47.4001 52.8001 48.0001 52.8001 48.6001C51.1001 48.6001 49.5001 48.6001 47.8001 48.6001C47.8001 49.5001 47.8001 50.4001 47.8001 51.4001C48.3001 51.4001 48.8001 51.4001 49.2001 51.4001C49.7001 51.4001 50.2001 51.4001 50.7001 51.4001C51.2001 51.4001 51.7001 51.4001 52.1001 51.4001C52.6001 51.4001 53.1001 51.4001 53.6001 51.4001C53.6001 52.0001 53.6001 52.6001 53.6001 53.2001C53.2001 53.4001 46.2001 53.5001 45.6001 53.4001Z" fill="white"/>
<path id="Vector_12" d="M4.50006 43.1001C5.00006 43.1001 5.50005 43.1001 5.90005 43.1001C6.10005 43.1001 6.10007 43.2001 6.20007 43.3001C6.50007 44.0001 6.70006 44.8001 7.00006 45.5001C7.40006 46.6001 7.90005 47.7001 8.30005 48.8001C8.60005 49.6001 8.90005 50.5001 9.30005 51.3001C9.60005 52.0001 9.80007 52.7001 10.1001 53.4001C10.0001 53.4001 9.90005 53.4001 9.80005 53.4001C9.20005 53.4001 8.70007 53.4001 8.10007 53.4001C7.80007 53.4001 7.80007 53.4001 7.70007 53.1001C7.50007 52.5001 7.30007 52.0001 7.20007 51.4001C5.90007 51.4001 4.70006 51.4001 3.50006 51.4001C3.30006 52.1001 3.10005 52.7001 2.80005 53.4001C2.10005 53.4001 1.40007 53.4001 0.700073 53.4001C1.30007 51.6001 2.00007 49.9001 2.60007 48.2001C3.20007 46.5001 3.80006 44.8001 4.50006 43.1001ZM6.60007 49.6001C6.20007 48.3001 5.80006 47.1001 5.40005 45.8001H5.30005C5.00005 46.8001 4.70005 47.8001 4.30005 48.8001C4.20005 49.1001 4.20007 49.3001 4.10007 49.6001C4.90007 49.6001 5.70007 49.6001 6.60007 49.6001Z" fill="white"/>
<path id="Vector_13" d="M59.3 53.4001C59.3 50.0001 59.3 46.6001 59.3 43.1001C60 43.1001 60.7001 43.1001 61.4001 43.1001C61.4001 45.9001 61.4001 48.7001 61.4001 51.5001C63.0001 51.5001 64.6001 51.5001 66.2001 51.5001C66.2001 52.1001 66.2001 52.7001 66.2001 53.3001C65.8001 53.4001 60.2 53.5001 59.3 53.4001Z" fill="white"/>
<path id="Vector_14" d="M88.3 53.4001C87.7 53.4001 87 53.4001 86.3 53.4001C86.3 50.0001 86.3 46.7001 86.3 43.3001C86.3 43.3001 86.3 43.2001 86.3 43.1001C87 43.1001 87.6 43.1001 88.3 43.1001C88.4 43.5001 88.4 53.0001 88.3 53.4001Z" fill="white"/>
<path id="Vector_15" d="M17.7001 46.4003V46.3003L17.8 46.4003H17.7001Z" fill="white"/>
</g>
</g>
</svg>
