<svg width="127" height="27" viewBox="0 0 127 27" fill="none" xmlns="http://www.w3.org/2000/svg">
<g id="Group">
<path id="Vector" d="M78.3001 25.9998C75.7001 25.9998 73.2001 25.9998 70.6001 25.9998C70.6001 25.7998 70.6001 25.5998 70.6001 25.4998C70.6001 20.4998 70.6001 15.3998 70.6001 10.3998C70.6001 9.49983 70.0001 8.69981 68.9001 8.49981C68.1001 8.29981 67.2001 8.79979 66.8001 9.59979C66.7001 9.79979 66.7001 9.99982 66.7001 10.1998C66.7001 15.2998 66.7001 20.3998 66.7001 25.4998C66.7001 25.6998 66.7001 25.8998 66.7001 26.0998C64.2001 26.0998 61.6001 26.0998 59.1001 26.0998C59.1001 20.2998 59.1001 14.3998 59.1001 8.49981C57.7001 8.49981 56.3001 8.49981 54.9001 8.49981V8.39983C55.6001 7.99983 56.2001 7.5998 56.9001 7.2998C58.6001 6.3998 60.2001 5.59981 62.0001 4.99981C64.2001 4.29981 66.5001 5.79981 66.7001 7.99981C66.7001 8.09981 66.8001 8.09982 66.8001 8.19982C67.6001 7.69982 68.5001 7.1998 69.3001 6.7998C70.8001 5.9998 72.2001 5.09983 73.9001 4.89983C75.9001 4.59983 77.7001 5.69982 78.3001 7.69982C78.4001 7.99982 78.4001 8.29979 78.4001 8.59979C78.4001 14.2998 78.4001 19.8998 78.4001 25.5998C78.3001 25.5998 78.3001 25.6998 78.3001 25.9998Z" fill="white"/>
<path id="Vector_2" d="M103.3 8.0999C105.3 6.7999 107.4 5.69995 109.6 4.89995C112 3.99995 114.4 5.59993 114.6 7.99993C114.6 7.99993 114.6 7.9999 114.7 8.0999C115.7 7.5999 116.6 6.99993 117.7 6.49993C118.9 5.89993 120 5.39995 121.2 4.89995C123.5 4.09995 125.7 5.39995 126.3 7.89995C126.3 7.99995 126.3 8.09994 126.3 8.19994C126.3 14.0999 126.3 19.8999 126.3 25.7999C126.3 25.8999 126.3 25.8999 126.3 25.9999C123.8 25.9999 121.2 25.9999 118.6 25.9999C118.6 25.7999 118.6 25.6999 118.6 25.4999C118.6 20.4999 118.6 15.4 118.6 10.4C118.6 9.29995 117.9 8.69993 116.9 8.49993C116.1 8.29993 115.2 8.7999 114.8 9.5999C114.7 9.7999 114.7 9.99994 114.7 10.1999C114.7 15.2999 114.7 20.3999 114.7 25.4999C114.7 25.6999 114.7 25.8999 114.7 26.0999C112.2 26.0999 109.7 26.0999 107.1 26.0999C107.1 20.2999 107.1 14.3999 107.1 8.49993C105.8 8.49993 104.6 8.49993 103.3 8.49993C103.3 8.29993 103.3 8.1999 103.3 8.0999Z" fill="white"/>
<path id="Vector_3" d="M56.8 26.0001C54.4 26.0001 52 26.0001 49.6 26.0001C49.5 26.0001 49.3001 25.9001 49.2001 25.7001C48.8001 24.3001 48.4 22.9001 47.9 21.4001C47.6 21.8001 47.4001 22.3001 47.1001 22.7001C46.0001 24.3001 44.3 25.2001 42.4 25.7001C41.2 26.1001 39.9001 26.1001 38.6001 26.0001C36.2001 25.8001 34.1001 24.9001 32.5001 23.0001C30.8001 21.0001 30.7 18.1001 32.4 16.0001C33.8 14.3001 35.7 13.4001 37.8 13.0001C39.7 12.7001 41.6 12.8001 43.4 13.5001C44.2 13.8001 45 14.3001 45.8 14.7001C45.7 14.4001 45.7001 14.0001 45.6001 13.7001C45.1001 12.1001 44.6001 10.5001 44.1001 8.90009C44.0001 8.50009 43.8001 8.50007 43.5001 8.50007C40.8001 8.50007 38.2001 8.50009 35.5001 8.40009C35.9001 8.20009 36.3001 8.00006 36.7001 7.80006C39.0001 6.90006 41.3001 5.90005 43.7001 5.10005C45.4001 4.50005 47.1001 4.50006 48.7001 5.30006C50.2001 6.10006 51.2001 7.30009 51.7001 8.90009C52.1001 10.3001 52.5001 11.7001 52.9001 13.0001C53.9001 16.5001 55 20.1 56.1 23.6C56.4 24.4 56.6 25.1001 56.8 26.0001ZM43.2001 23.7001C45.6001 23.6001 47.4 21.8001 47.4 19.5001C47.4 17.1001 45.6001 15.3001 43.2001 15.3001C40.9001 15.3001 39.0001 17.1001 39.0001 19.4001C38.9001 21.8001 40.8001 23.6001 43.2001 23.7001Z" fill="white"/>
<path id="Vector_4" d="M30.1001 19.3C30.2001 19.6 30.4001 20 30.4001 20.4C30.4001 20.6 30.2001 20.9 30.0001 21C27.9001 23.5 25.1001 25 21.9001 25.8C20.6001 26.1 19.3001 26.2 17.9001 26.3C17.0001 26.4 16.0001 26.4 15.1001 26.3C13.3001 26.1 11.6001 25.7999 10.0001 25.0999C8.40006 24.4999 7.00007 23.7 5.70007 22.7C4.30007 21.7 3.20004 20.4 2.30004 18.9C1.60004 17.7 1.10005 16.4 0.900051 15C0.600051 12.9 0.800069 10.9 1.70007 8.99997C2.50007 7.29997 3.50005 5.79997 4.90005 4.49997C6.90005 2.69997 9.20004 1.5 11.8 0.899998C13.2 0.499998 14.6001 0.399961 16.1001 0.299961C19.0001 0.199961 21.8001 0.599986 24.4001 1.69999C26.6001 2.59999 28.4001 3.99999 30.0001 5.69999C30.2001 5.89999 30.4001 6.2 30.6001 6.4C30.8001 6.7 30.8001 6.89997 30.5001 6.99997C28.9001 7.89997 27.3001 8.9 25.7001 9.9C24.1001 10.9 22.5001 11.8 20.9001 12.8C20.7001 12.9 20.6 12.9 20.3 12.9C20.8 12 21.4001 11.2 22.0001 10.3C23.4001 8.19996 24.7001 6.09995 26.1001 4.09995C26.3001 3.79995 26.2001 3.79999 26.0001 3.69999C24.6001 2.89999 23.2001 2.2 21.6001 1.9C20.6001 1.7 19.7001 1.79997 18.7001 1.99997C17.4001 2.19997 16.2001 2.59999 15.1001 3.19999C13.2001 4.19999 11.7001 5.69995 10.6001 7.59995C9.50006 9.59995 9.00007 11.7 9.20007 14C9.40007 16 10.1001 17.8 11.2001 19.4C12.3001 21 13.8001 22.2 15.5001 23C17.4001 23.9 19.4001 24.2999 21.5001 24.0999C23.6001 23.8999 25.5001 23.1 27.2001 21.7C28.2001 21 29.2001 20.2 30.1001 19.3Z" fill="white"/>
<path id="Vector_5" d="M102.6 15.3999C102.6 21.4999 97.7001 26.3999 91.7001 26.3999C85.6001 26.3999 80.4001 21.5999 80.7001 14.8999C80.9001 9.1999 85.5001 4.3999 91.7001 4.3999C97.7001 4.3999 102.6 9.2999 102.6 15.3999ZM89.8001 5.69989C88.5001 5.49989 87.3001 6.7999 86.9001 7.8999C86.8001 8.0999 86.8001 8.2999 86.9001 8.3999C87.2001 9.4999 87.6001 10.5999 87.9001 11.6999C88.8001 14.4999 89.6001 17.3999 90.5001 20.1999C90.7001 20.8999 91.0001 21.5999 91.1001 22.2999C91.3001 23.5999 92.0001 24.5999 93.3001 24.8999C94.9001 25.2999 96.6001 23.8999 96.5001 22.3999C96.4001 21.3999 96.1001 20.4999 95.8001 19.4999C95.1001 16.8999 94.3001 14.2999 93.5001 11.6999C93.1001 10.3999 92.8001 9.09987 92.4001 7.79987C92.1001 6.59987 91.0001 5.59989 89.8001 5.69989Z" fill="white"/>
<path id="Vector_6" d="M103.3 8.1001C103.3 8.2001 103.3 8.30015 103.3 8.40015C103.2 8.40015 103.1 8.40015 103 8.40015V8.30011C103.1 8.20011 103.2 8.1001 103.3 8.1001Z" fill="white"/>
<path id="Vector_7" d="M103 8.2998C102.9 8.3998 103 8.3998 103 8.2998V8.2998Z" fill="white"/>
</g>
</svg>
