<svg width="123" height="27" viewBox="0 0 123 27" fill="none" xmlns="http://www.w3.org/2000/svg">
<g id="Group">
<path id="Vector" d="M79.1 10.0001C79.2 10.0001 79.3 10.0001 79.3 10.0001C79.3 9.80012 79.4 9.7001 79.4 9.6001C79.7 9.5001 79.7 9.4001 79.7 9.1001C79.7 8.9001 79.7 8.70012 79.7 8.50012C79.7 8.40012 79.6 8.30013 79.6 8.20013C79.6 8.10013 79.5 8.10012 79.5 8.00012C79.4 7.60012 79.1 7.40013 78.8 7.20013C78.2 6.80013 77.6 6.90015 77 6.90015C71.8 6.90015 66.5 6.90015 61.3 6.90015C61.1 6.90015 60.9 6.90013 60.8 7.20013C60.6 7.20013 60.4 7.20012 60.5 7.50012C60.5 7.70012 60.5 7.80012 60.5 8.00012C60.5 13.8001 60.5 19.6001 60.5 25.4001C60.5 25.6001 60.5 25.7001 60.5 25.9001C59.5 25.9001 58.5 25.9001 57.5 25.9001C57.5 25.7001 57.5 25.6001 57.5 25.4001C57.5 18.3001 57.5 11.3001 57.5 4.20013C57.5 3.80013 57.5 3.30015 57.5 2.90015C57.5 2.80015 57.5 2.70012 57.5 2.50012C57.5 2.40012 57.5 2.30013 57.5 2.20013C57.5 2.10013 57.5 2.10012 57.6 2.00012C57.7 1.90012 57.7 1.7001 57.8 1.6001C58 1.3001 58.2 1.10012 58.5 1.00012C58.8 0.900122 59.1 0.700098 59.4 0.600098C59.5 0.600098 59.6 0.600098 59.7 0.600098C59.8 0.600098 59.9 0.600098 60.1 0.600098C66.7 0.600098 73.2 0.600098 79.8 0.600098C80.1 0.600098 80.3 0.600098 80.6 0.600098C81.6 0.800098 82.7 2.0001 82.8 3.1001C82.8 6.7001 82.8 10.4001 82.8 14.0001C82.7 14.4001 82.6 14.7001 82.3 15.0001C82.1 15.2001 82.1 15.5001 81.9 15.7001C81.7 15.9001 81.5 16.3001 81.1 16.3001C81 16.3001 80.8 16.4001 80.7 16.5001C76.7 16.5001 72.7 16.5001 68.8 16.5001C68.7 16.5001 68.6 16.6001 68.4 16.6001V16.7001C68.7 16.9001 69 17.0001 69.2 17.2001C69.4 17.3001 69.6 17.4001 69.8 17.5001C70.1 17.7001 70.5 17.9001 70.8 18.1001C71 18.2001 71.2 18.4001 71.4 18.5001C71.5 18.6001 71.6 18.7001 71.7 18.8001C71.9 19.1001 72.1 19.1001 72.4 19.2001C72.9 19.3001 73.3 19.7001 73.7 20.0001C73.9 20.1001 74 20.1001 74.2 20.2001C77 20.2001 79.8 20.2001 82.6 20.2001C82.6 22.1001 82.6 23.9001 82.6 25.8001C80.9 25.8001 79.2 25.8001 77.5 25.8001C77.4 25.8001 77.2 25.9001 77.1 25.9001C77.1 25.9001 77.1 25.9001 77 25.9001C76.6 25.6001 76.2 25.4001 75.8 25.1001C75.2 24.7001 74.7 24.3001 74.1 23.9001C73.6 23.6001 73 23.3001 72.5 23.0001C72.1 22.7001 71.7 22.5001 71.3 22.2001C71 21.9001 70.5 21.8001 70.1 21.5001C69.7 21.2001 69.3 20.9001 68.8 20.6001C68.4 20.4001 68 20.1001 67.6 19.9001C67.5 19.9001 67.4 19.8001 67.4 19.8001C67.2 19.4001 66.7 19.3001 66.4 19.1001C66.3 19.0001 66.1 18.9001 66.1 18.8001C66.1 18.5001 65.9 18.6001 65.8 18.6001H65.7C65.7 18.5001 65.6 18.5001 65.6 18.4001C65.2 18.3001 64.8 18.0001 64.3 17.5001H64.2C63.7 17.4001 63.4 17.1001 63.1 16.8001C63.1 16.6001 63.1 16.4001 62.8 16.4001C62.8 15.2001 62.8 13.9001 62.8 12.7001C62.8 12.0001 62.8 11.3001 62.8 10.5001C62.8 10.5001 62.8 10.5001 62.9 10.5001C65.6 10.5001 68.3 10.5001 71 10.5001C73.4 10.5001 75.9 10.5001 78.3 10.5001C78.5 10.5001 78.7 10.5001 78.7 10.2001C78.8 10.2001 78.9 10.2001 79 10.2001C78.8 10.5001 78.9 10.2001 79.1 10.0001Z" fill="white"/>
<path id="Vector_2" d="M54.3 24.6002C54 25.3002 53.6 25.7002 52.9 26.0002C52.8 26.0002 52.7 26.0002 52.7 26.1002C52.6 26.1002 52.5 26.0002 52.4 26.0002C52.2 26.0002 52 26.0002 51.8 26.0002C44.7 26.0002 37.6 26.0002 30.5 26.0002C30.4 26.0002 30.3 26.1002 30.2 26.1002H30.1C29.8 26.0002 29.5 25.9002 29.2 25.7002C29.1 25.6002 29 25.5002 29 25.3002C28.9 25.0002 28.5 24.8002 28.7 24.4002C28.8 24.3002 28.9 24.2002 28.9 24.2002C28.9 23.7002 28.9 23.3002 28.8 22.8002C28.8 22.6002 28.7 22.5002 28.5 22.5002C28.5 20.6002 28.5 18.6002 28.5 16.7002C28.5 16.5002 28.5 16.2002 28.5 16.0002C28.5 13.9002 28.5 11.9002 28.5 9.80017C28.5 7.90017 28.5 6.1002 28.5 4.2002C28.5 3.9002 28.5 3.6002 28.5 3.2002C28.5 2.9002 28.6 2.60021 28.6 2.40021C28.8 2.20021 29 2.10017 29.1 1.80017C29.2 1.40017 29.5 1.20016 29.8 1.10016C30.2 0.900159 30.5 0.700195 31 0.700195C31.3 0.700195 31.6 0.700195 32 0.700195C32.2 0.700195 32.3 0.700195 32.5 0.700195C38.7 0.700195 45 0.700195 51.2 0.700195C51.3 0.700195 51.4 0.700195 51.6 0.700195C51.8 0.700195 52 0.700195 52.3 0.700195C52.7 0.900195 53.1 1.0002 53.5 1.2002C53.7 1.3002 53.7 1.5002 53.8 1.7002C54.2 2.1002 54.3 2.50018 54.6 3.00018V3.10016C54.6 3.20016 54.5 3.30018 54.5 3.50018C54.5 6.20018 54.5 8.9002 54.5 11.7002C54.5 12.8002 54.5 13.9002 54.5 14.9002C54.5 17.8002 54.5 20.6002 54.5 23.5002C54.5 23.8002 54.6 24.1002 54.6 24.5002C54.3 24.5002 54.3 24.5002 54.3 24.6002ZM50.9 8.00018C50.9 7.80018 50.9 7.60016 50.6 7.60016C50.5 7.30016 50.3 7.10018 49.9 7.00018C49.9 6.70018 49.7 6.7002 49.5 6.7002C47.5 6.7002 45.5 6.7002 43.5 6.7002C40.1 6.7002 36.8 6.7002 33.4 6.7002C33.2 6.7002 32.9 6.60018 33 7.00018C32.8 7.10018 32.7 7.1002 32.5 7.2002C32.1 7.4002 32.2 7.80016 32 8.10016C32 8.20016 31.9 8.40018 31.9 8.50018C31.9 11.9002 31.9 15.4002 31.9 18.8002C31.9 18.9002 32 19.0002 32 19.1002C32.1 19.2002 32.2 19.2002 32.2 19.3002C32.2 19.4002 32.2 19.5002 32.2 19.5002C32.5 19.7002 32.7 20.0002 33.1 20.0002C33.2 20.0002 33.4 20.1002 33.5 20.1002C38.7 20.1002 43.9 20.1002 49.2 20.1002C49.3 20.1002 49.3 20.1002 49.4 20.1002C49.5 20.0002 49.5 20.0002 49.6 19.9002C49.7 19.8002 49.9 19.6002 50 19.6002C50.3 19.6002 50.4 19.4002 50.5 19.1002C50.7 19.1002 50.9 19.1002 50.7 18.8002C50.7 18.7002 50.7 18.6002 50.7 18.5002C51 18.5002 51 18.3002 51 18.1002C51 15.5002 51 13.0002 51 10.4002C51 9.60021 51 8.80018 51 8.00018C51.1 8.10018 51.1 7.90018 50.9 8.00018Z" fill="white"/>
<path id="Vector_3" d="M0.300025 3.2998C0.300025 3.1998 0.100062 2.99984 0.400062 2.89984V2.7998C0.300062 2.3998 0.500025 2.09984 0.800025 1.89984C1.20003 1.59984 1.40004 1.09979 2.00004 1.09979C2.30004 0.999792 2.60003 0.999841 2.80003 0.899841C2.80003 0.899841 2.80006 0.799805 2.90006 0.799805C3.00006 0.799805 3.20003 0.799805 3.30003 0.799805C3.40003 0.799805 3.50001 0.799805 3.60001 0.799805C3.70001 0.799805 3.90004 0.799805 4.00004 0.799805C10 0.799805 16.0001 0.799805 21.9001 0.799805C22.2001 0.799805 22.5 0.799805 22.8 0.799805C23 0.799805 23.3 0.799805 23.5 0.799805C23.6 0.799805 23.7 0.799805 23.8 0.799805C24.4 0.899805 24.8001 1.29983 25.2001 1.69983C25.3001 1.79983 25.2 1.89982 25.3 1.99982C25.2 2.49982 25.7001 2.7998 25.7001 3.2998C25.7001 4.3998 25.7001 5.49983 25.7001 6.69983C25.7001 6.69983 25.7001 6.6998 25.7001 6.7998C19 6.7998 12.3 6.7998 5.60001 6.7998C5.50001 6.7998 5.30005 6.7998 5.20005 6.7998C5.00005 6.7998 4.90006 6.89979 4.90006 7.09979C4.50006 7.19979 4.20003 7.29982 3.80003 7.49982C3.70003 7.49982 3.70005 7.69983 3.70005 7.69983C3.60005 7.79983 3.60004 7.89979 3.50004 8.09979C3.20004 8.09979 3.30003 8.39982 3.30003 8.49982C3.30003 8.79982 3.10004 9.0998 3.50004 9.2998C3.50004 9.2998 3.50001 9.2998 3.60001 9.2998C3.60001 9.2998 3.70005 9.29984 3.70005 9.39984C3.70005 9.89984 4.10002 10.0998 4.30002 10.3998C4.60003 10.4998 4.80001 10.5998 5.10001 10.7998C5.20001 10.8998 5.30006 10.8998 5.40006 10.8998C6.00006 10.8998 6.50001 10.8998 7.10001 10.8998C7.20001 10.8998 7.40004 10.8998 7.50004 10.8998C13.6 10.8998 19.6 10.8998 25.7001 10.8998C25.7001 10.9998 25.7001 11.1998 25.7001 11.2998C25.7001 13.0998 25.7001 14.8998 25.7001 16.6998C25.5 16.6998 25.3 16.6998 25.1 16.6998C23.4 16.6998 21.8 16.6998 20.1 16.6998H20C15 16.6998 10 16.6998 5.00004 16.6998C4.70004 16.6998 4.40005 16.6998 4.20005 17.0998C4.20005 17.1998 4.10001 17.2998 4.10001 17.2998C3.70001 17.2998 3.60001 17.5998 3.60001 17.8998L3.50004 17.9998C3.30004 17.9998 3.30006 18.1998 3.40006 18.2998C3.40006 20.9998 3.40006 23.6998 3.40006 26.2998C2.60006 26.2998 1.80004 26.2998 1.00004 26.2998C1.00004 26.1998 1.00006 25.9998 0.900062 25.9998C0.500062 25.9998 0.600013 25.6998 0.600013 25.4998C0.600013 18.2998 0.600013 11.0998 0.600013 3.89984C0.500013 3.69984 0.400025 3.4998 0.300025 3.2998Z" fill="white"/>
<path id="Vector_4" d="M97.9001 16.4998C97.6001 16.3998 97.2001 16.2998 96.9001 16.1998L96.8001 16.0998C96.7001 16.0998 96.7001 16.0998 96.6001 16.0998C96.6001 15.6998 96.2001 15.6998 96.0001 15.4998C95.9001 15.3998 95.8001 15.3998 95.8001 15.2998C95.6001 14.8998 95.4001 14.4998 95.3001 14.0998C95.4001 13.9998 95.4001 13.8998 95.4001 13.8998C95.4001 13.4998 95.4001 13.1998 95.4001 12.7998C95.4001 12.6998 95.3001 12.6998 95.3001 12.5998C95.4001 12.3998 95.5001 12.1998 95.5001 11.9998C95.7001 11.4998 95.9001 10.9998 96.0001 10.5998C96.3001 10.5998 96.4001 10.4998 96.3001 10.1998C96.3001 10.0998 96.3001 10.0998 96.3001 9.99982C96.6001 9.99982 96.7001 9.89979 96.6001 9.59979C96.8001 9.09979 96.9001 8.69983 97.1001 8.19983C97.3001 7.79983 97.5001 7.39982 97.6001 6.99982C97.7001 6.89982 97.7001 6.7998 97.8001 6.7998C97.8001 6.6998 97.8001 6.59982 97.8001 6.49982C98.2001 6.49982 98.2001 6.19984 98.1001 5.89984C98.1001 5.79984 98.1001 5.69979 98.1001 5.59979C98.3001 5.59979 98.5001 5.4998 98.4001 5.2998C98.5001 4.9998 98.6001 4.69984 98.7001 4.39984C98.8001 4.09984 99.0001 3.89983 99.1001 3.69983C99.2001 3.39983 99.4001 3.0998 99.5001 2.7998C99.7001 2.6998 99.9001 2.49983 99.9001 2.19983C100 1.69983 100.4 1.2998 100.9 1.2998C101 1.2998 101.1 1.2998 101.3 1.2998C102.9 1.2998 104.6 1.2998 106.2 1.2998C107.4 1.2998 108.5 1.2998 109.7 1.2998C109.9 1.2998 110.1 1.2998 110.3 1.2998C110.5 1.3998 110.7 1.49979 110.9 1.59979C111 1.79979 111.1 1.99983 111.3 2.19983C111.4 2.29983 111.6 2.39982 111.7 2.49982C111.9 2.99982 112.1 3.49979 112.3 4.09979C112.3 4.19979 112.4 4.39982 112.4 4.49982C112.4 4.59982 112.4 4.59983 112.4 4.69983C112.4 4.99983 112.4 5.19984 112.7 5.39984C112.7 5.49984 112.7 5.59983 112.7 5.69983C112.6 5.99983 112.8 6.19984 113 6.39984C113 6.49984 113 6.59983 113 6.69983C112.9 7.19983 112.9 7.2998 113.3 7.2998C113.3 7.3998 113.3 7.49983 113.3 7.69983C113.1 7.89983 113.3 7.89984 113.4 7.89984C113.5 8.29984 113.6 8.69979 113.7 9.09979C113.8 9.49979 114 9.99984 114.2 10.3998C114.3 10.6998 114.3 10.9998 114.5 11.2998C114.8 11.8998 114.9 12.4998 115.1 13.0998C115.4 13.8998 115.7 14.6998 116 15.4998C116 15.5998 116 15.7998 116.1 15.8998C116.3 16.2998 116.5 16.7998 116.6 17.1998C116.7 17.3998 116.7 17.6998 116.8 17.9998C117.1 18.8998 117.4 19.7998 117.6 20.6998C117.7 21.0998 117.9 21.4998 118 21.9998C118 22.0998 118.1 22.1998 118.1 22.2998C118.1 22.3998 118.1 22.4998 118.1 22.5998C118 22.8998 118.2 23.0998 118.4 23.2998C118.5 23.6998 118.6 24.0998 118.7 24.4998C118.8 24.9998 119 25.3998 119.1 25.8998C119.2 26.0998 119.2 26.1998 119.2 26.3998C111.4 26.3998 103.6 26.3998 95.8001 26.3998C94.8001 26.3998 93.8001 26.3998 92.9001 26.3998C92.9001 24.4998 92.9001 22.6998 92.9001 20.7998C93.3001 20.7998 93.8001 20.7998 94.2001 20.7998C97.0001 20.7998 99.7001 20.7998 102.5 20.7998C106.3 20.7998 110 20.7998 113.8 20.7998C113.9 20.7998 113.9 20.7998 114.1 20.7998C114 20.5998 114 20.3998 113.9 20.1998C113.7 19.5998 113.5 18.9998 113.3 18.3998C113.3 18.2998 113.2 18.1998 113.2 18.0998C113.2 17.9998 113.2 17.8998 113.2 17.7998C113.1 17.5998 113.2 17.2998 112.9 17.1998C112.9 17.0998 112.9 16.9998 112.9 16.8998C113 16.3998 113 16.2998 112.6 16.1998C112.6 16.0998 112.6 16.0998 112.6 15.9998C112.7 15.7998 112.7 15.6998 112.5 15.5998C112.3 14.9998 112.2 14.3998 112 13.8998C111.6 13.5998 111.6 13.0998 111.5 12.6998C111.5 12.4998 111.4 12.2998 111.4 12.0998C111.5 11.7998 111.4 11.5998 111.1 11.4998C111.1 11.3998 111.1 11.2998 111.1 11.1998C111.1 10.8998 111.3 10.4998 110.8 10.4998C110.8 10.3998 110.8 10.2998 110.8 10.1998C111 9.99983 110.9 9.89984 110.7 9.89984C110.5 9.39984 110.4 8.89982 110.2 8.49982C110.2 8.39982 110 8.19983 109.9 8.19983C109.6 7.99983 109.2 7.8998 108.9 7.7998C108.9 7.5998 108.9 7.49982 108.6 7.49982C106.4 7.49982 104.2 7.49982 102 7.49982C101.8 7.49982 101.7 7.5998 101.7 7.7998C101.2 7.8998 100.7 8.09982 100.3 8.49982C100.3 8.49982 100.3 8.59983 100.2 8.69983C100.1 8.79983 100 8.89982 99.9001 8.99982C99.6001 9.29982 99.6001 9.69979 99.7001 10.0998C99.8001 10.2998 99.9001 10.5998 100 10.7998C100.1 10.8998 100.2 11.0998 100.4 10.7998C100.6 10.8998 100.7 10.9998 100.9 10.9998C100.9 11.2998 101.1 11.1998 101.2 11.1998C101.2 11.4998 101.3 11.4998 101.5 11.4998C102.8 11.4998 104.2 11.4998 105.5 11.4998C105.5 13.3998 105.5 15.1998 105.5 17.0998C103.1 17.0998 100.6 17.0998 98.2001 17.0998C98.3001 16.2998 98.1001 16.3998 97.9001 16.4998Z" fill="white"/>
<path id="Vector_5" d="M87.0001 26.4998C86.3001 26.2998 85.6001 25.9998 85.1001 25.3998C85.0001 25.2998 85.0001 25.1997 85.0001 25.0997C85.1001 24.8997 85.1001 24.7998 84.9001 24.6998C84.8001 24.6998 84.8001 24.4998 84.7001 24.4998C84.7001 24.2998 84.7001 24.0997 84.4001 24.0997C84.4001 23.9997 84.4001 23.8998 84.4001 23.7998C84.4001 23.4998 84.4001 23.1998 84.4001 22.8998C84.4001 22.7998 84.4001 22.5998 84.4001 22.4998C84.4001 22.3998 84.5001 22.2998 84.5001 22.1998C84.8001 21.4998 85.2001 20.8998 85.8001 20.4998C86.2001 20.1998 86.7001 19.9997 87.2001 20.0997C87.5001 20.0997 87.9001 20.0997 88.2001 20.0997C89.3001 20.3997 90.3001 20.8997 90.7001 22.0997C90.5001 22.4997 90.7001 22.6998 91.0001 22.8998C91.0001 23.1998 91.0001 23.4998 91.0001 23.7998C90.8001 23.7998 90.8001 23.9998 90.8001 24.1998C90.7001 24.5998 90.6001 24.9998 90.4001 25.2998C89.9001 25.7998 89.4001 26.3998 88.6001 26.4998C88.5001 26.4998 88.4001 26.5997 88.4001 26.5997C88.4001 26.3997 88.3001 26.2998 88.1001 26.2998C87.9001 26.2998 87.7001 26.2998 87.5001 26.2998C87.1001 26.1998 87.0001 26.2998 87.0001 26.4998Z" fill="white"/>
<path id="Vector_6" d="M57.3 2.8999C57.3 3.2999 57.3 3.79989 57.3 4.19989C57.3 11.2999 57.3 18.2999 57.3 25.3999C57.3 25.5999 57.3 25.6999 57.3 25.8999C57.2 25.8999 57.1 25.8999 57 25.8999C57 25.6999 57 25.5999 57 25.3999C57 18.0999 57 10.8999 57 3.59985C57 3.39985 57 3.1999 57 2.8999C57.1 2.9999 57.2 2.9999 57.3 2.8999Z" fill="white"/>
<path id="Vector_7" d="M116 5.79987C115.9 5.69987 115.8 5.5999 115.7 5.3999C115.7 5.2999 115.7 5.19985 115.7 5.09985C115.7 4.89985 115.6 4.69988 115.5 4.49988C115.6 4.49988 115.6 4.49988 115.7 4.49988C115.8 4.39988 115.7 3.5999 115.6 3.3999C115.4 3.1999 115.6 2.9999 115.7 2.8999C115.8 2.6999 115.9 2.5999 115.9 2.3999C115.9 2.2999 115.9 2.29989 116 2.19989C116.1 1.89989 116.2 1.69988 116.5 1.49988C116.8 1.39988 116.9 1.0999 117.2 0.899902C117.3 0.799902 117.4 0.79989 117.5 0.69989C117.7 0.59989 117.9 0.599878 118.1 0.499878C118.3 0.599878 118.4 0.599902 118.5 0.399902C118.9 0.399902 119.3 0.399902 119.7 0.399902C119.8 0.499902 119.9 0.499854 120 0.599854C120.3 0.699854 120.6 0.599866 120.9 0.799866C121.5 1.19987 122.1 1.79988 122.4 2.49988C122.2 2.69988 122.3 2.8999 122.6 2.8999V2.99988C122.6 3.19988 122.6 3.29988 122.6 3.49988C122.6 3.79988 122.6 4.19988 122.6 4.49988C122.6 4.59988 122.6 4.7999 122.6 4.8999C122.5 5.4999 122.2 5.9999 121.7 6.3999C121.6 6.2999 121.4 6.19989 121.3 6.19989C121.3 6.09989 121.3 5.9999 121.3 5.8999C121.5 5.4999 121.7 5.09987 122 4.79987C122 4.69987 122.1 4.69985 122.1 4.59985C122.1 4.29985 122.1 3.89985 122.2 3.59985C122.2 3.39985 122.1 3.29989 121.9 3.19989C121.9 2.99989 121.9 2.69985 121.8 2.59985C121.5 2.19985 121.1 1.89985 120.8 1.59985C120.6 1.39985 120.3 1.29985 120 1.09985C119.8 0.899854 119.6 0.899878 119.4 0.999878C119.1 0.999878 118.7 0.999878 118.4 0.999878C118.3 0.999878 118.3 1.09985 118.2 1.09985C117.9 1.19985 117.6 1.2999 117.4 1.3999C117.1 1.5999 117 1.89985 116.7 2.09985C116.5 2.29985 116.4 2.49987 116.4 2.79987C116.3 2.89987 116.3 2.99988 116.2 2.99988C116.2 3.19988 116.1 3.29988 116.1 3.49988C116.1 3.79988 116.1 4.0999 116.1 4.3999C116.1 4.5999 116.2 4.6999 116.2 4.8999C116.3 4.9999 116.3 5.09989 116.4 5.19989C116.3 5.29989 116.2 5.2999 116.2 5.3999C116.1 5.5999 116.1 5.69987 116 5.79987Z" fill="white"/>
<path id="Vector_8" d="M93.1 25.8999C94.1 25.8999 95.1001 25.8999 96.0001 25.8999C103.8 25.8999 111.6 25.8999 119.4 25.8999C119.4 26.0999 119.4 26.1999 119.1 26.1999H119C110.4 26.1999 101.8 26.1999 93.2001 26.1999C93.0001 26.1999 92.7001 26.2999 92.7001 25.8999C92.9001 25.8999 93 25.8999 93.1 25.8999Z" fill="white"/>
<path id="Vector_9" d="M0.300049 3.2998C0.400049 3.4998 0.400061 3.5998 0.500061 3.7998C0.500061 10.9998 0.500061 18.1998 0.500061 25.3998C0.500061 25.5998 0.400049 25.8998 0.800049 25.8998C0.800049 25.8998 0.900085 26.0998 0.900085 26.1998C0.700085 26.1998 0.500073 26.1998 0.200073 26.1998C0.200073 26.0998 0.200073 25.8998 0.200073 25.7998C0.200073 18.4998 0.200073 11.2998 0.200073 3.99982C0.200073 3.79982 0.300049 3.4998 0.300049 3.2998Z" fill="white"/>
<path id="Vector_10" d="M60.4001 25.9C60.4001 25.7 60.4001 25.6 60.4001 25.4C60.4001 19.6 60.4001 13.8 60.4001 8C60.4001 7.8 60.4001 7.7 60.4001 7.5C60.5001 7.5 60.6001 7.5 60.7001 7.5C60.7001 7.6 60.7001 7.69999 60.7001 7.79999C60.7001 13.7 60.7001 19.7 60.7001 25.6C60.7001 25.7 60.7001 25.7 60.7001 25.8C60.6001 25.9 60.5001 25.9 60.4001 25.9Z" fill="white"/>
<path id="Vector_11" d="M30.1001 26.1C30.2001 26.1 30.3001 26 30.4001 26C37.5001 26 44.6001 26 51.7001 26C51.9001 26 52.1001 26 52.3001 26C52.4001 26 52.5001 26.1 52.6001 26.1L52.5001 26.2C52.0001 26.2 51.4001 26.2 50.9001 26.2C44.2001 26.2 37.4001 26.2 30.7001 26.2C30.5001 26.2 30.3001 26.2 30.1001 26.2C30.2001 26.2 30.2001 26.1 30.1001 26.1Z" fill="white"/>
<path id="Vector_12" d="M4.90015 7.00018C4.90015 6.80018 4.90013 6.7002 5.20013 6.7002C5.30013 6.7002 5.5001 6.7002 5.6001 6.7002C12.3001 6.7002 19.0001 6.7002 25.7001 6.7002C25.7001 6.8002 25.7001 6.90018 25.7001 7.00018C25.6001 7.00018 25.5001 7.00018 25.3001 7.00018C18.6001 7.00018 11.8001 7.00018 5.1001 7.00018C5.0001 7.00018 4.90015 7.00018 4.90015 7.00018Z" fill="white"/>
<path id="Vector_13" d="M25.6 10.6999C19.5 10.6999 13.5 10.6999 7.40002 10.6999C7.30002 10.6999 7.1 10.6999 7 10.6999C7 10.5999 7 10.4999 7 10.3999C7.2 10.3999 7.3 10.3999 7.5 10.3999C13.4 10.3999 19.4 10.3999 25.3 10.3999C25.4 10.3999 25.5 10.3999 25.7 10.3999C25.7 10.4999 25.7 10.5999 25.6 10.6999Z" fill="white"/>
<path id="Vector_14" d="M78.2001 10.3999C78.2001 10.6999 78 10.6999 77.8 10.6999C75.4 10.6999 72.9001 10.6999 70.5001 10.6999C67.8001 10.6999 65.1001 10.6999 62.4001 10.6999C62.4001 10.6999 62.4 10.6999 62.3 10.5999V10.4999C62.4 10.4999 62.4001 10.3999 62.5001 10.3999C62.6001 10.3999 62.8001 10.3999 62.9001 10.3999C67.9001 10.3999 72.9001 10.3999 77.9001 10.3999C78.0001 10.3999 78.1001 10.3999 78.2001 10.3999Z" fill="white"/>
<path id="Vector_15" d="M54.2001 23.5002C54.2001 20.6002 54.2001 17.8002 54.2001 14.9002C54.2001 13.8002 54.2001 12.7002 54.2001 11.7002C54.3001 11.7002 54.4001 11.7002 54.5001 11.7002C54.5001 12.6002 54.5001 13.5002 54.5001 14.3002C54.5001 17.2002 54.5001 20.2002 54.5001 23.1002C54.5001 23.2002 54.5001 23.4002 54.5001 23.5002C54.4001 23.5002 54.3001 23.5002 54.2001 23.5002Z" fill="white"/>
<path id="Vector_16" d="M114 19.7002C114.1 19.9002 114.1 20.1002 114.2 20.3002C114 20.3002 114 20.3002 113.9 20.3002C110.1 20.3002 106.4 20.3002 102.6 20.3002C102.6 20.2002 102.6 20.1002 102.6 20.0002C106.2 20.0002 109.7 20.0002 113.3 20.0002C113.4 20.0002 113.6 20.0002 113.7 20.0002C113.9 19.9002 113.9 19.8002 114 19.7002Z" fill="white"/>
<path id="Vector_17" d="M116 5.7998C116 5.6998 116 5.59982 116.1 5.49982C116.1 5.39982 116.2 5.3998 116.3 5.2998C116.3 5.3998 116.4 5.49982 116.4 5.49982C116.4 5.59982 116.4 5.6998 116.4 5.7998C116.5 5.7998 116.6 5.7998 116.7 5.7998C116.7 5.8998 116.7 5.89982 116.8 5.99982C116.8 6.09982 116.7 6.1998 116.7 6.2998C116.8 6.2998 117 6.2998 117.1 6.2998H117.2C117.2 6.3998 117.2 6.49983 117.2 6.69983C117.3 6.59983 117.3 6.59982 117.3 6.49982C117.7 6.69982 118.1 6.79982 118.5 6.99982C118.5 7.19982 118.5 7.2998 118.8 7.2998C119 7.2998 119.2 7.2998 119.5 7.2998C119.7 7.2998 119.8 7.19982 119.8 6.99982C119.9 6.89982 119.9 6.7998 120 6.7998C120.5 6.8998 120.8 6.6998 121.1 6.2998C121.2 6.2998 121.3 6.2998 121.4 6.2998C121.5 6.3998 121.7 6.49982 121.8 6.49982C121.8 6.49982 121.8 6.49979 121.7 6.59979C121.4 6.59979 121.4 6.59983 121.5 6.69983C121.4 6.99983 121.2 6.99982 120.9 6.99982C120.9 6.99982 120.8 6.89984 120.7 6.89984C120.7 6.99984 120.7 7.09983 120.7 7.19983C120.5 7.59983 120.1 7.49979 119.8 7.59979C119.4 7.59979 119 7.59979 118.5 7.59979C118.2 7.49979 117.8 7.39983 117.5 7.19983C117.2 6.99983 116.9 6.79979 116.6 6.59979C116.5 6.49979 116.4 6.3998 116.4 6.2998C116.3 6.1998 116.3 6.09982 116.2 5.99982H116.1C116 5.99982 116 5.8998 116 5.7998ZM116.9 6.59979C117 6.69979 117 6.69979 116.9 6.59979C116.9 6.69979 117 6.69979 116.9 6.59979Z" fill="white"/>
<path id="Vector_18" d="M102.7 20C102.7 20.1 102.7 20.2 102.7 20.3C99.9001 20.3 97.2001 20.3 94.4001 20.3C94.0001 20.3 93.5 20.3 93.1 20.3C93 20.3 92.9 20.3 92.8 20.3C92.7 20 92.9 20 93.1 20C96.3 20 99.5001 20 102.7 20Z" fill="white"/>
<path id="Vector_19" d="M109.6 1.09979C108.4 1.09979 107.3 1.09979 106.1 1.09979C104.5 1.09979 102.8 1.09979 101.2 1.09979C101.2 0.999792 101.2 0.899805 101.2 0.799805C102.9 0.799805 104.5 0.799805 106.2 0.799805C107.3 0.799805 108.4 0.799805 109.5 0.799805C109.5 0.899805 109.6 0.999792 109.6 1.09979Z" fill="white"/>
<path id="Vector_20" d="M82.2001 20.3C79.4001 20.3 76.6 20.3 73.8 20.3C73.6 20.3 73.5 20.2 73.3 20.1C73.4 20.1 73.5 20 73.6 20C76.4 20 79.1001 20 81.9001 20C82.0001 20 82.1001 20.1 82.2001 20.1C82.2001 20.2 82.2001 20.3 82.2001 20.3Z" fill="white"/>
<path id="Vector_21" d="M54.5001 11.6C54.4001 11.6 54.3001 11.6 54.2001 11.6C54.2001 8.89998 54.2001 6.20002 54.2001 3.40002C54.2001 3.30002 54.3 3.2 54.3 3C54.4 3.1 54.4001 3.10001 54.5001 3.20001C54.5001 6.00001 54.5001 8.79998 54.5001 11.6Z" fill="white"/>
<path id="Vector_22" d="M97.9001 16.4999C98.1001 16.3999 98.3001 16.3999 98.4001 16.3999C100.8 16.3999 103.3 16.3999 105.7 16.3999C105.7 16.4999 105.7 16.5999 105.7 16.6999C103.2 16.6999 100.6 16.6999 98.1001 16.6999C98.1001 16.5999 98.0001 16.4999 97.9001 16.4999Z" fill="white"/>
<path id="Vector_23" d="M101.8 7.00018C101.8 6.80018 101.8 6.7002 102.1 6.7002C104.3 6.7002 106.5 6.7002 108.7 6.7002C108.9 6.7002 109 6.80018 109 7.00018C106.5 7.00018 104.2 7.00018 101.8 7.00018Z" fill="white"/>
<path id="Vector_24" d="M25.7001 16.5998C25.7001 14.7998 25.7001 12.9998 25.7001 11.1998C25.7001 11.0998 25.7001 10.8998 25.7001 10.7998C25.8001 10.7998 25.9001 10.7998 26.0001 10.7998C26.0001 12.6998 26.0001 14.5998 26.0001 16.4998C26.0001 16.5998 25.9001 16.6998 25.9001 16.8998C25.9001 16.8998 25.9 16.8998 25.8 16.8998C25.7 16.6998 25.7001 16.5998 25.7001 16.5998Z" fill="white"/>
<path id="Vector_25" d="M82.2001 20.3001C82.2001 20.2001 82.3 20.2001 82.3 20.1001C82.4 20.2001 82.5001 20.4001 82.5001 20.5001C82.5001 22.3001 82.5001 24.1001 82.5001 25.9001C82.4001 26.0001 82.4 26.0001 82.3 26.1001C82.3 26.0001 82.2001 26.0001 82.2001 25.9001C82.2001 24.1001 82.2001 22.2001 82.2001 20.3001Z" fill="white"/>
<path id="Vector_26" d="M92.8 20.2998C92.9 20.2998 93 20.2998 93.1 20.2998C93.1 22.1998 93.1 23.9998 93.1 25.8998C93 25.8998 92.9 25.8998 92.8 25.8998C92.8 24.0998 92.8 22.1998 92.8 20.2998Z" fill="white"/>
<path id="Vector_27" d="M82.2001 25.8999C82.2001 25.9999 82.3 25.9999 82.3 26.0999L82.2001 26.1999C80.4001 26.1999 78.6 26.1999 76.8 26.1999L76.7001 26.0999C76.8001 26.0999 77 25.9999 77.1 25.9999C78.8 25.8999 80.5001 25.8999 82.2001 25.8999Z" fill="white"/>
<path id="Vector_28" d="M105.8 10.3999C105.8 10.4999 105.8 10.5999 105.8 10.6999C104.5 10.6999 103.1 10.6999 101.8 10.6999C101.6 10.6999 101.4 10.6999 101.5 10.3999C102.9 10.3999 104.3 10.3999 105.8 10.3999Z" fill="white"/>
<path id="Vector_29" d="M62.3 12.8999C62.3 14.0999 62.3 15.3999 62.3 16.5999C62.2 16.6999 62.2 16.6999 62.1 16.7999C62.1 16.6999 62 16.5999 62 16.4999C62 15.2999 62 14.0999 62 12.8999C62.1 12.8999 62.2 12.8999 62.3 12.8999Z" fill="white"/>
<path id="Vector_30" d="M25.7001 6.59998C25.7001 5.49998 25.7001 4.40001 25.7001 3.20001C25.7001 3.10001 25.8 3.1 25.8 3C25.9 3.1 26.0001 3.30002 26.0001 3.40002C26.0001 4.40002 26.0001 5.5 26.0001 6.5C25.8001 6.6 25.8001 6.59998 25.7001 6.59998Z" fill="white"/>
<path id="Vector_31" d="M57.4001 25.8999C58.4001 25.8999 59.4001 25.8999 60.4001 25.8999C60.4001 25.9999 60.4001 26.0999 60.4001 26.1999C59.4001 26.1999 58.4 26.1999 57.3 26.1999C57.3 26.0999 57.3001 25.9999 57.4001 25.8999C57.3001 25.8999 57.3001 25.8999 57.4001 25.8999Z" fill="white"/>
<path id="Vector_32" d="M62.3 12.9001C62.2 12.9001 62.1 12.9001 62 12.9001C62 12.2001 62 11.5001 62 10.9001C62 10.7001 62.1 10.6001 62.3 10.6001V10.7001V10.8001C62.3 11.4001 62.3 12.2001 62.3 12.9001Z" fill="white"/>
<path id="Vector_33" d="M100.6 9.99988C100.5 10.2999 100.3 10.0999 100.2 9.99988C100.1 9.79988 100 9.59987 99.9 9.29987C99.8 8.89987 99.7 8.49989 100.1 8.19989C100.2 8.09989 100.3 7.9999 100.4 7.8999C100.3 8.1999 100.3 8.4999 100.2 8.8999C100.2 9.2999 100.3 9.69988 100.6 9.99988Z" fill="white"/>
<path id="Vector_34" d="M7 10.3999C7 10.4999 7 10.5999 7 10.6999C6.4 10.6999 5.89999 10.6999 5.29999 10.6999C5.19999 10.6999 5.1 10.5999 5 10.5999C5 10.4999 4.99998 10.4999 5.09998 10.3999C5.69998 10.3999 6.4 10.3999 7 10.3999Z" fill="white"/>
<path id="Vector_35" d="M28.4001 22.5C28.6001 22.5 28.7001 22.6 28.7001 22.8C28.7001 23.3 28.8001 23.7 28.8001 24.2C28.8001 24.3 28.7001 24.4 28.6001 24.4C28.5001 23.8 28.5001 23.1 28.4001 22.5Z" fill="white"/>
<path id="Vector_36" d="M95.1001 12.3999C95.2001 12.4999 95.2001 12.4999 95.2001 12.5999C95.2001 12.9999 95.2001 13.2999 95.2001 13.6999C95.2001 13.7999 95.1001 13.8999 95.1001 13.8999C95.1001 13.7999 95.0001 13.7999 95.0001 13.6999C95.0001 13.2999 94.8001 12.7999 95.1001 12.3999Z" fill="white"/>
<path id="Vector_37" d="M87 26.5002C87 26.3002 87.1 26.2002 87.3 26.2002C87.5 26.2002 87.7 26.2002 87.9 26.2002C88.1 26.2002 88.2 26.3002 88.2 26.5002C87.8 26.5002 87.4 26.5002 87 26.5002Z" fill="white"/>
<path id="Vector_38" d="M115.6 3.3999C115.7 3.5999 115.8 4.29988 115.7 4.49988C115.7 4.49988 115.6 4.49988 115.5 4.49988H115.4C115.4 4.19988 115.4 3.89988 115.4 3.49988C115.5 3.49988 115.5 3.4999 115.6 3.3999Z" fill="white"/>
<path id="Vector_39" d="M54.2001 23.5C54.3001 23.5 54.4001 23.5 54.5001 23.5C54.5001 23.8 54.5001 24.1 54.5001 24.4C54.4001 24.4 54.4 24.5 54.3 24.5C54.3 24.1 54.3001 23.8 54.2001 23.5Z" fill="white"/>
<path id="Vector_40" d="M111.6 2.30003C111.4 2.20003 111.3 2.10004 111.2 2.00004C111 1.80004 110.9 1.60006 110.8 1.40006C111.2 1.30006 111.3 1.70006 111.5 1.90006C111.5 2.00006 111.5 2.20003 111.6 2.30003Z" fill="white"/>
<path id="Vector_41" d="M3.50001 9.09985C3.10001 8.89985 3.29999 8.59987 3.29999 8.29987C3.29999 8.19987 3.20001 7.8999 3.50001 7.8999C3.50001 8.2999 3.50001 8.69985 3.50001 9.09985Z" fill="white"/>
<path id="Vector_42" d="M122.6 4.59985C122.6 4.29985 122.6 3.89985 122.6 3.59985C122.6 3.49985 122.7 3.4999 122.7 3.3999C122.7 3.4999 122.8 3.59989 122.8 3.69989C122.8 3.99989 122.8 4.39989 122.8 4.69989C122.7 4.69989 122.7 4.59985 122.6 4.59985Z" fill="white"/>
<path id="Vector_43" d="M72 19.4002C71.7 19.3002 71.5 19.2002 71.3 19.0002C71.2 18.9002 71.1 18.8002 71 18.7002C71.2 18.8002 71.4 18.8002 71.5 18.9002C71.7 19.0002 71.8 19.2002 72 19.4002Z" fill="white"/>
<path id="Vector_44" d="M2.90002 0.800171C2.90002 0.800171 2.89999 0.900208 2.79999 0.900208C2.49999 1.00021 2.2 1.00016 2 1.10016C2 1.00016 2 0.900195 2 0.700195C2.3 0.700195 2.60002 0.800171 2.90002 0.800171Z" fill="white"/>
<path id="Vector_45" d="M25.7 3.09998C25.7 3.19998 25.6 3.19999 25.6 3.29999C25.6 2.79999 25.1 2.5 25.2 2C25.6 2.3 25.7 2.69998 25.7 3.09998Z" fill="white"/>
<path id="Vector_46" d="M22.8 0.69989C22.8 0.59989 22.8 0.499902 22.8 0.399902C23 0.399902 23.2001 0.399902 23.4001 0.399902C23.4001 0.499902 23.4001 0.59989 23.4001 0.69989C23.3001 0.69989 23 0.69989 22.8 0.69989Z" fill="white"/>
<path id="Vector_47" d="M95.9001 15.3999C96.1001 15.5999 96.5 15.5999 96.5 15.9999C96.2 15.9999 95.8001 15.6999 95.9001 15.3999Z" fill="white"/>
<path id="Vector_48" d="M84.7 24.3999C84.8 24.4999 84.8 24.5999 84.9 24.5999C85.1 24.6999 85.1 24.8999 85 24.9999C84.9 24.9999 84.8 24.9999 84.8 24.9999C84.7 24.7999 84.6 24.5999 84.5 24.3999C84.5 24.3999 84.6 24.3999 84.7 24.3999Z" fill="white"/>
<path id="Vector_49" d="M65.4001 18.8002C65.5001 18.8002 65.7001 18.7002 65.7001 19.0002C65.7001 19.1002 65.9001 19.2002 66.0001 19.3002C65.9001 19.3002 65.8001 19.3002 65.7001 19.3002C65.6001 19.2002 65.5 19.2002 65.3 19.0002C65.4 19.0002 65.4001 18.9002 65.4001 18.8002Z" fill="white"/>
<path id="Vector_50" d="M90.9 22.9001C90.6 22.7001 90.5 22.4001 90.6 22.1001C91.1 22.2001 90.9 22.6001 90.9 22.9001Z" fill="white"/>
<path id="Vector_51" d="M112.6 15.6001C113 15.7001 113 15.8001 112.9 16.3001C112.6 16.2001 112.6 15.9001 112.6 15.6001Z" fill="white"/>
<path id="Vector_52" d="M118.5 22.9002C118.2 22.7002 118.1 22.5002 118.2 22.2002C118.6 22.2002 118.6 22.2002 118.5 22.9002Z" fill="white"/>
<path id="Vector_53" d="M113 6.09985C112.7 5.89985 112.6 5.6999 112.7 5.3999C113 5.4999 113 5.49985 113 6.09985Z" fill="white"/>
<path id="Vector_54" d="M109.6 1.10016C109.6 1.00016 109.6 0.900177 109.6 0.800177C109.9 0.800177 110.2 0.700165 110.2 1.10016C110 1.10016 109.8 1.10016 109.6 1.10016Z" fill="white"/>
<path id="Vector_55" d="M110.8 9.7002C111.4 9.7002 111.1 10.1002 111.1 10.4002C110.8 10.3002 110.7 10.0002 110.8 9.7002Z" fill="white"/>
<path id="Vector_56" d="M112.6 5.09985C112.3 4.89985 112.3 4.6999 112.3 4.3999C112.6 4.4999 112.7 4.79985 112.6 5.09985Z" fill="white"/>
<path id="Vector_57" d="M111.1 10.7998C111.4 10.8998 111.5 11.0998 111.4 11.3998C111 11.2998 111 11.1998 111.1 10.7998Z" fill="white"/>
<path id="Vector_58" d="M113.2 6.99988C112.8 6.99988 112.8 6.8999 112.9 6.3999C113.2 6.4999 113.3 6.69988 113.2 6.99988Z" fill="white"/>
<path id="Vector_59" d="M98.0001 5.7002C98.1001 6.0002 98.1001 6.30017 97.7001 6.30017C97.7001 6.10017 97.7001 5.8002 98.0001 5.7002Z" fill="white"/>
<path id="Vector_60" d="M99.9001 2C99.9001 2.3 99.7001 2.39998 99.5001 2.59998C99.5001 2.39998 99.4001 2 99.9001 2Z" fill="white"/>
<path id="Vector_61" d="M96.2 10C96.3 10.3 96.2 10.4 95.9 10.4C95.8 10.2 95.8 10 96.2 10Z" fill="white"/>
<path id="Vector_62" d="M96.5001 9.3999C96.6001 9.6999 96.5001 9.79987 96.2001 9.79987C96.1001 9.59987 96.2001 9.3999 96.5001 9.3999Z" fill="white"/>
<path id="Vector_63" d="M101.2 0.799805C101.2 0.899805 101.2 0.999792 101.2 1.09979C101.1 1.09979 101 1.09979 100.8 1.09979C100.8 0.999792 100.8 0.899805 100.8 0.799805C101 0.799805 101.1 0.799805 101.2 0.799805Z" fill="white"/>
<path id="Vector_64" d="M62.1001 16.8001C62.2001 16.7001 62.2001 16.7001 62.3001 16.6001C62.6001 16.6001 62.6001 16.8001 62.6001 17.0001C62.4001 16.9001 62.3001 16.8001 62.1001 16.8001Z" fill="white"/>
<path id="Vector_65" d="M79.4001 9.1001C79.5001 9.1001 79.6001 9.1001 79.7001 9.1001C79.7001 9.3001 79.7001 9.5001 79.4001 9.6001C79.4001 9.5001 79.4001 9.3001 79.4001 9.1001Z" fill="white"/>
<path id="Vector_66" d="M84.7001 24.4C84.6001 24.4 84.5001 24.4 84.5001 24.4C84.5001 24.3 84.5001 24.1 84.4001 24C84.7001 24 84.6001 24.2 84.7001 24.4Z" fill="white"/>
<path id="Vector_67" d="M25.7 6.6001C25.8 6.6001 25.9 6.6001 26 6.6001C26 6.8001 26.1 7.00012 25.7 7.00012C25.6 6.90012 25.6 6.8001 25.7 6.6001Z" fill="white"/>
<path id="Vector_68" d="M98.3 5.1001C98.4 5.4001 98.2 5.40015 98 5.40015C97.9 5.10015 98.1 5.1001 98.3 5.1001Z" fill="white"/>
<path id="Vector_69" d="M60.4001 26.1998C60.4001 26.0998 60.4001 25.9998 60.4001 25.8998C60.5001 25.8998 60.6001 25.8998 60.7001 25.7998C60.8001 26.1998 60.7001 26.2998 60.4001 26.1998Z" fill="white"/>
<path id="Vector_70" d="M60.7001 7.59979C60.6001 7.59979 60.5001 7.59979 60.4001 7.59979C60.3001 7.29979 60.5001 7.2998 60.7001 7.2998C60.7001 7.3998 60.7001 7.49979 60.7001 7.59979Z" fill="white"/>
<path id="Vector_71" d="M122.6 2.90002C122.3 2.90002 122.3 2.8 122.4 2.5C122.4 2.6 122.5 2.80002 122.6 2.90002Z" fill="white"/>
<path id="Vector_72" d="M122.6 4.6001C122.7 4.6001 122.7 4.70013 122.8 4.70013C122.7 4.80013 122.7 4.9001 122.6 5.1001C122.6 4.9001 122.6 4.8001 122.6 4.6001Z" fill="white"/>
<path id="Vector_73" d="M25.9001 10.6999C25.8001 10.6999 25.7001 10.6999 25.6001 10.6999C25.6001 10.5999 25.6001 10.4999 25.6001 10.3999C25.9001 10.3999 26.0001 10.4999 25.9001 10.6999Z" fill="white"/>
<path id="Vector_74" d="M112.3 4.19983C112.3 4.09983 112.2 3.8998 112.2 3.7998C112.5 3.8998 112.4 4.09983 112.3 4.19983Z" fill="white"/>
<path id="Vector_75" d="M122.7 3.40015C122.7 3.50015 122.6 3.5001 122.6 3.6001C122.6 3.4001 122.6 3.3001 122.6 3.1001C122.6 3.2001 122.7 3.30015 122.7 3.40015Z" fill="white"/>
<path id="Vector_76" d="M112.5 15C112.8 15 112.8 15.2 112.6 15.4C112.6 15.3 112.5 15.2 112.5 15Z" fill="white"/>
<path id="Vector_77" d="M118.5 0.499915C118.4 0.699915 118.3 0.69989 118.1 0.59989C118.2 0.29989 118.3 0.399915 118.5 0.499915Z" fill="white"/>
<path id="Vector_78" d="M90.7001 24.1002C90.7001 23.9002 90.7001 23.7002 90.9001 23.7002C90.9001 23.9002 91.0001 24.1002 90.7001 24.1002Z" fill="white"/>
<path id="Vector_79" d="M118.2 21.9001C118.2 21.8001 118.1 21.7001 118.1 21.6001C118.3 21.6001 118.3 21.7001 118.2 21.9001Z" fill="white"/>
<path id="Vector_80" d="M120.1 0.599854C120 0.499854 119.9 0.499902 119.8 0.399902C119.9 0.399902 120.1 0.399854 120.1 0.599854Z" fill="white"/>
<path id="Vector_81" d="M95.6 15.2002C95.7 15.3002 95.8 15.3002 95.8 15.4002C95.7 15.4002 95.5 15.5002 95.6 15.2002Z" fill="white"/>
<path id="Vector_82" d="M110.6 9.1001C110.8 9.1001 110.9 9.20015 110.7 9.40015C110.7 9.30015 110.6 9.2001 110.6 9.1001Z" fill="white"/>
<path id="Vector_83" d="M3.40008 17.9999C3.40008 18.0999 3.30005 18.0999 3.30005 18.1999C3.20005 18.0999 3.20008 17.8999 3.40008 17.8999V17.9999Z" fill="white"/>
<path id="Vector_84" d="M113.4 7.59985C113.2 7.59985 113.1 7.5999 113.3 7.3999C113.3 7.3999 113.4 7.49985 113.4 7.59985Z" fill="white"/>
<path id="Vector_85" d="M121.4 6.79995C121.4 6.59995 121.4 6.59997 121.6 6.69997C121.6 6.69997 121.5 6.69995 121.4 6.79995Z" fill="white"/>
<path id="Vector_86" d="M96.7001 16L96.8 16.1L96.7001 16.2C96.8001 16.2 96.8001 16.1 96.7001 16Z" fill="white"/>
<path id="Vector_87" d="M120.7 7.29999C120.7 7.19999 120.7 7.1 120.7 7C120.8 7 120.8 7.09998 120.9 7.09998C120.8 7.09998 120.7 7.19999 120.7 7.29999Z" fill="white"/>
<path id="Vector_88" d="M65.1001 18.6001C65.1001 18.7001 65.2001 18.7001 65.2001 18.8001C65.2001 18.7001 65.2001 18.7001 65.1001 18.6001Z" fill="white"/>
<path id="Vector_89" d="M79.7 8.59979C79.5 8.49979 79.4 8.4998 79.6 8.2998C79.6 8.3998 79.7 8.49979 79.7 8.59979Z" fill="white"/>
<path id="Vector_90" d="M49.9 7.00007C48 7.00007 46.1 7.00007 44.1 7.00007C40.4 7.00007 36.7 7.00007 33 7.00007C33 6.60007 33.2 6.70008 33.4 6.70008C36.8 6.70008 40.1 6.70008 43.5 6.70008C45.5 6.70008 47.5 6.70008 49.5 6.70008C49.7 6.70008 49.9 6.70007 49.9 7.00007Z" fill="white"/>
<path id="Vector_91" d="M32.2001 8.19972C32.2001 11.6997 32.2001 15.2997 32.2001 18.7997C32.2001 18.8997 32.2001 18.9997 32.2001 19.0997C32.1001 19.0997 32.1001 19.0997 32.0001 19.1997C32.0001 19.0997 31.9001 18.9997 31.9001 18.8997C31.9001 15.4997 31.9001 11.9997 31.9001 8.59968C31.9001 8.49968 32.0001 8.29972 32.0001 8.19972C32.1001 8.09972 32.1001 8.19972 32.2001 8.19972Z" fill="white"/>
<path id="Vector_92" d="M50.8 18.8C50.8 18.7 50.8 18.5 50.8 18.4C50.8 14.9 50.8 11.5 50.8 8C50.8 8 50.8001 8 50.9001 8C51.2001 8 51.1 8.19999 51.1 8.29999C51.1 9.09999 51.1 9.90001 51.1 10.7C51.1 13.3 51.1 15.8 51.1 18.4C51.1 18.6 51.2 18.8 50.8 18.8Z" fill="white"/>
<path id="Vector_93" d="M50.6001 19.4001C50.7001 19.3001 50.8001 19.2001 50.8001 19.1001C51.0001 19.4001 50.7001 19.4001 50.6001 19.4001Z" fill="white"/>
<path id="Vector_94" d="M50.9001 8.00012C50.8001 8.00012 50.8001 8.00012 50.9001 8.00012C50.8001 7.90012 50.7001 7.7001 50.6001 7.6001C50.9001 7.6001 50.9001 7.80012 50.9001 8.00012Z" fill="white"/>
<path id="Vector_95" d="M122 4.89984C122 4.39984 122 3.7998 122 3.2998C122.2 3.3998 122.3 3.49983 122.3 3.69983C122.3 3.99983 122.3 4.39983 122.2 4.69983C122.1 4.79983 122.1 4.79984 122 4.89984Z" fill="white"/>
<path id="Vector_96" d="M116.3 3.6001C116.3 3.9001 116.3 4.2001 116.3 4.6001C116.2 4.6001 116.1 4.6001 116 4.6001C116 4.3001 116 4.00013 116 3.70013C116.2 3.60013 116.2 3.6001 116.3 3.6001Z" fill="white"/>
<path id="Vector_97" d="M121 5.7002C121 5.9002 121.1 6.00018 121.3 6.00018C121.3 6.10018 121.3 6.20017 121.3 6.30017C121.2 6.30017 121.1 6.30017 121 6.30017C120.9 6.20017 120.8 6.10018 120.7 6.00018C120.7 5.90018 120.7 5.8002 120.7 5.7002C120.8 5.7002 120.9 5.7002 121 5.7002Z" fill="white"/>
<path id="Vector_98" d="M116.3 3.6001C116.2 3.6001 116.1 3.6001 116 3.6001C116 3.4001 116.1 3.3001 116.1 3.1001C116.2 3.1001 116.2 3.10013 116.3 3.20013C116.3 3.30013 116.3 3.4001 116.3 3.6001Z" fill="white"/>
<path id="Vector_99" d="M116.4 4.90002C116.3 4.90002 116.3 5 116.2 5C116.2 4.8 116.1 4.7 116.1 4.5C116.2 4.5 116.3 4.5 116.4 4.5C116.3 4.7 116.3 4.80002 116.4 4.90002Z" fill="white"/>
<path id="Vector_100" d="M120.1 1.20002C119.9 1.20002 119.7 1.19998 119.5 1.09998C119.7 0.999982 119.9 0.900018 120.1 1.20002Z" fill="white"/>
<path id="Vector_101" d="M118.4 1.1001C118.3 1.1001 118.3 1.20013 118.2 1.20013C118.3 1.20013 118.4 1.1001 118.4 1.1001Z" fill="white"/>
<path id="Vector_102" d="M118.6 7C119 7 119.4 7 119.8 7C119.8 7.2 119.8 7.29999 119.5 7.29999C119.3 7.29999 119.1 7.29999 118.8 7.29999C118.6 7.29999 118.6 7.2 118.6 7Z" fill="white"/>
<path id="Vector_103" d="M116.8 6C117 6 117.1 6.09999 117.1 6.29999C117 6.29999 116.8 6.29999 116.7 6.29999C116.7 6.19999 116.7 6.1 116.8 6Z" fill="white"/>
<path id="Vector_104" d="M116.4 5.5C116.5 5.5 116.5 5.5 116.6 5.5C116.6 5.6 116.7 5.69999 116.7 5.79999C116.6 5.79999 116.5 5.79999 116.4 5.79999C116.4 5.69999 116.4 5.6 116.4 5.5Z" fill="white"/>
<path id="Vector_105" d="M117.2 6.2998C117.3 6.3998 117.3 6.39982 117.4 6.49982C117.4 6.49982 117.3 6.59983 117.3 6.69983C117.2 6.49983 117.2 6.3998 117.2 6.2998Z" fill="white"/>
<path id="Vector_106" d="M116.9 6.6001C116.9 6.7001 117 6.7001 116.9 6.6001C117 6.7001 117 6.7001 116.9 6.6001Z" fill="white"/>
<path id="Vector_107" d="M120.7 3.59998C120.5 3.99998 120.5 4.39999 120.7 4.79999V4.90002C120.7 5.20002 120.7 5.49999 120.7 5.79999C120.5 5.79999 120.3 5.79999 120.1 5.79999C120.1 5.59999 120.1 5.29998 120.1 5.09998C120.1 4.99998 120 4.89999 119.9 4.79999C119.8 4.69999 119.6 4.59998 119.5 4.59998C119.4 4.49998 119.4 4.29999 119.3 4.29999C119.1 4.29999 118.9 4.29999 118.6 4.29999C118.5 4.29999 118.5 4.4 118.4 4.5C118.2 4.5 118.1 4.60002 118.1 4.90002C118.1 5.30002 118.1 5.6 118.1 6C118 6 117.9 6 117.8 6C117.8 4.8 117.8 3.7 117.8 2.5C118.4 2.5 119 2.5 119.7 2.5C119.9 2.5 120.1 2.49998 120.3 2.59998C120.5 2.79998 120.6 2.99998 120.8 3.09998C120.5 2.99998 120.7 3.29998 120.7 3.59998ZM118.5 3.79999C118.9 3.79999 119.2 3.79999 119.6 3.79999C119.7 3.79999 119.7 3.70001 119.8 3.70001C120.2 3.60001 120 3.3 120.1 3C120 3 119.9 2.90002 119.8 2.90002C119.7 2.80002 119.7 2.70001 119.6 2.70001C119.3 2.70001 118.9 2.70001 118.6 2.70001C118.5 2.80001 118.3 2.80002 118.3 2.90002C118.2 3.10002 118.3 3.39998 118.3 3.59998C118.2 3.79998 118.3 3.89999 118.5 3.79999Z" fill="white"/>
<path id="Vector_108" d="M117.9 2.3999C117.9 3.5999 117.9 4.6999 117.9 5.8999L117.8 5.99988C117.7 5.89988 117.6 5.69985 117.6 5.59985C117.6 4.49985 117.6 3.4999 117.6 2.3999C117.7 2.3999 117.8 2.3999 117.9 2.3999Z" fill="white"/>
<path id="Vector_109" d="M119.8 2.29999C119.2 2.29999 118.6 2.29999 117.9 2.29999C117.9 2.19999 117.9 2.1 117.9 2C118.5 2 119.1 2 119.8 2C119.8 2.1 119.8 2.19999 119.8 2.29999Z" fill="white"/>
<path id="Vector_110" d="M118.2 5.8999C118.2 5.4999 118.2 5.19987 118.2 4.79987C118.2 4.59987 118.3 4.4999 118.5 4.3999V4.49988C118.5 4.79988 118.5 5.19988 118.5 5.49988C118.5 5.79988 118.4 5.8999 118.2 5.8999Z" fill="white"/>
<path id="Vector_111" d="M119.9 4.7002C120 4.8002 120.1 4.90018 120.1 5.00018C120.1 5.20018 120.1 5.5002 120.1 5.7002C120 5.8002 120 5.80021 119.9 5.90021C119.7 5.50021 119.7 5.1002 119.9 4.7002Z" fill="white"/>
<path id="Vector_112" d="M118.5 4.50018C118.6 4.30018 118.6 4.2002 118.7 4.2002C118.9 4.2002 119.1 4.2002 119.4 4.2002C119.5 4.2002 119.5 4.40018 119.6 4.50018C119.1 4.50018 118.8 4.50018 118.5 4.50018Z" fill="white"/>
<path id="Vector_113" d="M119.9 5.90021C120 5.80021 120 5.8002 120.1 5.7002C120.3 5.7002 120.5 5.7002 120.7 5.7002C120.7 5.8002 120.7 5.90018 120.7 6.00018C120.5 6.00018 120.3 6.00018 120.1 6.00018C120.1 6.00018 120 5.90021 119.9 5.90021Z" fill="white"/>
<path id="Vector_114" d="M120.7 3.59985C120.7 3.39985 120.5 3.0999 120.9 2.8999C121.3 2.9999 121 3.29988 121.1 3.49988C120.9 3.49988 120.8 3.59985 120.7 3.59985Z" fill="white"/>
<path id="Vector_115" d="M119.8 2.29973C119.8 2.19973 119.8 2.09974 119.8 1.99974C120.1 1.89974 120.3 2.09973 120.4 2.29973C120.2 2.29973 120 2.29973 119.8 2.29973Z" fill="white"/>
<path id="Vector_116" d="M117.9 1.99974C117.9 2.09974 117.9 2.19973 117.9 2.29973C117.8 2.29973 117.7 2.29973 117.6 2.29973C117.6 2.09973 117.6 1.89974 117.9 1.99974Z" fill="white"/>
<path id="Vector_117" d="M119.8 3.00018C119.4 3.00018 119 3.00018 118.6 3.00018C118.6 2.90018 118.6 2.8002 118.6 2.7002C118.9 2.7002 119.3 2.7002 119.6 2.7002C119.6 2.7002 119.7 2.80018 119.8 3.00018C119.8 2.90018 119.8 2.90018 119.8 3.00018Z" fill="white"/>
<path id="Vector_118" d="M118.6 2.7002C118.6 2.8002 118.6 2.90018 118.6 3.00018C118.6 3.20018 118.6 3.40016 118.5 3.60016C118.5 3.70016 118.5 3.80021 118.5 3.90021C118.3 3.90021 118.2 3.9002 118.2 3.7002C118.2 3.5002 118.2 3.20018 118.2 3.00018C118.3 2.80018 118.5 2.8002 118.6 2.7002Z" fill="white"/>
<path id="Vector_119" d="M119.8 2.9998C119.8 2.8998 119.8 2.8998 119.8 2.9998C119.9 2.9998 120 2.99978 120.1 3.09978C120.1 3.39978 120.2 3.69979 119.8 3.79979C119.8 3.49979 119.8 3.1998 119.8 2.9998Z" fill="white"/>
</g>
</svg>
