<svg width="117" height="21" viewBox="0 0 117 21" fill="none" xmlns="http://www.w3.org/2000/svg">
<g id="Group">
<path id="Vector" d="M103.4 0.699707C103.5 0.899707 103.5 0.999707 103.6 1.19971C103.8 1.89971 103.9 2.49971 104 3.19971C104.2 3.99971 104.4 4.79967 104.6 5.59967C104.7 6.19967 104.9 6.89969 105 7.49969C105.1 7.7997 105.2 8.09969 105.2 8.49969C105.4 9.19969 105.5 9.7997 105.6 10.4997C105.7 11.0997 105.9 11.6997 106 12.2997C106.2 13.0997 106.4 13.9997 106.5 14.7997C106.5 14.7997 106.5 14.7997 106.6 14.8997C106.6 14.7997 106.7 14.6997 106.7 14.4997C106.9 13.7997 107.1 12.9997 107.2 12.2997C107.4 11.2997 107.7 10.1997 107.9 9.19971C108.1 8.39971 108.3 7.59968 108.5 6.79968C108.7 5.89968 108.9 5.09971 109.1 4.19971C109.2 3.59971 109.4 2.99972 109.6 2.39972C109.7 1.99972 109.8 1.69968 110 1.29968C110.2 1.09968 110.4 0.999719 110.7 0.899719C111.1 0.799719 111.4 0.799683 111.8 0.799683C113.4 0.799683 115.1 0.799683 116.7 0.799683C116.8 0.799683 116.9 0.799683 117 0.799683C117 0.899683 117 0.999707 117 1.19971C117 6.89971 117 12.5997 117 18.3997C117 18.5997 116.9 18.8997 116.9 19.0997C116.8 19.2997 116.7 19.4997 116.4 19.4997C116.2 19.4997 116 19.5997 115.7 19.5997C114.7 19.5997 113.7 19.5997 112.6 19.5997C112.5 19.5997 112.4 19.5997 112.3 19.5997C112.3 14.4997 112.3 9.49972 112.3 4.39972C112.2 4.39972 112.1 4.39972 112 4.39972C111.9 4.79972 111.8 5.19967 111.7 5.59967C111.6 5.99967 111.5 6.29971 111.4 6.69971C111.1 7.79971 110.8 8.99967 110.5 10.0997C110.3 10.9997 110.1 11.7997 109.9 12.6997C109.7 13.6997 109.4 14.5997 109.2 15.5997C109 16.3997 108.8 17.1997 108.5 17.9997C108.4 18.2997 108.3 18.5997 108.2 18.7997C108.1 19.1997 107.7 19.3997 107.3 19.4997C107.2 19.4997 107.1 19.4997 107 19.4997C106.2 19.4997 105.3 19.4997 104.5 19.4997C104.5 19.4997 104.4 19.4997 104.3 19.4997C103 14.4997 101.7 9.39968 100.4 4.29968C100.3 4.29968 100.2 4.29968 100.1 4.29968C100.1 4.39968 100.1 4.49967 100.1 4.59967C100.1 9.39967 100.1 14.0997 100.1 18.8997C100.1 18.9997 100.1 19.0997 100.1 19.1997C100 19.4997 100 19.4997 99.7001 19.4997C99.1001 19.4997 98.5001 19.4997 97.9001 19.4997C97.9001 19.3997 97.9001 19.2997 97.9001 19.1997C97.9001 13.3997 97.9001 7.59972 97.9001 1.89972C97.9001 1.79972 97.9001 1.69967 97.9001 1.59967C97.9001 1.19967 98.2001 0.899683 98.5001 0.799683C98.7001 0.799683 98.8001 0.699707 99.0001 0.699707C100.4 0.699707 101.8 0.699707 103.1 0.699707C103.3 0.699707 103.3 0.699707 103.4 0.699707Z" fill="white"/>
<path id="Vector_2" d="M20.5001 0.699817C20.5001 0.899817 20.5001 1.09982 20.5001 1.19982C20.5001 5.79982 20.5001 10.4998 20.5001 15.0998C20.5001 15.3998 20.5 15.7998 20.6 16.0998C20.7 16.8998 21.4 17.5998 22.1 17.7998C22.8 17.9998 23.5001 17.9998 24.2001 17.9998C24.8001 17.9998 25.4001 17.7998 25.9001 17.4998C26.4001 17.1998 26.6001 16.7998 26.8001 16.2998C26.9001 15.7998 27.0001 15.2998 27.0001 14.8998C27.0001 10.5998 27.0001 6.19983 27.0001 1.89983C27.0001 1.79983 27.0001 1.69978 27.0001 1.59978C27.0001 1.09978 27.2001 0.799817 27.8001 0.699817C27.9001 0.699817 28.1001 0.699817 28.2001 0.699817C29.3001 0.699817 30.5 0.699817 31.6 0.699817H31.7001C31.7001 0.799817 31.7001 0.899829 31.7001 0.899829C31.7001 5.39983 31.7001 9.89981 31.7001 14.4998C31.7001 15.3998 31.6001 16.1998 31.2001 16.9998C31.0001 17.2998 30.8 17.5998 30.6 17.8998C30.3 18.2998 29.9001 18.5998 29.4001 18.8998C28.9001 19.1998 28.3001 19.4998 27.7001 19.5998C27.2001 19.6998 26.8001 19.7998 26.3001 19.8998C25.9001 19.9998 25.5 19.9998 25.1 19.9998C24.3 20.1998 23.4 20.0998 22.6 20.0998C22.1 20.0998 21.5001 19.9998 21.0001 19.8998C20.3001 19.7998 19.6001 19.6998 19.0001 19.3998C18.3001 19.0998 17.5001 18.6998 17.0001 18.1998C16.6001 17.7998 16.3001 17.2998 16.0001 16.6998C15.9001 16.3998 15.8001 15.9998 15.7001 15.6998C15.6001 15.3998 15.7001 14.9998 15.7001 14.6998C15.7001 11.4998 15.7001 8.29982 15.7001 5.19982C15.7001 4.09982 15.7001 2.99983 15.7001 1.89983C15.7001 1.69983 15.7001 1.49983 15.7001 1.39983C15.7001 1.09983 15.9 0.999829 16.1 0.899829C16.3 0.799829 16.5001 0.799792 16.7001 0.799792C17.9001 0.799792 19.2001 0.799792 20.4001 0.799792C20.4001 0.599792 20.4001 0.699817 20.5001 0.699817Z" fill="white"/>
<path id="Vector_3" d="M59.5001 10.8997C58.9001 10.8997 58.2 10.8997 57.6 10.8997C57.2 10.8997 56.7001 10.8997 56.2001 10.8997C56.4001 10.6997 56.5001 10.5997 56.7001 10.4997C57.2001 10.0997 57.7001 9.69968 58.2001 9.29968C58.6001 8.99968 59.0001 8.69972 59.4001 8.39972C59.6001 8.29972 59.6 8.19969 59.6 7.99969C59.6 6.59969 59.6 5.09971 59.6 3.69971C59.6 3.19971 59.6 2.79968 59.6 2.29968C59.6 1.69968 60.1001 1.09972 60.7001 0.899719C61.1001 0.799719 61.6 0.699707 62.1 0.699707C64.6 0.699707 67.1 0.699707 69.6 0.699707C70.5 0.699707 71.4001 0.699707 72.4001 0.699707C72.4001 0.799707 72.4001 0.899719 72.4001 0.899719C72.4001 1.39972 72.4001 1.89968 72.4001 2.29968C72.4001 2.59968 72.3001 2.69971 72.0001 2.69971C71.7001 2.69971 71.3001 2.69971 71.0001 2.69971C69.5001 2.69971 67.9001 2.69971 66.4001 2.69971C66.1001 2.69971 65.8001 2.69968 65.5001 2.79968C65.1001 2.79968 64.8001 3.09969 64.7001 3.49969C64.7001 3.69969 64.6 3.89967 64.6 4.09967C64.6 5.69967 64.6 7.19968 64.6 8.79968C67 8.79968 69.4001 8.79968 71.9001 8.79968C71.9001 8.99968 71.9001 9.09971 71.9001 9.19971C71.9001 9.69971 71.9001 10.0997 71.9001 10.5997C71.9001 10.7997 71.8 10.8997 71.6 10.8997C71.5 10.8997 71.4 10.8997 71.3 10.8997C69.2 10.8997 67.1001 10.8997 64.9001 10.8997C64.8001 10.8997 64.7001 10.8997 64.5001 10.8997C64.5001 10.9997 64.5001 11.0997 64.5001 11.1997C64.5001 13.5997 64.5001 15.8997 64.5001 18.2997C64.5001 18.4997 64.5001 18.6997 64.4001 18.8997C64.4001 19.2997 64.1 19.3997 63.8 19.4997C63.7 19.4997 63.5001 19.4997 63.4001 19.4997C62.2001 19.4997 61 19.4997 59.8 19.4997C59.7 19.4997 59.7 19.4997 59.6 19.4997C59.6 19.3997 59.6 19.2997 59.6 19.1997C59.6 16.5997 59.6 13.9997 59.6 11.3997C59.5 11.1997 59.5001 11.0997 59.5001 10.8997Z" fill="white"/>
<path id="Vector_4" d="M5.30005 8.69983C7.70005 8.69983 10.1001 8.69983 12.5001 8.69983C12.5001 8.79983 12.5001 8.89984 12.5001 8.89984C12.5001 9.39984 12.5001 9.89984 12.5001 10.3998C12.5001 10.6998 12.4 10.7998 12.1 10.7998C11.2 10.7998 10.3001 10.7998 9.40009 10.7998C8.20009 10.7998 6.90007 10.7998 5.70007 10.7998C5.60007 10.7998 5.40005 10.7998 5.30005 10.7998C5.30005 10.8998 5.30005 10.9998 5.30005 11.1998C5.30005 13.4998 5.30005 15.7998 5.30005 18.0998C5.30005 18.3998 5.30007 18.5998 5.20007 18.8998C5.10007 19.1998 4.80004 19.2998 4.60004 19.3998C4.40004 19.3998 4.30004 19.3998 4.10004 19.3998C3.00004 19.3998 1.80007 19.3998 0.700073 19.3998C0.600073 19.3998 0.500049 19.3998 0.300049 19.3998C0.300049 19.2998 0.300049 19.1998 0.300049 19.0998C0.300049 14.0998 0.300049 8.99982 0.300049 3.99982C0.300049 3.49982 0.300049 2.99979 0.300049 2.59979C0.300049 2.39979 0.300085 2.19982 0.400085 1.99982C0.500085 1.39982 0.900061 1.09984 1.50006 0.899841C1.90006 0.799841 2.30007 0.799805 2.70007 0.799805C6.10007 0.799805 9.40005 0.799805 12.8 0.799805C12.9 0.799805 12.9001 0.799805 13.0001 0.799805C13.0001 1.4998 13.1001 2.0998 12.9001 2.7998C12.7001 2.7998 12.6001 2.7998 12.5001 2.7998C10.7001 2.7998 8.80006 2.7998 7.00006 2.7998C6.70006 2.7998 6.50007 2.7998 6.20007 2.7998C5.80007 2.7998 5.30005 3.19983 5.30005 3.69983C5.30005 3.79983 5.30005 3.99979 5.30005 4.09979C5.30005 5.59979 5.30005 7.09979 5.30005 8.59979V8.69983Z" fill="white"/>
<path id="Vector_5" d="M95.7001 17.3997C95.7001 17.9997 95.7001 18.4997 95.7001 19.0997C95.7001 19.2997 95.6 19.3997 95.3 19.3997C95.2 19.3997 95.2 19.3997 95.1 19.3997C92.5 19.3997 90.0001 19.3997 87.4001 19.3997C87.2001 19.3997 86.9001 19.3997 86.7001 19.3997C85.8001 19.2997 85.1 18.9997 84.6 18.1997C84.4 17.8997 84.4001 17.5997 84.4001 17.1997C84.4001 14.6997 84.4001 12.1997 84.4001 9.79968C84.4001 7.19968 84.4001 4.59969 84.4001 1.99969C84.4001 1.79969 84.4001 1.59969 84.4001 1.49969C84.4001 1.09969 84.6001 0.899683 85.0001 0.799683C85.1001 0.799683 85.2 0.799707 85.3 0.699707C86.6 0.699707 87.9001 0.699707 89.2001 0.699707C89.2001 0.799707 89.2001 0.89967 89.2001 1.09967C89.2001 5.99967 89.2001 10.7997 89.2001 15.6997C89.2001 15.9997 89.2 16.2997 89.3 16.4997C89.4 16.9997 89.9 17.2997 90.3 17.3997C90.5 17.3997 90.8001 17.3997 91.0001 17.3997C92.4001 17.3997 93.9 17.3997 95.3 17.3997C95.4 17.3997 95.6001 17.3997 95.7001 17.3997Z" fill="white"/>
<path id="Vector_6" d="M40.7001 1.29968C40.9001 0.899683 41.2 0.799707 41.6 0.699707C41.9 0.699707 42.3 0.699707 42.6 0.699707C43.4 0.699707 44.2 0.699707 45.1 0.699707C45.2 0.699707 45.3001 0.699707 45.4001 0.699707C45.4001 0.799707 45.4001 0.899695 45.4001 0.999695C45.4001 4.89969 45.4001 8.79968 45.4001 12.7997C45.4001 13.2997 45.4 13.7997 45.3 14.2997C45.2 14.7997 45.2001 15.2997 45.0001 15.7997C44.8001 16.5997 44.4 17.2997 43.8 17.7997C43.3 18.2997 42.7001 18.7997 42.0001 19.0997C41.4001 19.3997 40.8001 19.5997 40.2001 19.6997C38.6001 19.9997 37.0001 20.0997 35.4001 19.9997C35.1001 19.9997 34.7001 19.9997 34.4001 19.9997C34.2001 19.9997 34.0001 19.9997 33.9001 19.8997C33.8001 19.8997 33.7001 19.6997 33.7001 19.5997C33.7001 19.3997 33.7001 19.0997 33.7001 18.8997C33.7001 18.5997 33.7001 18.3997 33.7001 18.0997C33.9001 18.0997 34.1 18.0997 34.3 18.0997C35.2 18.0997 36.2 18.0997 37.1 17.9997C37.7 17.9997 38.3001 17.7997 38.9001 17.5997C39.6001 17.2997 40 16.7997 40.3 16.0997C40.5 15.5997 40.5001 14.9997 40.5001 14.4997C40.5001 10.2997 40.5001 6.19969 40.5001 1.99969C40.6001 1.79969 40.6001 1.49968 40.7001 1.29968C40.6001 1.29968 40.6001 1.29968 40.7001 1.29968Z" fill="white"/>
<path id="Vector_7" d="M79.9001 0.699707C79.9001 0.799707 79.9001 0.89967 79.9001 1.09967C79.9001 6.79967 79.9001 12.5997 79.9001 18.2997C79.9001 18.4997 79.8 18.6997 79.8 18.9997C79.8 19.2997 79.5 19.3997 79.3 19.4997C79.2 19.4997 79.1001 19.4997 79.0001 19.4997C77.8001 19.4997 76.6 19.4997 75.3 19.4997C75.2 19.4997 75.2 19.4997 75.1 19.4997V19.3997C75.1 16.8997 75.1 14.4997 75.1 11.9997C75.1 8.7997 75.1 5.69969 75.1 2.49969C75.1 2.29969 75.1 2.09968 75.1 1.79968C75.1 1.09968 75.4 0.799683 76.1 0.799683C77 0.799683 77.9001 0.799683 78.9001 0.799683C79.2001 0.699683 79.5001 0.699707 79.9001 0.699707Z" fill="white"/>
<path id="Vector_8" d="M49.8 19.3997C49.8 16.4997 49.8 13.6997 49.8 10.8997C50 10.7997 54.2 10.7997 54.6 10.8997C54.6 10.9997 54.6 11.0997 54.6 11.0997C54.6 13.4997 54.6 15.8997 54.6 18.2997C54.6 18.4997 54.5001 18.6997 54.5001 18.8997C54.5001 19.1997 54.2001 19.2997 54.0001 19.3997C53.9001 19.3997 53.8 19.3997 53.6 19.3997C52.4 19.3997 51.2 19.3997 50.1 19.3997C50 19.3997 49.9 19.3997 49.8 19.3997Z" fill="white"/>
<path id="Vector_9" d="M49.7001 10.5998C49.7001 7.69979 49.7001 4.79984 49.7001 1.89984C49.7001 1.59984 49.7001 1.39983 49.9001 1.19983C50.1001 0.899829 50.5001 0.799805 50.9001 0.799805C51.8001 0.799805 52.6001 0.799805 53.5001 0.799805C53.8001 0.799805 54.2001 0.799805 54.5001 0.799805C54.5001 0.799805 54.6 0.799841 54.6 0.899841C54.6 0.999841 54.6 0.999792 54.6 1.09979C54.6 2.99979 54.6 4.79983 54.6 6.69983C54.6 6.99983 54.5001 7.29984 54.2001 7.39984C52.8001 8.49984 51.5 9.49979 50.1 10.5998C50 10.6998 49.9001 10.6998 49.9001 10.7998C49.8001 10.5998 49.8001 10.5998 49.7001 10.5998Z" fill="white"/>
<path id="Vector_10" d="M49.7001 10.5996C49.7001 10.5996 49.8 10.5996 49.8 10.6996C49.8 10.6996 49.7001 10.6996 49.7001 10.7996C49.8001 10.6996 49.8001 10.5996 49.7001 10.5996Z" fill="white"/>
</g>
</svg>
