<svg width="87" height="34" viewBox="0 0 87 34" fill="none" xmlns="http://www.w3.org/2000/svg">
<g id="Group">
<path id="Vector" d="M86.1 13.2001C83.5 13.2001 81 13.2001 78.3 13.2001C78.3 11.4001 78.3 9.60011 78.3 7.80011C75 7.80011 71.8 7.80011 68.5 7.80011C68.5 13.9001 68.5 20.0001 68.5 26.2001C71.8 26.2001 75 26.2001 78.3 26.2001C78.3 24.4001 78.3 22.6001 78.3 20.7001C80.9 20.7001 83.5 20.7001 86.2 20.7001C86.2 20.8001 86.2 20.9001 86.2 21.0001C86.2 23.2001 86.2 25.5001 86.2 27.7001C86.2 29.1001 85.9 30.4001 85.1 31.6001C84.3 32.7001 83.2 33.3001 81.9 33.5001C81.4 33.6001 80.9 33.6001 80.3 33.6001C76 33.6001 71.6 33.6001 67.3 33.6001C66 33.6001 64.8 33.4001 63.6 32.9001C62.1 32.2001 61.1 31.0001 60.8 29.4001C60.6 28.5001 60.5 27.5001 60.5 26.6001C60.5 19.9001 60.5 13.1001 60.5 6.40015C60.5 5.30015 60.6 4.20013 61.1 3.20013C61.6 2.00013 62.6 1.30012 63.8 1.00012C64.6 0.800122 65.4 0.700134 66.2 0.700134C70.9 0.600134 75.5 0.600098 80.2 0.600098C81.2 0.600098 82.3 0.700098 83.3 1.1001C84.7 1.6001 85.4 2.60012 85.8 4.00012C86 4.90012 86.1 5.80011 86.1 6.80011C86.1 8.90011 86.1 11.0001 86.1 13.2001Z" fill="white"/>
<path id="Vector_2" d="M59.0001 0.5C58.3001 2.6 57.6001 4.69999 56.9001 6.79999C55.3001 11.5 53.8001 16.3 52.2001 21C50.8001 25.1 49.5 29.2 48.1 33.3C48 33.5 47.9001 33.6 47.7001 33.6C45.1001 33.6 42.5 33.6 39.8 33.6C39.6 33.6 39.5001 33.5 39.4001 33.3C38.6001 30.8 37.7001 28.4 36.9001 26C36.1001 23.7 35.3001 21.5 34.5001 19.2C33.7001 16.8 32.9 14.4 32.1 12C31.3 9.7 30.5001 7.50001 29.7001 5.20001C29.2001 3.70001 28.7001 2.20001 28.2001 0.700012C28.2001 0.600012 28.2001 0.6 28.2001 0.5C31.0001 0.5 33.8 0.5 36.6 0.5C39 7.3 41.3001 14.2 43.7001 21.1C43.8001 20.9 43.9001 20.8 43.9001 20.7C45.6001 15.5 47.3 10.4 49.1 5.20001C49.6 3.70001 50.1 2.20001 50.6 0.700012C50.6 0.600012 50.8001 0.5 50.9001 0.5C53.6001 0.5 56.3001 0.5 59.0001 0.5Z" fill="white"/>
<path id="Vector_3" d="M1.00003 20.0001C3.10003 20.0001 5.10004 20.0001 7.20004 20.0001C7.50004 20.0001 7.70003 20.0001 8.00003 20.0001C8.50003 19.9001 8.60004 20.1001 8.60004 20.6001C8.60004 21.0001 8.60004 21.5001 8.60004 21.9001C8.60004 23.3001 8.60004 24.8001 8.60004 26.2001C11.9 26.2001 15.1 26.2001 18.4 26.2001C18.4 17.7001 18.4 9.2001 18.4 0.600098C21 0.600098 23.6 0.600098 26.3 0.600098C26.3 0.700098 26.3 0.900122 26.3 1.00012C26.3 10.1001 26.3 19.1001 26.3 28.2001C26.3 30.8001 24.7 33.0001 22 33.4001C21.5 33.5001 21 33.6001 20.5 33.6001C15.6 33.6001 10.7 33.6001 5.90002 33.6001C4.80002 33.6001 3.80002 33.2001 2.90002 32.5001C1.80002 31.6001 1.20003 30.4001 1.00003 29.0001C1.00003 28.7001 0.900024 28.3001 0.900024 28.0001C0.900024 25.3001 0.900031 22.7001 1.00003 20.0001Z" fill="white"/>
</g>
</svg>
