<svg width="144" height="23" viewBox="0 0 144 23" fill="none" xmlns="http://www.w3.org/2000/svg">
<g id="Group">
<g id="Group_2">
<g id="Group_3">
<path id="Vector" d="M18.4001 6.39985C18.1001 4.09985 16.8001 2.4998 14.7001 1.5998C13.5001 1.0998 12.1001 0.799816 10.8001 0.799816C7.20009 0.699816 3.7001 0.799816 0.100098 0.799816V21.4998H6.70009V15.4998C8.80009 15.3998 10.8001 15.3998 12.8001 15.0998C14.6001 14.8998 16.2001 13.9999 17.3001 12.3999C18.5001 10.5999 18.7001 8.49985 18.4001 6.39985ZM12.1001 9.19984C11.7001 9.99984 10.9001 10.0998 10.1001 10.1998C9.2001 10.2998 8.30009 10.1998 7.30009 10.1998H6.70009V5.79982C8.10009 5.89982 9.50009 5.89984 10.9001 6.19984C12.4001 6.59984 12.7001 8.09984 12.1001 9.19984ZM114.6 16.1998C114.5 14.1998 114.5 12.1998 114.3 10.1998C114.1 8.79984 113.4 7.59985 112.1 6.89985C109.8 5.79985 107.7 6.09985 105.6 7.39985C105.2 7.59985 104.9 7.89982 104.5 8.29982C104.5 7.89982 104.5 7.59985 104.5 7.39985C104.5 7.19985 104.3 6.99983 104.2 6.99983C102.5 6.99983 100.8 6.99983 99.1001 6.99983V21.6998H104.8C104.8 18.9998 104.8 16.2998 104.8 13.6998C104.8 13.0998 105 12.4998 105.3 11.9998C105.6 11.3998 106.2 10.9998 106.9 11.0998C107.8 11.1998 108.4 11.6998 108.5 12.5998C108.5 12.8998 108.6 13.2998 108.6 13.5998C108.6 16.0998 108.6 18.4998 108.6 20.9998V21.5998H114.6C114.6 19.6998 114.7 17.8998 114.6 16.1998ZM49.9001 12.2998C49.9001 11.6998 49.9001 11.0998 49.8001 10.4998C49.6001 9.19983 49.1001 7.8998 48.0001 7.0998C46.0001 5.5998 42.6001 5.99983 40.7001 7.49983C40.4001 7.69983 40.2001 7.99984 40.0001 8.19984C39.9001 7.69984 39.8001 7.29982 39.8001 6.79982H34.5001V21.3999H40.1001C40.1001 18.7999 40.1001 16.2998 40.1001 13.7998C40.1001 12.9998 40.3001 12.1998 40.8001 11.4998C41.2001 10.9998 41.8001 10.6998 42.4001 10.7998C43.1001 10.8998 43.7001 11.1998 43.8001 11.9998C43.9001 12.6998 44.0001 13.3998 44.0001 14.0998C44.0001 16.2998 44.0001 18.4998 44.0001 20.7998V21.3999H49.9001C49.9001 18.3999 49.9001 15.2998 49.9001 12.2998ZM33.6001 21.1998C33.1001 20.6998 33.0001 20.0999 33.0001 19.3999C33.0001 16.5999 33.0001 13.6999 32.9001 10.8999C32.8001 9.39985 32.2001 8.19985 30.9001 7.39985C29.7001 6.59985 28.2001 6.39982 26.8001 6.29982C25.0001 6.19982 23.3001 6.39983 21.6001 6.99983C19.4001 7.79983 18.5001 9.9998 18.8001 12.0998H23.7001C23.9001 11.2998 23.9001 10.3998 25.0001 10.1998C25.5001 10.0998 26.1001 10.0998 26.6001 10.1998C26.9001 10.2998 27.4001 10.5999 27.5001 10.8999C27.6001 11.1999 27.3001 11.7999 27.0001 11.8999C26.3001 12.2999 25.5001 12.4998 24.7001 12.6998C23.5001 12.9998 22.3001 13.1998 21.1001 13.4998C20.3001 13.6998 19.5001 14.1999 18.9001 14.8999C18.0001 15.8999 17.9001 17.1999 18.1001 18.3999C18.2001 19.4999 18.6001 20.5998 19.7001 21.0998C20.5001 21.4998 21.4001 21.6998 22.3001 21.7998C24.2001 22.1998 26.0001 21.8998 27.6001 20.5998C27.7001 20.7998 27.8001 21.0998 28.0001 21.2998C28.1001 21.3998 28.3001 21.5998 28.4001 21.5998C30.2001 21.5998 32.0001 21.5998 33.8001 21.5998C33.7001 21.2998 33.7001 21.1998 33.6001 21.1998ZM24.8001 18.4998C24.1001 18.5998 23.4001 18.1998 23.1001 17.4998C22.9001 16.9998 23.2001 16.4998 23.9001 16.1998C25.0001 15.7998 26.2001 15.3998 27.4001 14.9998C27.6001 16.7998 26.6001 18.1998 24.8001 18.4998ZM66.3001 21.0998C65.9001 20.6998 65.8001 20.1998 65.8001 19.5998C65.8001 16.6998 65.8001 13.8998 65.7001 10.9998C65.6001 9.49983 65.0001 8.19982 63.6001 7.29982C62.3001 6.39982 60.8001 6.29984 59.3001 6.19984C58.4001 6.09984 57.5001 6.19982 56.6001 6.29982C55.6001 6.49982 54.6001 6.6998 53.7001 7.0998C51.7001 8.0998 51.4001 9.89985 51.4001 11.8999H56.4001C56.6001 11.4999 56.6001 10.9998 56.8001 10.5998C57.2001 9.8998 58.3001 9.69985 59.2001 9.89985C59.6001 9.99985 60.1001 10.0998 60.1001 10.6998C60.1001 11.1998 59.9001 11.5998 59.4001 11.7998C58.9001 11.9998 58.3001 12.1998 57.8001 12.2998C56.3001 12.6998 54.8001 12.8998 53.3001 13.2998C52.5001 13.4998 51.9001 13.9998 51.3001 14.6998C50.4001 15.7998 50.4001 17.0998 50.6001 18.2998C50.8001 19.6998 51.6001 20.6998 53.0001 21.0998C53.5001 21.1998 54.1001 21.2999 54.7001 21.3999C56.7001 21.6999 58.5001 21.4998 60.1001 20.0998C60.2001 20.3998 60.3001 20.5999 60.5001 20.8999C60.6001 20.9999 60.8001 21.1998 60.9001 21.1998C62.7001 21.1998 64.4001 21.1998 66.3001 21.1998C66.4001 21.2998 66.4001 21.1998 66.3001 21.0998ZM57.8001 18.3999C57.3001 18.4999 56.7001 18.2998 56.3001 17.9998C56.0001 17.7998 55.9001 17.0998 56.1001 16.7998C56.3001 16.3998 56.9001 16.0999 57.4001 15.8999C58.4001 15.4999 59.4001 15.2998 60.5001 14.9998C60.3001 16.4998 59.5001 18.1999 57.8001 18.3999ZM78.8001 12.8999C77.6001 12.4999 76.4001 12.1999 75.2001 11.8999C74.4001 11.6999 73.6001 11.4998 72.9001 11.0998C72.3001 10.7998 72.3001 10.1999 72.8001 9.89985C73.8001 9.39985 75.7001 9.49983 76.1001 10.9998C76.1001 11.1998 76.3001 11.3999 76.5001 11.3999C78.1001 11.3999 79.7001 11.3999 81.3001 11.3999C81.4001 9.99985 81.1001 8.79985 80.1001 7.89985C78.9001 6.79985 77.4001 6.39982 75.8001 6.29982C74.6001 6.19982 73.3001 6.19982 72.0001 6.29982C71.1001 6.39982 70.2001 6.6998 69.4001 7.0998C67.2001 8.1998 67.1001 10.2998 67.3001 12.1998C67.4001 12.9998 67.8001 13.6998 68.5001 14.2998C69.5001 15.1998 70.7001 15.4998 71.9001 15.7998C73.0001 16.0998 74.1001 16.2998 75.2001 16.5998C75.7001 16.6998 76.0001 16.9998 76.0001 17.5998C76.0001 18.1998 75.7001 18.4998 75.2001 18.5998C73.9001 18.9998 72.3001 18.5998 72.1001 16.4998H66.8001C66.7001 17.6998 67.2001 18.9999 67.9001 19.8999C69.4001 21.4999 71.3001 22.1998 73.4001 22.2998C74.8001 22.3998 76.2001 22.1999 77.5001 21.8999C79.4001 21.4999 80.9001 20.5998 81.4001 18.5998C82.1001 15.6998 81.5001 13.7999 78.8001 12.8999ZM97.8001 11.7998C97.2001 9.59982 96.0001 7.89983 93.8001 6.99983C92.0001 6.19983 90.2001 6.09983 88.4001 6.49983C86.2001 6.89983 84.4001 8.09984 83.3001 10.1998C82.2001 12.2998 82.1001 14.4998 82.7001 16.6998C83.3001 18.8998 84.6001 20.4999 86.8001 21.3999C88.4001 22.0999 90.0001 22.1998 91.7001 21.9998C93.9001 21.6998 95.6001 20.7998 96.8001 18.9998C97.8001 17.5998 98.2001 15.9998 98.2001 14.2998C98.0001 13.3998 98.0001 12.5998 97.8001 11.7998ZM92.3001 16.3999C92.0001 17.4999 91.3001 17.9998 90.3001 18.0998C89.5001 18.1998 88.5001 17.3998 88.2001 16.4998C87.6001 14.8998 87.7001 13.2998 88.2001 11.7998C88.5001 10.9998 89.4001 10.0998 90.4001 10.1998C91.3001 10.2998 92.0001 10.7999 92.3001 11.8999C92.5001 12.5999 92.6001 13.3998 92.8001 14.0998C92.6001 14.8998 92.5001 15.6999 92.3001 16.3999ZM132.2 15.2998C132.1 16.1998 131.6 17.0999 131.1 17.3999C129.8 18.2999 128.3 17.3999 127.9 16.3999C127.2 14.7999 127.2 13.2998 127.8 11.6998C128.2 10.5998 129.7 9.99981 130.5 10.2998C131.5 10.6998 132 11.4998 132 12.4998H137.2C137.6 10.0998 135.6 7.49984 133.3 6.69984C131.6 6.09984 129.9 5.89984 128.1 6.19984C125.7 6.59984 123.9 7.69985 122.7 9.89985C121.7 11.7999 121.6 13.7999 122 15.8999C122.5 18.1999 123.8 19.9998 126 21.0998C127.3 21.7998 128.8 21.8999 130.3 21.8999C132.5 21.8999 134.5 21.1998 136 19.4998C137.1 18.2998 137.5 16.8998 137.5 15.1998H132.2V15.2998ZM115.5 6.79982V21.3999H121V6.79982H115.5ZM115.5 0.799816V4.99983H120.9V0.799816H115.5Z" fill="white"/>
<path id="Vector_2" d="M18.4001 6.39985C18.1001 4.09985 16.8001 2.4998 14.7001 1.5998C13.5001 1.0998 12.1001 0.799816 10.8001 0.799816C7.20009 0.699816 3.7001 0.799816 0.100098 0.799816V21.4998H6.70009V15.4998C8.80009 15.3998 10.8001 15.3998 12.8001 15.0998C14.6001 14.8998 16.2001 13.9999 17.3001 12.3999C18.5001 10.5999 18.7001 8.49985 18.4001 6.39985ZM12.1001 9.19984C11.7001 9.99984 10.9001 10.0998 10.1001 10.1998C9.2001 10.2998 8.30009 10.1998 7.30009 10.1998H6.70009V5.79982C8.10009 5.89982 9.50009 5.89984 10.9001 6.19984C12.4001 6.59984 12.7001 8.09984 12.1001 9.19984Z" fill="white"/>
<path id="Vector_3" d="M104.7 21.4996C102.7 21.4996 100.9 21.4996 99.0001 21.4996C99.0001 16.5996 99.0001 11.7996 99.0001 6.79955C100.7 6.79955 102.4 6.79955 104.1 6.79955C104.2 6.79955 104.4 6.99958 104.4 7.19958C104.5 7.49958 104.4 7.69954 104.4 8.09954C104.8 7.79954 105.1 7.39958 105.5 7.19958C107.6 5.99958 109.8 5.59958 112 6.69958C113.4 7.39958 114.1 8.59956 114.2 9.99956C114.4 11.9996 114.4 13.9996 114.5 15.9996C114.5 17.7996 114.5 19.4996 114.5 21.2996C112.5 21.2996 110.5 21.2996 108.5 21.2996C108.5 21.0996 108.5 20.8996 108.5 20.6996C108.5 18.1996 108.5 15.7996 108.5 13.2996C108.5 12.9996 108.4 12.5996 108.4 12.2996C108.3 11.3996 107.7 10.8996 106.8 10.7996C106.1 10.6996 105.5 11.0996 105.2 11.6996C104.9 12.1996 104.7 12.7996 104.7 13.3996C104.7 16.0996 104.7 18.7996 104.7 21.4996Z" fill="white"/>
<path id="Vector_4" d="M34.3 6.80004C36.1 6.80004 37.8001 6.80004 39.6001 6.80004C39.7001 7.20004 39.7 7.70007 39.8 8.20007C40.1 7.90007 40.3 7.70006 40.5 7.50006C42.4 6.00006 45.8 5.60003 47.8 7.10003C48.9 7.90003 49.4001 9.20006 49.6001 10.5001C49.7001 11.1001 49.7 11.7 49.7 12.3C49.7 15.4 49.7 18.4001 49.7 21.5001C47.7 21.5001 45.8 21.5001 43.8 21.5001C43.8 21.3001 43.8 21.1001 43.8 20.9001C43.8 18.7001 43.8 16.5001 43.8 14.2001C43.8 13.5001 43.7001 12.8 43.6001 12.1C43.5001 11.3 42.8 11.0001 42.2 10.9001C41.6 10.8001 41.1001 11.1 40.6001 11.6C40.0001 12.3 39.9 13.0001 39.9 13.9001C39.9 16.4001 39.9 18.9001 39.9 21.5001C38 21.5001 36.2 21.5001 34.3 21.5001C34.3 16.6001 34.3 11.8 34.3 6.80004Z" fill="white"/>
<path id="Vector_5" d="M33.6001 21.2C33.1001 20.7 33.0001 20.1 33.0001 19.4C33.0001 16.6 33.0001 13.7 32.9001 10.9C32.8001 9.39998 32.2001 8.19998 30.9001 7.39998C29.7001 6.59998 28.2001 6.39995 26.8001 6.29995C25.0001 6.19995 23.3001 6.39996 21.6001 6.99996C19.4001 7.79996 18.5001 9.99993 18.8001 12.0999H23.7001C23.9001 11.2999 23.9001 10.4 25.0001 10.2C25.5001 10.1 26.1001 10.1 26.6001 10.2C26.9001 10.3 27.4001 10.6 27.5001 10.9C27.6001 11.2 27.3001 11.8 27.0001 11.9C26.3001 12.3 25.5001 12.5 24.7001 12.7C23.5001 13 22.3001 13.2 21.1001 13.5C20.3001 13.7 19.5001 14.2 18.9001 14.9C18.0001 15.9 17.9001 17.2 18.1001 18.4C18.2001 19.5 18.6001 20.5999 19.7001 21.0999C20.5001 21.4999 21.4001 21.6999 22.3001 21.7999C24.2001 22.1999 26.0001 21.8999 27.6001 20.5999C27.7001 20.7999 27.8001 21.0999 28.0001 21.2999C28.1001 21.3999 28.3001 21.5999 28.4001 21.5999C30.2001 21.5999 32.0001 21.5999 33.8001 21.5999C33.7001 21.2999 33.7001 21.2 33.6001 21.2ZM24.8001 18.5C24.1001 18.6 23.4001 18.2 23.1001 17.5C22.9001 17 23.2001 16.5 23.9001 16.2C25.0001 15.8 26.2001 15.4 27.4001 15C27.6001 16.8 26.6001 18.2 24.8001 18.5Z" fill="white"/>
<path id="Vector_6" d="M66.3001 21.0996C65.9001 20.6996 65.8001 20.1996 65.8001 19.5996C65.8001 16.6996 65.8 13.8996 65.7 10.9996C65.6 9.49962 65.0001 8.1996 63.6001 7.29961C62.3001 6.39961 60.8001 6.29963 59.3001 6.19963C58.4001 6.09963 57.5001 6.19961 56.6001 6.29961C55.6001 6.49961 54.6 6.69959 53.7 7.09959C51.7 8.09959 51.4 9.89964 51.4 11.8996H56.4C56.6 11.4996 56.6001 10.9996 56.8001 10.5996C57.2001 9.89959 58.3 9.69964 59.2 9.89964C59.6 9.99964 60.1001 10.0996 60.1001 10.6996C60.1001 11.1996 59.9 11.5996 59.4 11.7996C58.9 11.9996 58.3001 12.1996 57.8001 12.2996C56.3001 12.6996 54.8001 12.8996 53.3001 13.2996C52.5001 13.4996 51.9001 13.9996 51.3001 14.6996C50.4001 15.7996 50.4001 17.0996 50.6001 18.2996C50.8001 19.6996 51.6 20.6996 53 21.0996C53.5 21.1996 54.1 21.2996 54.7 21.3996C56.7 21.6996 58.5001 21.4996 60.1001 20.0996C60.2001 20.3996 60.3 20.5996 60.5 20.8996C60.6 20.9996 60.8 21.1996 60.9 21.1996C62.7 21.1996 64.4001 21.1996 66.3001 21.1996C66.4001 21.2996 66.4001 21.1996 66.3001 21.0996ZM57.8001 18.3996C57.3001 18.4996 56.7001 18.2996 56.3001 17.9996C56.0001 17.7996 55.9001 17.0996 56.1001 16.7996C56.3001 16.3996 56.9 16.0996 57.4 15.8996C58.4 15.4996 59.4 15.2996 60.5 14.9996C60.3 16.4996 59.5001 18.1996 57.8001 18.3996Z" fill="white"/>
<path id="Vector_7" d="M66.7001 16.2999C68.5001 16.2999 70.2001 16.2999 72.0001 16.2999C72.2001 18.3999 73.8001 18.8 75.1001 18.4C75.6001 18.3 75.9001 18 75.9001 17.4C75.9001 16.8 75.5001 16.5 75.1001 16.4C74.0001 16.1 72.9001 15.8999 71.8001 15.5999C70.6001 15.2999 69.4001 14.9999 68.4001 14.0999C67.7001 13.4999 67.3001 12.7999 67.2001 11.9999C67.0001 10.0999 67.2001 7.99995 69.3001 6.89995C70.1001 6.49995 71.0001 6.1999 71.9001 6.0999C73.1001 5.9999 74.4001 5.9999 75.7001 6.0999C77.3001 6.1999 78.8001 6.59994 80.0001 7.69994C81.0001 8.59994 81.3001 9.79994 81.2001 11.1999C79.6001 11.1999 78.0001 11.1999 76.4001 11.1999C76.3001 11.1999 76.1001 10.9999 76.0001 10.7999C75.6001 9.29991 73.6001 9.19994 72.7001 9.69994C72.2001 9.99994 72.3001 10.6 72.8001 10.9C73.5001 11.2 74.3001 11.4999 75.1001 11.6999C76.3001 12.0999 77.5001 12.2999 78.7001 12.6999C81.4001 13.6999 81.9001 15.4999 81.3001 18.0999C80.8001 20.0999 79.3001 21.1 77.4001 21.4C76.1001 21.7 74.7001 21.7999 73.3001 21.7999C71.2001 21.6999 69.3001 21.1 67.7001 19.4C67.1001 18.8 66.6001 17.4999 66.7001 16.2999Z" fill="white"/>
<path id="Vector_8" d="M97.8001 11.8C97.2001 9.6 96.0001 7.90001 93.8001 7.00001C92.0001 6.20001 90.2001 6.10001 88.4001 6.50001C86.2001 6.90001 84.4001 8.10002 83.3001 10.2C82.2001 12.3 82.1001 14.5 82.7001 16.7C83.3001 18.9 84.6001 20.5 86.8001 21.4C88.4001 22.1 90.0001 22.2 91.7001 22C93.9001 21.7 95.6001 20.8 96.8001 19C97.8001 17.6 98.2001 16 98.2001 14.3C98.0001 13.4 98.0001 12.6 97.8001 11.8ZM92.3001 16.4C92.0001 17.5 91.3001 18 90.3001 18.1C89.5001 18.2 88.5001 17.4 88.2001 16.5C87.6001 14.9 87.7001 13.3 88.2001 11.8C88.5001 11 89.4001 10.1 90.4001 10.2C91.3001 10.3 92.0001 10.8 92.3001 11.9C92.5001 12.6 92.6001 13.4 92.8001 14.1C92.6001 14.9 92.5001 15.7 92.3001 16.4Z" fill="white"/>
<path id="Vector_9" d="M137.3 12.6C135.6 12.6 133.8 12.6 132.1 12.6C132.1 11.5 131.5 10.8 130.6 10.4C129.8 10 128.4 10.6 127.9 11.8C127.3 13.4 127.2 14.9 127.9 16.5C128.4 17.5 129.8 18.4 131.1 17.5C131.6 17.2 132.1 16.3 132.2 15.4C133.9 15.4 135.6 15.4 137.4 15.4C137.4 17 137 18.5 135.9 19.7C134.4 21.4 132.4 22 130.2 22.1C128.7 22.1 127.3 22 125.9 21.3C123.7 20.2 122.4 18.5 121.9 16.1C121.5 14.1 121.6 12 122.6 10.1C123.8 7.89999 125.6 6.80004 128 6.40004C129.8 6.10004 131.5 6.30004 133.2 6.90004C135.7 7.60004 137.7 10.2 137.3 12.6Z" fill="white"/>
<path id="Vector_10" d="M115.5 6.7998C117.3 6.7998 119.1 6.7998 120.9 6.7998C120.9 11.6998 120.9 16.4998 120.9 21.3998C119.1 21.3998 117.3 21.3998 115.5 21.3998C115.5 16.5998 115.5 11.7998 115.5 6.7998Z" fill="white"/>
<path id="Vector_11" d="M121 4.99982C119.2 4.99982 117.4 4.99982 115.6 4.99982C115.6 3.59982 115.6 2.1998 115.6 0.799805C117.4 0.799805 119.2 0.799805 121 0.799805C121 2.1998 121 3.59982 121 4.99982Z" fill="white"/>
</g>
</g>
<path id="Vector_12" fill-rule="evenodd" clip-rule="evenodd" d="M141 16.6997C139.8 16.6997 138.8 17.6997 138.8 18.8997C138.8 20.0997 139.8 21.0997 141 21.0997C142.2 21.0997 143.2 20.0997 143.2 18.8997C143.1 17.5997 142.2 16.6997 141 16.6997ZM141 20.7997C139.9 20.7997 139.1 19.8997 139.1 18.8997C139.1 17.7997 140 16.9997 141 16.9997C142.1 16.9997 142.9 17.8997 142.9 18.8997C142.9 19.8997 142 20.7997 141 20.7997Z" fill="white"/>
<path id="Vector_13" fill-rule="evenodd" clip-rule="evenodd" d="M142.1 18.2997C142.1 18.0997 142 17.8997 141.8 17.7997C141.6 17.6997 141.4 17.6997 141.2 17.6997H140.1V20.0997H140.4V18.9997H140.9L141.6 20.0997H142L141.3 18.9997C141.7 18.8997 142.1 18.6997 142.1 18.2997ZM140.9 18.6997H140.4V17.7997H141.1C141.4 17.7997 141.7 17.7997 141.7 18.1997C141.8 18.7997 141.2 18.6997 140.9 18.6997Z" fill="white"/>
</g>
</svg>
