<svg width="127" height="19" viewBox="0 0 127 19" fill="none" xmlns="http://www.w3.org/2000/svg">
<g id="XMLID_00000072255263814527862790000009045480892391818127_">
<path id="Vector" d="M119.5 15.5999V0.899902H116.7V7.49988C115.9 6.49988 113.9 5.79987 112.4 5.79987C107.8 5.79987 105.5 8.89988 105.5 11.9999C105.5 14.9999 107.5 18.2999 111.9 18.2999C113.8 18.2999 115.7 17.5999 116.7 16.2999C116.7 16.7999 117 17.5999 117.1 17.8999H119.8C119.6 17.1999 119.5 16.3999 119.5 15.5999ZM112.7 16.0999C109.8 16.0999 108.3 13.7999 108.3 11.9999C108.3 10.1999 109.7 7.69989 112.5 7.69989C114.9 7.69989 116.7 10.3999 116.7 11.9999C116.7 13.6999 115.1 16.0999 112.7 16.0999Z" fill="white"/>
<path id="Vector_2" d="M62.7 5.7998C62.6 5.7998 55.5 5.89979 55 12.0998C54.7 15.7998 57.9 18.2998 62.7 18.2998C67.5 18.2998 70.4 15.7998 70.4 12.0998C70.4 8.39979 67.2 5.9998 62.7 5.7998ZM62.7 16.2998C60 16.2998 58.2 13.8998 58.2 12.0998C58.2 10.1998 59.8 7.89984 62.7 7.89984C65.5 7.89984 67.1 10.1998 67.1 12.0998C67.2 13.8998 65.4 16.2998 62.7 16.2998Z" fill="white"/>
<path id="XMLID_00000129175499502252759710000017440388471199872950_" d="M74.8 0.899902H71.5V17.8999H74.8V0.899902Z" fill="white"/>
<path id="XMLID_00000147200974476791934360000014202238101606478756_" d="M94.0001 10.7999C94.1001 9.09987 96.9001 7.79987 98.3001 7.79987C100.5 7.79987 101 9.49987 101 10.7999V17.8999H103.8V10.1999C103.8 9.79989 103.8 8.99987 103.5 8.29987C102.9 6.59987 100.2 5.3999 98.7001 5.3999C96.5001 5.3999 94.9001 6.39988 94.0001 7.49988V5.69989H91.1001V17.9999H94.0001V10.7999Z" fill="white"/>
<path id="Vector_3" d="M89.1 16.5998V10.1998C89.1 6.59983 86.1 5.7998 83.1 5.7998C81.5 5.7998 79.9 5.99982 78.7 6.49982C77.5 6.99982 76.7 7.99982 76.7 9.49982H79.8C79.7 8.89982 80.8 7.7998 82.9 7.7998C84.5 7.7998 86 8.4998 86 9.2998V10.3998C84.2 10.3998 80.9 10.3998 79.2 11.0998C76.5 11.9998 76 13.9998 76 14.7998C76 17.0998 78.1 18.3998 80.9 18.3998C82.9 18.3998 85.3 17.8998 86.3 16.4998C86.3 16.9998 86.4 17.5998 86.5 17.9998H89.3C89.3 17.5998 89.2 17.1998 89.1 16.5998ZM86.1 12.6998C86 15.0998 84.4 15.9998 81.9 15.9998C80.7 15.9998 79.4 15.7998 79.5 14.1998C79.5 12.9998 81.8 11.8998 86.1 12.2998V12.6998Z" fill="white"/>
<path id="Vector_4" d="M53.4001 13.8999C53.0001 11.5999 53.3001 10.2999 51.1001 9.8999C53.7001 9.4999 54.2001 7.5999 54.2001 5.3999C54.2001 1.8999 50.7001 0.999902 47.1001 0.899902H38.8V17.8999H42.2001V10.5999H47.8C49.3 10.5999 50.3001 12.3999 50.4001 13.2999C50.6001 14.7999 50.8001 16.3999 51.2001 17.7999H54.7001C53.8001 16.9999 53.6001 14.9999 53.4001 13.8999ZM47.8 8.19989H42.2001V3.29987H47.8C49.8 3.29987 51.0001 4.29987 51.0001 5.79987C51.0001 7.39987 49.8 8.19989 47.8 8.19989Z" fill="white"/>
<path id="XMLID_00000057837002797740435200000005325100974406183301_" d="M0.400055 1H31.1001C34.3001 1.1 36.6 2.90002 36.8 6.40002C36.7001 9.60002 34.7001 11.7 31.1001 11.8H12.5001V12.8H36.6001V14.7H10.6001V10H31.0001C33.5001 9.9 34.7001 8.80002 34.9001 6.40002C34.7001 3.90002 33.2001 2.89999 31.0001 2.79999H2.20007V17.7H0.300049V1H0.400055Z" fill="white"/>
<path id="Vector_5" d="M11.3 15.9997C8.90005 15.8997 7.20005 15.0997 6.80005 12.7997C6.80005 9.99968 8.90005 8.99972 11.3 8.89972H31.2001V4.19971H3.70007V17.6997H5.60007V14.8997C6.70007 17.0997 9.10005 17.7997 11.4001 17.8997H36.6001V15.9997H11.3ZM5.50006 10.0997V5.99969H29.4001V7.09967H11.3C9.00005 7.09967 6.70006 7.89967 5.50006 10.0997Z" fill="white"/>
<path id="Vector_6" d="M125.1 2.69971C125.1 2.39971 125.1 2.29971 124.9 2.19971C125.1 1.99971 125.1 1.99971 125.1 1.69971C125.1 1.29971 124.8 1.19971 124.5 1.19971H123.6V3.19971H123.8V2.29968H124.5C124.9 2.29968 124.8 2.59972 124.8 2.89972V3.09967H125.1C125.1 2.99967 125.2 2.89971 125.1 2.69971ZM124.5 2.09967H123.8V1.39972H124.5C124.6 1.39972 124.9 1.39968 124.9 1.79968C124.9 1.99968 124.7 2.09967 124.5 2.09967Z" fill="white"/>
<path id="Vector_7" d="M124.3 0.399902C123.3 0.399902 122.5 1.19989 122.5 2.19989C122.5 3.19989 123.3 3.99988 124.3 3.99988C125.3 3.99988 126.1 3.19989 126.1 2.19989C126.1 1.19989 125.3 0.399902 124.3 0.399902ZM124.3 3.79987C123.4 3.79987 122.7 3.09989 122.7 2.19989C122.7 1.29989 123.4 0.599854 124.2 0.599854C125.1 0.599854 125.8 1.29989 125.8 2.19989C125.9 3.09989 125.2 3.79987 124.3 3.79987Z" fill="white"/>
<path id="Vector_8" d="M125.1 2.69971C125.1 2.39971 125.1 2.29971 124.9 2.19971C125.1 1.99971 125.1 1.99971 125.1 1.69971C125.1 1.29971 124.8 1.19971 124.5 1.19971H123.6V3.19971H123.8V2.29968H124.5C124.9 2.29968 124.8 2.59972 124.8 2.89972V3.09967H125.1C125.1 2.99967 125.2 2.89971 125.1 2.69971ZM124.5 2.09967H123.8V1.39972H124.5C124.6 1.39972 124.9 1.39968 124.9 1.79968C124.9 1.99968 124.7 2.09967 124.5 2.09967Z" fill="white"/>
<path id="Vector_9" d="M125.1 2.69971C125.1 2.39971 125.1 2.29971 124.9 2.19971C125.1 1.99971 125.1 1.99971 125.1 1.69971C125.1 1.29971 124.8 1.19971 124.5 1.19971H123.6V3.19971H123.8V2.29968H124.5C124.9 2.29968 124.8 2.59972 124.8 2.89972V3.09967H125.1C125.1 2.99967 125.2 2.89971 125.1 2.69971ZM124.5 2.09967H123.8V1.39972H124.5C124.6 1.39972 124.9 1.39968 124.9 1.79968C124.9 1.99968 124.7 2.09967 124.5 2.09967Z" fill="white"/>
</g>
</svg>
