<svg width="107" height="19" viewBox="0 0 107 19" fill="none" xmlns="http://www.w3.org/2000/svg">
<g id="Group">
<path id="Vector" fill-rule="evenodd" clip-rule="evenodd" d="M104.5 15.1001C103.6 15.1001 102.9 15.8001 102.9 16.7001C102.9 17.6001 103.6 18.3001 104.5 18.3001C105.4 18.3001 106.1 17.6001 106.1 16.7001C106.1 15.8001 105.4 15.1001 104.5 15.1001ZM104.5 18.1001C103.7 18.1001 103.1 17.5001 103.1 16.7001C103.1 15.9001 103.7 15.3001 104.5 15.3001C105.3 15.3001 105.9 15.9001 105.9 16.7001C105.9 17.5001 105.3 18.1001 104.5 18.1001Z" fill="white"/>
<path id="Vector_2" fill-rule="evenodd" clip-rule="evenodd" d="M105.3 16.3003C105.3 16.1003 105.2 16.0003 105.1 15.9003C105 15.8003 104.8 15.8003 104.7 15.8003H103.9V17.6003H104.1V16.8003H104.5L105 17.6003H105.3L104.8 16.8003C105.1 16.7003 105.3 16.6003 105.3 16.3003ZM104.5 16.6003H104.2V16.0003H104.7C104.9 16.0003 105.2 16.0003 105.2 16.3003C105.1 16.6003 104.7 16.6003 104.5 16.6003Z" fill="white"/>
<path id="Vector_3" fill-rule="evenodd" clip-rule="evenodd" d="M95.1002 7.50031L98.4001 4.00031C98.6001 3.70031 98.7002 3.60033 98.7002 3.40033C98.7002 3.10033 98.5001 3.00031 97.8001 3.00031H97.0002V0.800293H106V3.00031H104.8C103.4 3.00031 103.2 3.20028 101.3 5.60028L96.1002 11.2003V14.6003C96.1002 15.5003 96.5001 15.8003 97.8001 15.8003H99.8001V17.9003H87.0002V15.8003H89.0002C90.3002 15.8003 90.7002 15.5003 90.7002 14.6003V11.2003L84.6002 4.40033C83.6002 3.20033 83.7001 3.00031 80.9001 3.00031V0.800293H92.3001V3.00031H91.5002C90.7002 3.00031 90.3001 3.20031 90.3001 3.50031C90.3001 3.80031 90.6002 4.00032 90.7002 4.20032L93.8001 7.60028C94.2001 8.00028 94.6002 8.00031 95.1002 7.50031Z" fill="white"/>
<path id="Vector_4" fill-rule="evenodd" clip-rule="evenodd" d="M18.6001 0.800171H21.4001V7.00018H18.9001C18.7001 5.80018 17.9001 5.30016 17.2001 4.60016C15.9001 3.40016 13.2001 2.50018 10.8001 2.50018C7.80008 2.50018 5.30008 3.40017 5.30008 4.80017C5.30008 8.60017 22.5001 5.60017 22.5001 12.8002C22.5001 16.5002 18.8001 18.6002 12.2001 18.6002C9.9001 18.6002 6.50009 17.9002 4.40009 16.8002C3.80009 16.4002 3.50009 17.1002 3.40009 18.0002H0.600098V11.6002H3.2001C3.8001 13.2002 4.50008 13.6002 5.30008 14.2002C6.50008 15.3002 9.5001 16.2002 12.2001 16.1002C16.3001 16.1002 17.7001 15.2002 17.7001 13.9002C17.7001 12.6002 16.3001 12.3002 11.9001 11.6002L8.1001 11.0002C3.8001 10.4002 0.700104 9.40018 0.700104 6.00018C0.700104 2.50018 4.60009 0.200195 10.9001 0.200195C13.5001 0.200195 15.7001 0.600195 17.8001 1.7002C18.0001 2.2002 18.6001 2.30017 18.6001 0.800171Z" fill="white"/>
<path id="Vector_5" fill-rule="evenodd" clip-rule="evenodd" d="M72.2001 11.2L72.3 4.29999C72.3 3.39999 71.8001 3.09998 70.5001 3.09998H68.9001V1H78.9001V3.09998H77.6001C76.3001 3.09998 75.8 3.39999 75.8 4.29999V18.2H71.9001L59.2001 6.09998V14.9C59.2001 15.8 59.7001 16.1 61.0001 16.1H62.7001V18.2H52.3V16.1H54.0001C55.3001 16.1 55.8 15.8 55.8 14.9V4.40002C55.8 3.50002 55.3001 3.20001 54.0001 3.20001H52.3V1H61.3L72.2001 11.2Z" fill="white"/>
<path id="Vector_6" fill-rule="evenodd" clip-rule="evenodd" d="M38.6001 0.200195C30.6001 0.200195 25.6001 3.70021 25.6001 9.40021C25.6001 15.0002 30.5001 18.5002 38.4001 18.5002C46.7001 18.5002 51.6001 15.0002 51.6001 9.10016C51.5001 3.80016 46.3001 0.200195 38.6001 0.200195ZM38.4001 16.2002C34.0001 16.2002 31.4001 13.6002 31.4001 9.2002C31.4001 4.9002 34.1001 2.30017 38.6001 2.30017C43.0001 2.30017 45.5001 4.90021 45.5001 9.40021C45.5001 13.8002 42.9001 16.2002 38.4001 16.2002Z" fill="white"/>
</g>
</svg>
