<svg width="127" height="23" viewBox="0 0 127 23" fill="none" xmlns="http://www.w3.org/2000/svg">
<g id="Group">
<path id="Vector" fill-rule="evenodd" clip-rule="evenodd" d="M20.2 9.2002L10.9 5.40021H23.5L24.2 0.200195H7.59998C4.59998 0.200195 1.80002 2.90021 1.90002 5.90021C2.00002 8.10021 2.99998 9.70016 5.09998 10.6002L14.2 14.4002H0.900024L0.199951 19.7002H16.5C19.9 19.7002 22.8 17.9002 23.4 14.4002C23.7 11.7002 22.7 10.2002 20.2 9.2002Z" fill="white"/>
<path id="Vector_2" fill-rule="evenodd" clip-rule="evenodd" d="M24 19.7002H33.4L34.2 13.0002H37.2L36.3 19.7002H45.7L48.1 0.200195H38.8L37.9 7.00018H35L35.8 0.200195H26.4L24 19.7002Z" fill="white"/>
<path id="Vector_3" fill-rule="evenodd" clip-rule="evenodd" d="M71.3 10.5002C71.1 12.6002 70.0999 14.3002 68.6999 16.0002C67.6999 17.3002 66.3 18.3002 64.8 19.1002C63.1 20.0002 61.4 20.3002 59.5 20.5002C56.7 20.7002 54.3999 20.2002 52.1999 18.5002C50.9999 17.6002 50 16.2002 49.5 14.8002C49.1 13.6002 49.2 12.5002 49.4 11.2002L50.8 0.200195H60.4L58.6999 13.7002H61.1999L62.9 0.200195H72.5999L71.3 10.5002Z" fill="white"/>
<path id="Vector_4" fill-rule="evenodd" clip-rule="evenodd" d="M80.9 19.7002H72.7L74.2 7.7002H87.6L87.9 5.40021H74.4L75 0.200195H91.7C98.2 0.200195 98.3 9.50016 90.9 11.1002L97.8 14.8002L99.6 0.200195H120.3L119.8 4.7002H108.7L108.4 7.40021H119.6L119 12.7002H107.7L107.4 15.3002H118.6L118.1 19.8002H97.2L96.9 22.6002L81.6 13.3002L80.9 19.7002Z" fill="white"/>
<path id="Vector_5" fill-rule="evenodd" clip-rule="evenodd" d="M124.5 2.00037H124.2V2.70038H124.6C124.8 2.70038 124.9 2.70034 125 2.60034C125.1 2.50034 125.1 2.50035 125.1 2.30035C125.1 2.20035 125.1 2.10037 125 2.00037C124.9 2.00037 124.7 2.00037 124.5 2.00037ZM124.6 1.70038C124.9 1.70038 125.1 1.80039 125.3 1.90039C125.5 2.00039 125.5 2.20039 125.5 2.40039C125.5 2.60039 125.5 2.70035 125.4 2.80035C125.3 2.90035 125.2 3.00037 125 3.00037L125.5 4.00037H125L124.5 3.00037H124.1V4.00037H123.7V1.80035H124.6V1.70038ZM126.3 2.90039C126.3 2.70039 126.3 2.40038 126.2 2.20038C126.1 2.00038 126 1.80034 125.8 1.60034C125.6 1.40034 125.4 1.30038 125.2 1.20038C125 1.10038 124.8 1.10034 124.5 1.10034C124.3 1.10034 124 1.10038 123.8 1.20038C123.6 1.30038 123.4 1.40034 123.3 1.60034C123.1 1.80034 123 2.00038 122.9 2.20038C122.8 2.40038 122.8 2.60039 122.8 2.90039C122.8 3.10039 122.8 3.30037 122.9 3.50037C123 3.70037 123.1 3.90034 123.3 4.10034C123.5 4.30034 123.6 4.40037 123.9 4.50037C124.1 4.60037 124.3 4.60034 124.5 4.60034C124.7 4.60034 125 4.60037 125.2 4.50037C125.4 4.40037 125.6 4.30034 125.8 4.10034C126 3.90034 126.1 3.80034 126.2 3.60034C126.2 3.30034 126.3 3.10039 126.3 2.90039ZM124.5 0.900391C124.8 0.900391 125 1.00034 125.3 1.10034C125.5 1.20034 125.8 1.30037 125.9 1.50037C126.1 1.70037 126.2 1.90034 126.3 2.10034C126.4 2.30034 126.4 2.60039 126.4 2.90039C126.4 3.20039 126.4 3.40038 126.3 3.70038C126.2 3.90038 126.1 4.10035 125.9 4.30035C125.7 4.50035 125.5 4.60038 125.2 4.70038C125 4.80038 124.7 4.90039 124.4 4.90039C124.1 4.90039 123.9 4.80038 123.6 4.70038C123.4 4.60038 123.1 4.50035 123 4.30035C122.8 4.10035 122.7 3.90038 122.6 3.70038C122.5 3.50038 122.5 3.20037 122.5 3.00037C122.5 2.70037 122.6 2.50038 122.7 2.20038C122.8 2.00038 123 1.70037 123.1 1.50037C123.3 1.30037 123.5 1.20034 123.7 1.10034C124 0.900342 124.3 0.900391 124.5 0.900391Z" fill="white"/>
</g>
</svg>
