<svg width="185" height="33" viewBox="0 0 185 33" fill="none" xmlns="http://www.w3.org/2000/svg">
<g id="DWSBVI_00000048465081153857466900000009936054434508965805_">
<g id="Group">
<path id="Vector" d="M184.7 26.4C183.6 26.4 182.6 26.4 181.5 26.4C180.9 26.4 180.2 26.4 179.6 26.4C179.5 26.4 179.4 26.4 179.2 26.4C179.1 26.3 179 26.2 178.9 26.1C177.1 23.8 175.4 21.4 173.6 19.1C173.3 18.7 173.4 18.8 172.9 18.7C172.6 18.7 172.4 18.7 172.1 18.7C172 18.7 171.9 18.7 171.8 18.7C171.8 18.9 171.8 19 171.8 19.2C171.8 21.4 171.8 23.7 171.8 25.9C171.8 26 171.8 26.2 171.8 26.3C171.5 26.3 168 26.4 167.5 26.3C167.5 26.2 167.5 26.2 167.5 26.1C167.5 26 167.5 25.9 167.5 25.8C167.5 19.5 167.5 13.3 167.5 7C167.5 6.9 167.5 6.7 167.5 6.5C167.6 6.5 167.7 6.5 167.7 6.5C169 6.5 170.3 6.5 171.6 6.5C171.7 6.5 171.7 6.5 171.8 6.5C171.8 6.6 171.8 6.60001 171.8 6.70001C171.8 6.90001 171.8 7.00001 171.8 7.20001C171.8 9.50001 171.8 11.8 171.8 14.1C171.8 14.2 171.8 14.4 171.8 14.5C171.9 14.5 172 14.4 172 14.3C172.6 13.6 173.1 12.8 173.7 12.1C175.1 10.3 176.4 8.50001 177.8 6.70001C177.9 6.60001 177.9 6.5 178 6.5C178 6.5 178 6.5 178.1 6.5C179.8 6.5 181.5 6.5 183.2 6.5C183.3 6.5 183.3 6.5 183.4 6.5C183.4 6.6 183.3 6.69999 183.2 6.79999C182.2 8.09999 181.2 9.40001 180.3 10.7C179.1 12.2 178 13.8 176.8 15.3C176.7 15.4 176.6 15.5 176.6 15.6C176.6 15.8 176.7 15.8 176.8 16C178.8 18.6 180.7 21.2 182.7 23.8C183.3 24.6 183.9 25.3 184.4 26.1C184.4 26.1 184.4 26.1 184.5 26.1C184.7 26.3 184.7 26.4 184.7 26.4Z" fill="white"/>
<path id="Vector_2" d="M44.9001 21.8998C44.8001 21.7998 44.8 21.7998 44.7 21.6998C43.3 20.1998 41.7001 19.2998 39.8001 18.8998C39.2001 18.7998 38.7 18.6998 38.1 18.6998C35.3 18.6998 32.7 19.2998 30.3 20.6998C27.8 22.0998 25.9 24.0998 24.6 26.5998C23.8 28.0998 23.2 29.6998 23 31.3998C22.9 31.8998 22.9 32.2998 22.8 32.7998C22.7 32.7998 22.7001 32.6998 22.7001 32.5998C22.6001 31.7998 22.5 31.0998 22.3 30.2998C21.9 28.4998 21.1 26.8998 20.1 25.2998C18.8 23.3998 17.1 21.7998 15.1 20.6998C13.6 19.7998 12 19.2998 10.3 18.8998C9.20003 18.6998 8.20002 18.5998 7.10002 18.6998C5.60002 18.7998 4.20007 19.1998 2.90007 19.9998C2.10007 20.4998 1.40006 21.0998 0.700057 21.6998C0.600057 21.7998 0.600045 21.7998 0.500045 21.8998C0.400045 21.6998 0.50002 21.6998 0.60002 21.5998C1.10002 20.7998 1.70006 19.8998 2.20006 19.0998C4.30006 15.9998 6.40004 12.7998 8.50004 9.69983C8.60005 9.59983 8.60003 9.3998 8.80003 9.2998C10.5 13.0998 13.2 15.7998 17 17.3998C20.8 18.9998 24.7 18.9998 28.5 17.3998C32.3 15.7998 35 13.0998 36.7 9.2998H36.8001C39.5001 13.3998 42.3 17.4998 45 21.5998C44.9 21.7998 44.9001 21.7998 44.9001 21.8998Z" fill="white"/>
<path id="Vector_3" d="M88.9001 6.7002C89.0001 6.7002 89.2001 6.7002 89.3001 6.7002C92.1001 6.7002 94.9 6.7002 97.7 6.7002C98.5 6.7002 99.3 6.80016 100.1 7.10016C102.2 8.00016 103.5 9.5002 103.9 11.7002C104.4 14.8002 102.5 17.5002 99.9001 18.4002C99.8001 18.4002 99.6001 18.5002 99.5001 18.6002C99.7001 19.0002 100 19.3002 100.2 19.6002C100.4 19.9002 100.7 20.3002 100.9 20.6002C101.1 20.9002 101.4 21.2002 101.6 21.6002C101.8 21.9002 102.1 22.2002 102.3 22.6002C102.5 23.0002 102.8 23.2002 103 23.6002C103.2 23.9002 103.5 24.3002 103.7 24.6002C103.9 24.9002 104.2 25.2002 104.4 25.6002C104.6 25.9002 104.9 26.2002 105.1 26.6002C105 26.6002 105 26.6002 105 26.6002C103.3 26.6002 101.5 26.6002 99.7 26.6002C97.6 23.7002 95.5001 20.8002 93.4001 17.9002C93.4001 18.0002 93.3001 18.0002 93.3001 18.1002C93.3001 18.2002 93.3001 18.3002 93.3001 18.4002C93.3001 21.0002 93.3001 23.5002 93.3001 26.1002C93.3001 26.2002 93.3001 26.4002 93.3001 26.5002C93.3001 26.5002 93.3 26.5002 93.2 26.6002C91.9 26.6002 90.5 26.6002 89.2 26.6002C89.1 26.6002 89.1001 26.6002 89.0001 26.6002C89.0001 26.6002 89.0001 26.5002 89.0001 26.4002C88.9001 25.2002 88.9001 7.0002 88.9001 6.7002ZM93.3001 11.1002C93.3001 11.2002 93.3001 11.2002 93.3001 11.3002C93.3001 12.3002 93.3001 13.2002 93.3001 14.2002C93.3001 14.3002 93.3001 14.3002 93.3001 14.4002C93.4001 14.4002 93.6 14.4002 93.7 14.4002C95 14.4002 96.3 14.4002 97.6 14.4002C97.7 14.4002 97.8001 14.4002 97.9001 14.4002C98.7001 14.4002 99.3001 13.8002 99.4001 13.0002C99.5001 12.2002 99.0001 11.5002 98.3001 11.2002C98.1001 11.1002 97.9 11.1002 97.7 11.1002C96.3 11.1002 94.9001 11.1002 93.5001 11.1002C93.6001 11.1002 93.5001 11.1002 93.3001 11.1002Z" fill="white"/>
<path id="Vector_4" d="M129.7 6.7002C129.9 6.7002 130 6.7002 130.1 6.7002C132.5 6.7002 134.9 6.7002 137.2 6.7002C138.6 6.7002 139.9 7.00018 141.1 7.50018C144.1 8.80018 146.3 11.6002 146.9 14.8002C147.5 18.2002 146.4 21.5002 143.9 23.9002C142.4 25.3002 140.6 26.1002 138.5 26.4002C138.1 26.5002 137.7 26.5002 137.3 26.5002C134.9 26.5002 132.5 26.5002 130.1 26.5002C130 26.5002 129.9 26.5002 129.8 26.5002C129.8 26.4002 129.8 26.4002 129.8 26.3002C129.8 26.2002 129.8 26.1002 129.8 26.0002C129.8 19.8002 129.8 13.5002 129.8 7.30017C129.7 7.00017 129.7 6.9002 129.7 6.7002ZM134.2 22.0002C134.3 22.0002 134.4 22.0002 134.5 22.0002C135.4 22.0002 136.3 22.0002 137.2 22.0002C137.5 22.0002 137.9 22.0002 138.2 21.9002C141.1 21.4002 143.2 18.6002 142.5 15.5002C142 13.0002 139.8 11.2002 137.2 11.1002C136.2 11.1002 135.3 11.1002 134.3 11.1002C134.2 11.1002 134.2 11.1002 134.1 11.1002C134.1 11.2002 134.1 11.3002 134.1 11.4002C134.1 13.9002 134.1 21.5002 134.2 22.0002Z" fill="white"/>
<path id="Vector_5" d="M121 23.2001C118.3 23.2001 115.6 23.2001 112.9 23.2001C112.4 24.3001 112 25.4002 111.5 26.4002C111.2 26.4002 107.2 26.5002 106.8 26.4002C106.8 26.3002 106.9 26.1001 106.9 26.0001C107.5 24.6001 108.1 23.3002 108.7 21.9002C110.8 16.9002 112.9 12.0001 115.1 7.00013C115.2 6.90013 115.2 6.80011 115.3 6.60011C115.6 6.60011 119.6 6.50011 120 6.60011C120.1 6.70011 120 6.80016 119.9 6.90016C119.3 8.40016 118.7 9.80012 118 11.3001C117 13.6001 116 15.9001 115 18.3001C114.9 18.4001 114.9 18.5001 114.9 18.7001C115.1 18.8001 115.2 18.7001 115.3 18.7001C116.5 18.7001 117.7 18.7001 118.9 18.7001C120.4 18.7001 122 18.7001 123.5 18.7001C123.6 18.7001 123.8 18.7001 123.9 18.7001C124.5 20.0001 125 21.3001 125.5 22.5001C126 23.8001 126.6 25.0001 127.1 26.3001V26.4002C127 26.4002 127 26.4002 126.9 26.4002C125.4 26.4002 124 26.4002 122.5 26.4002C122.4 26.3002 122.4 26.2001 122.3 26.1001C121.9 25.2001 121.6 24.4001 121.2 23.5001C121.1 23.4001 121.1 23.3001 121 23.2001Z" fill="white"/>
<path id="Vector_6" d="M68.1001 6.69982C67.7001 8.19982 67.4001 9.5998 67.1001 10.9998C66.9001 11.0998 66.8001 11.0998 66.7001 11.0998C65.1001 11.0998 63.6001 11.0998 62.0001 11.0998C61.9001 11.0998 61.7001 11.0998 61.5001 11.1998C61.5001 16.2998 61.5001 21.3998 61.5001 26.4998C61.4001 26.4998 61.4002 26.4998 61.3002 26.4998C59.9002 26.4998 58.5001 26.4998 57.1001 26.4998C57.1001 26.3998 57.1001 26.2998 57.1001 26.2998C57.1001 26.1998 57.1001 26.0998 57.1001 25.8998C57.1001 21.0998 57.1001 16.2998 57.1001 11.5998C57.1001 11.4998 57.1001 11.2998 57.1001 11.1998C57.0001 11.0998 56.8001 11.0998 56.7001 11.0998C55.8001 11.0998 55.0001 11.0998 54.1001 11.0998C53.0001 11.0998 52.0001 11.0998 50.9001 11.0998C50.8001 11.0998 50.6001 11.0998 50.5001 11.0998C50.4001 10.9998 50.4001 10.9998 50.5001 10.8998C50.8001 9.59983 51.1001 8.2998 51.5001 6.9998C51.5001 6.8998 51.5001 6.89979 51.6001 6.79979C51.7001 6.79979 51.8001 6.79979 51.9001 6.79979C52.0001 6.79979 52.0001 6.79979 52.1001 6.79979C57.3001 6.79979 62.5001 6.79979 67.7001 6.79979C67.7001 6.59979 67.9001 6.69982 68.1001 6.69982Z" fill="white"/>
<path id="Vector_7" d="M75.6 18.6998C75.5 19.0998 75.5 21.5998 75.6 21.8998C75.7 21.8998 75.7001 21.8998 75.8001 21.8998C75.9001 21.8998 76 21.8998 76.1 21.8998C78.9 21.8998 81.7001 21.8998 84.5001 21.8998C84.6001 21.8998 84.8001 21.8998 85.0001 21.8998C85.1001 22.2998 85.0001 22.5998 85.0001 22.9998C85.0001 23.3998 85.0001 23.6998 85.0001 24.0998C85.0001 24.4998 85.0001 24.7998 85.0001 25.1998C85.0001 25.5998 85.0001 25.8998 85.0001 26.2998C84.9001 26.2998 84.8001 26.2998 84.8001 26.2998C84.7001 26.2998 84.6001 26.2998 84.5001 26.2998C80.2001 26.2998 75.9 26.2998 71.6 26.2998C71.5 26.2998 71.3 26.2998 71.1 26.2998C71.1 26.1998 71.1 26.0998 71.1 26.0998C71.1 25.9998 71.1 25.9998 71.1 25.8998C71.1 22.1998 71.1 18.3998 71.1 14.6998C71.1 14.5998 71.1 14.3998 71.1 14.2998C71.2 14.2998 71.3001 14.2998 71.3001 14.2998C71.4001 14.2998 71.5 14.2998 71.6 14.2998C75.6 14.2998 79.6001 14.2998 83.5001 14.2998C83.6001 14.2998 83.8001 14.2998 83.9001 14.2998C83.9001 14.3998 83.9001 14.3998 83.9001 14.4998C83.9001 14.8998 83.9001 18.4998 83.9001 18.6998C83.8001 18.6998 83.8 18.6998 83.7 18.6998C83.6 18.6998 83.5001 18.6998 83.4001 18.6998C80.9001 18.6998 78.4001 18.6998 76.0001 18.6998C75.9001 18.6998 75.8 18.6998 75.6 18.6998Z" fill="white"/>
<path id="Vector_8" d="M164 22.0002C164 22.5002 164 26.0002 164 26.3002C163.9 26.3002 163.9 26.3002 163.8 26.3002C163.7 26.3002 163.6 26.3002 163.5 26.3002C159.2 26.3002 154.9 26.3002 150.6 26.3002C150.5 26.3002 150.3 26.3002 150.1 26.3002C150.1 26.2002 150.1 26.1002 150.1 26.1002C150.1 26.0002 150.1 25.9002 150.1 25.8002C150.1 22.1002 150.1 18.4002 150.1 14.7002C150.1 14.6002 150.1 14.4002 150.1 14.2002C150.2 14.2002 150.3 14.2002 150.3 14.2002C150.4 14.2002 150.5 14.2002 150.6 14.2002C154.6 14.2002 158.6 14.2002 162.5 14.2002C162.6 14.2002 162.8 14.2002 163 14.2002C163 14.3002 163 14.3002 163 14.4002C163 15.2002 163 18.3002 163 18.6002C162.9 18.6002 162.9 18.6002 162.8 18.6002C162.7 18.6002 162.6 18.6002 162.5 18.6002C160 18.6002 157.5 18.6002 155.1 18.6002C155 18.6002 154.8 18.6002 154.6 18.6002C154.6 18.7002 154.6 18.8002 154.6 18.8002C154.6 19.7002 154.6 20.7002 154.6 21.6002C154.6 21.7002 154.6 21.7002 154.6 21.8002C154.7 21.8002 154.8 21.8002 154.8 21.8002C154.9 21.8002 155 21.8002 155.1 21.8002C157.9 21.8002 160.7 21.8002 163.5 21.8002C163.7 22.0002 163.8 22.0002 164 22.0002Z" fill="white"/>
<path id="Vector_9" d="M18.9001 11.4C20.1001 7.60002 21.3001 3.8 22.5001 0C22.5001 0 22.6 -2.44156e-05 22.6 0.0999756C23.8 3.79998 25.0001 7.59999 26.2001 11.3V11.4C25.9001 11.7 22.8 14.8 22.6 15L22.5001 14.9C21.3001 14 19.1001 11.7 18.9001 11.4Z" fill="white"/>
<path id="Vector_10" d="M75.6 6.7002C75.7 6.7002 75.7001 6.7002 75.8001 6.7002C78.9001 6.7002 81.9001 6.7002 85.0001 6.7002C85.0001 6.8002 85.0001 6.80021 85.0001 6.90021C85.0001 8.20021 85.0001 9.60021 85.0001 10.9002V11.0002C84.9001 11.0002 84.9001 11.0002 84.8001 11.0002C84.7001 11.0002 84.6001 11.0002 84.5001 11.0002C81.7001 11.0002 78.8001 11.0002 76.0001 11.0002C75.9001 11.0002 75.7 11.0002 75.6 11.0002C75.6 10.9002 75.6 10.9002 75.6 10.8002C75.6 9.50017 75.6 8.10017 75.6 6.80017V6.7002Z" fill="white"/>
<path id="Vector_11" d="M163.9 6.6001C164 6.9001 164 10.5001 163.9 11.0001C163.8 11.0001 163.8 11.0001 163.7 11.0001C163.6 11.0001 163.5 11.0001 163.4 11.0001C160.6 11.0001 157.8 11.0001 154.9 11.0001C154.8 11.0001 154.6 11.0001 154.4 11.0001C154.4 10.9001 154.4 10.9001 154.4 10.8001C154.4 9.50011 154.4 8.10011 154.4 6.80011V6.70013C154.5 6.70013 154.5 6.70013 154.6 6.70013C154.7 6.70013 154.8 6.70013 154.9 6.70013C157.7 6.70013 160.6 6.70013 163.4 6.70013C163.7 6.60013 163.8 6.6001 163.9 6.6001Z" fill="white"/>
</g>
</g>
</svg>
