<svg width="151" height="156" viewBox="0 0 151 156" fill="none" xmlns="http://www.w3.org/2000/svg">
<g id="Group">
<g id="Group_2">
<g id="Group_3">
<path id="Vector" d="M75.2997 0.800049C68.5997 0.800049 63.0996 6.3 63.0996 13V143.4C63.0996 150.1 68.5997 155.6 75.2997 155.6C81.9997 155.6 87.4996 150.1 87.4996 143.4V13C87.4996 6.3 81.9997 0.800049 75.2997 0.800049ZM80.5996 143.4C80.5996 146.3 78.1997 148.7 75.2997 148.7C72.3997 148.7 69.9996 146.3 69.9996 143.4V13C69.9996 10.1 72.3997 7.69995 75.2997 7.69995C78.1997 7.69995 80.5996 10.1 80.5996 13V143.4Z" fill="#E98F2D"/>
</g>
<g id="Group_4">
<path id="Vector_2" d="M43.6995 26.3999C36.9995 26.3999 31.4995 31.9001 31.4995 38.6001V117.8C31.4995 124.5 36.9995 130 43.6995 130C50.3995 130 55.8995 124.5 55.8995 117.8V38.6001C55.8995 31.9001 50.4995 26.3999 43.6995 26.3999ZM48.9995 117.8C48.9995 120.7 46.5995 123.1 43.6995 123.1C40.7995 123.1 38.3995 120.7 38.3995 117.8V38.6001C38.3995 35.7001 40.7995 33.3 43.6995 33.3C46.5995 33.3 48.9995 35.7001 48.9995 38.6001V117.8Z" fill="#E98F2D"/>
</g>
<g id="Group_5">
<path id="Vector_3" d="M12.1995 54.8999C5.49946 54.8999 -0.000488281 60.4001 -0.000488281 67.1001V89.2C-0.000488281 95.9 5.49946 101.4 12.1995 101.4C18.8995 101.4 24.3995 95.9 24.3995 89.2V67.1001C24.2995 60.4001 18.8995 54.8999 12.1995 54.8999ZM17.3995 89.3C17.3995 92.2001 14.9995 94.6001 12.0995 94.6001C9.19949 94.6001 6.79956 92.2001 6.79956 89.3V67.2C6.79956 64.3 9.19949 61.8999 12.0995 61.8999C14.9995 61.8999 17.3995 64.3 17.3995 67.2V89.3Z" fill="#E98F2D"/>
</g>
<g id="Group_6">
<path id="Vector_4" d="M138.5 53C131.8 53 126.3 58.5 126.3 65.2V91.3C126.3 98 131.8 103.5 138.5 103.5C145.2 103.5 150.7 98 150.7 91.3V65.2C150.6 58.4 145.2 53 138.5 53ZM143.7 91.2C143.7 94.1 141.3 96.5 138.4 96.5C135.5 96.5 133.1 94.1 133.1 91.2V65.1001C133.1 62.2001 135.5 59.8 138.4 59.8C141.3 59.8 143.7 62.2001 143.7 65.1001V91.2Z" fill="#E98F2D"/>
</g>
<g id="Group_7">
<path id="Vector_5" d="M106.899 26.3999C100.199 26.3999 94.6992 31.9001 94.6992 38.6001V117.8C94.6992 124.5 100.199 130 106.899 130C113.599 130 119.099 124.5 119.099 117.8V38.6001C119.099 31.9001 113.599 26.3999 106.899 26.3999ZM112.099 117.8C112.099 120.7 109.699 123.1 106.799 123.1C103.899 123.1 101.499 120.7 101.499 117.8V38.6001C101.499 35.7001 103.899 33.3 106.799 33.3C109.699 33.3 112.099 35.7001 112.099 38.6001V117.8Z" fill="#E98F2D"/>
</g>
</g>
</g>
</svg>
