<svg width="253" height="54" viewBox="0 0 253 54" fill="none" xmlns="http://www.w3.org/2000/svg">
<path id="Vector" d="M236.4 21.6999C227.8 21.6999 220.8 28.6999 220.8 37.2999C220.8 45.8999 227.8 52.8999 236.4 52.8999C240.6 52.8999 244.5 51.2999 247.5 48.2999C250.4 45.3999 252.1 41.4999 252.1 37.2999C252 28.6999 245 21.6999 236.4 21.6999ZM246.3 47.2999C243.7 49.8999 240.1 51.3999 236.3 51.3999C228.5 51.3999 222.2 45.0999 222.2 37.2999C222.2 29.4999 228.5 23.1999 236.3 23.1999C244.1 23.1999 250.4 29.4999 250.4 37.2999C250.5 41.0999 249 44.5999 246.3 47.2999ZM236.4 29.0999C234.2 29.0999 232.2 29.8999 230.6 31.4999C229 33.0999 228.2 35.0999 228.2 37.2999C228.2 41.7999 231.9 45.4999 236.4 45.4999C238.6 45.4999 240.7 44.6999 242.2 43.0999C243.8 41.4999 244.6 39.4999 244.6 37.2999C244.6 32.7999 240.9 29.0999 236.4 29.0999ZM241.1 41.9999C239.8 43.2999 238.2 43.8999 236.4 43.8999C232.7 43.8999 229.8 40.8999 229.8 37.2999C229.8 35.4999 230.5 33.7999 231.7 32.5999C233 31.2999 234.6 30.6999 236.4 30.6999C240.1 30.6999 243.1 33.6999 243.1 37.3999C243 39.0999 242.4 40.7999 241.1 41.9999ZM210.1 32.0999C208.5 30.4999 206.4 29.4999 204.2 29.4999C200.2 29.4999 196.7 32.4999 196.1 36.4999L195.9 37.6999L210.9 32.8999L210.1 32.0999ZM198 35.5999C198.9 32.9999 201.4 31.1999 204.3 31.1999C205.7 31.1999 207 31.6999 208.1 32.4999C206.2 32.8999 199.8 34.8999 198 35.5999ZM219.8 37.3999V36.7999C219.3 28.4999 212.4 22.0999 203.9 22.0999C195.2 22.0999 188 29.0999 188 37.7999C188 46.3999 195.1 53.3999 203.9 53.3999C210.2 53.3999 215.9 49.6999 218.4 44.0999L218.7 43.2999C218.7 43.2999 210.7 40.2999 210.5 40.1999C214.8 38.8999 219.8 37.3999 219.8 37.3999ZM211.1 42.0999C211.9 42.3999 215.5 43.7999 216.7 44.1999C214.3 48.7999 209.3 51.7999 204 51.7999C196.1 51.7999 189.7 45.4999 189.7 37.6999C189.7 29.8999 196.1 23.5999 204 23.5999C211.4 23.5999 217.6 29.0999 218.3 36.2999C217.1 36.6999 197.7 42.6999 197.7 42.6999L198.6 43.5999C200.2 45.0999 202.2 45.9999 204.3 45.9999C207 45.9999 209.6 44.4999 211.1 42.0999ZM210.3 40.2999C210.2 40.4999 210.1 40.7999 210.1 40.7999C209 42.9999 206.7 44.3999 204.2 44.3999C202.9 44.3999 201.7 43.9999 200.7 43.3999C201.9 42.9999 205.5 41.8999 210.3 40.2999ZM178.1 2.09985C178.1 2.09985 178.1 21.1999 178.1 23.2999C176 22.2999 173.7 21.6999 171.3 21.6999C162.7 21.6999 155.8 28.6999 155.8 37.2999C155.8 45.8999 162.8 52.8999 171.3 52.8999C173.6 52.8999 176 52.3999 178.1 51.2999C178.1 51.6999 178.1 52.8999 178.1 52.8999H187V1.99988H178.1V2.09985ZM185.5 51.3999H179.6C179.6 50.7999 179.6 48.7999 179.6 48.7999L178.5 49.4999C176.3 50.7999 173.8 51.3999 171.4 51.3999C163.7 51.3999 157.4 45.0999 157.4 37.2999C157.4 29.4999 163.7 23.1999 171.4 23.1999C173.9 23.1999 176.4 23.8999 178.5 25.0999L179.7 25.7999C179.7 25.7999 179.7 4.89988 179.7 3.49988H185.6L185.5 51.3999ZM171.3 29.0999C166.8 29.0999 163.2 32.7999 163.2 37.2999C163.2 41.7999 166.9 45.4999 171.3 45.4999C175.9 45.4999 179.6 41.7999 179.6 37.2999C179.6 32.7999 175.9 29.0999 171.3 29.0999ZM171.3 43.9999C167.6 43.9999 164.7 40.9999 164.7 37.3999C164.7 33.6999 167.6 30.6999 171.3 30.6999C175 30.6999 178.1 33.6999 178.1 37.3999C178.1 40.9999 175.1 43.9999 171.3 43.9999ZM145 21.6999V52.8999H154V21.6999H145ZM152.4 23.2999C152.4 24.6999 152.4 49.9999 152.4 51.3999C151.3 51.3999 147.6 51.3999 146.5 51.3999C146.5 49.9999 146.5 24.6999 146.5 23.2999C147.6 23.2999 151.4 23.2999 152.4 23.2999ZM144.7 13.9999C144.7 16.3999 146.8 18.3999 149.3 18.3999C151.8 18.3999 153.8 16.3999 153.8 13.9999C153.8 11.5999 151.7 9.59985 149.3 9.59985C146.8 9.59985 144.7 11.5999 144.7 13.9999ZM146.2 13.9999C146.2 12.3999 147.6 11.1999 149.3 11.1999C150.9 11.1999 152.2 12.4999 152.2 13.9999C152.2 15.5999 150.9 16.8999 149.3 16.8999C147.6 16.7999 146.2 15.5999 146.2 13.9999ZM135.1 21.6999C135.1 21.6999 129.8 35.0999 128.7 37.8999C127.5 35.0999 121.8 21.6999 121.8 21.6999H112.6L125.7 52.8999H132L144.6 21.6999H135.1ZM142.1 23.2999C141.3 25.1999 131.1 50.4999 130.7 51.3999C129.9 51.3999 127.3 51.3999 126.5 51.3999C126.1 50.4999 115.5 25.1999 114.7 23.2999C116.2 23.2999 119.9 23.2999 120.6 23.2999C121 24.1999 128.6 41.9999 128.6 41.9999C128.6 41.9999 135.7 24.1999 136 23.2999C136.8 23.2999 140.6 23.2999 142.1 23.2999ZM103.1 21.7999C103.1 21.7999 103.1 22.9999 103.1 23.3999C101 22.3999 98.6002 21.7999 96.2002 21.7999C87.6002 21.7999 80.7002 28.6999 80.7002 37.1999C80.7002 45.7999 87.7002 52.6999 96.2002 52.6999C98.6002 52.6999 100.9 52.0999 103.1 50.9999C103.1 51.4999 103.1 52.6999 103.1 52.6999H111.7V21.6999H103.1V21.7999ZM91.4003 32.4999C92.7003 31.1999 94.4002 30.4999 96.1002 30.4999C99.9002 30.4999 103 33.4999 103 37.2999C103 40.9999 99.9002 44.0999 96.1002 44.0999C92.4002 44.0999 89.3003 40.9999 89.3003 37.2999C89.5003 35.4999 90.2003 33.7999 91.4003 32.4999ZM81.6002 30.4999V21.7999C81.6002 21.7999 78.7003 21.7999 77.8003 21.7999C77.8003 20.5999 77.8003 0.899902 77.8003 0.899902L76.7002 1.79987L69.1002 7.99988C69.1002 7.99988 69.1002 20.6999 69.1002 21.8999C68.2002 21.8999 65.6002 21.8999 65.6002 21.8999V30.5999C65.6002 30.5999 68.3002 30.5999 69.1002 30.5999C69.1002 31.7999 69.1002 48.5999 69.1002 48.5999C69.1002 50.9999 70.6002 52.8999 72.5002 52.8999H79.0002V44.1999C79.0002 44.1999 78.1003 44.1999 77.8003 44.1999V30.5999C78.8003 30.4999 81.6002 30.4999 81.6002 30.4999ZM55.2002 21.7999C55.2002 21.7999 55.2002 22.9999 55.2002 23.3999C53.1002 22.3999 50.7003 21.7999 48.3003 21.7999C44.2003 21.7999 40.3003 23.3999 37.3003 26.2999C34.4003 29.1999 32.7002 33.0999 32.7002 37.2999C32.7002 41.3999 34.3003 45.2999 37.3003 48.2999C40.3003 51.2999 44.1003 52.8999 48.3003 52.8999C50.7003 52.8999 53.0002 52.2999 55.2002 51.1999C55.2002 51.6999 55.2002 52.8999 55.2002 52.8999H63.8003V21.8999L55.2002 21.7999ZM43.6002 32.4999C44.9002 31.1999 46.6003 30.4999 48.3003 30.4999C52.1003 30.4999 55.2002 33.4999 55.2002 37.2999C55.2002 40.9999 52.1003 44.0999 48.3003 44.0999C44.6003 44.0999 41.5002 40.9999 41.5002 37.2999C41.6002 35.4999 42.3002 33.7999 43.6002 32.4999ZM22.5002 2.19989C22.5002 2.19989 22.5002 21.5999 22.5002 23.4999C20.4002 22.4999 18.0002 21.8999 15.6002 21.8999C7.10022 21.8999 0.200195 28.8999 0.200195 37.3999C0.200195 45.8999 7.10022 52.7999 15.6002 52.7999C18.0002 52.7999 20.3002 52.1999 22.5002 51.1999C22.5002 51.6999 22.5002 52.7999 22.5002 52.7999H31.2002V2.09985H22.5002V2.19989ZM15.6002 30.4999C19.4002 30.4999 22.5002 33.5999 22.5002 37.2999C22.5002 40.9999 19.4002 44.0999 15.6002 44.0999C11.9002 44.0999 8.90027 41.0999 8.90027 37.2999C8.90027 33.5999 11.9002 30.4999 15.6002 30.4999Z" fill="#364994"/>
</svg>
