<svg width="68" height="68" viewBox="0 0 68 68" fill="none" xmlns="http://www.w3.org/2000/svg">
<g id="Group">
<g id="Group_2">
<path id="Vector" d="M0.600098 57.4999V0.499878C2.0001 0.399878 3.40008 0.399902 4.80008 0.399902C39.6001 0.399902 67.9001 28.5999 67.9001 63.4999C67.9001 64.9999 67.8001 66.4999 67.7001 67.9999H11.0001C5.30009 67.9999 0.600098 63.2999 0.600098 57.4999Z" fill="#E98F2D"/>
<g id="Group_3">
<path id="Vector_2" d="M53.1002 33.6998C52.5002 33.3998 51.9002 33.3999 51.4002 33.7999L46.8002 36.6998V35.0999C46.8002 34.5999 46.4002 34.1998 45.9002 34.1998H43.6002V30.0999C43.6002 29.5999 43.2002 29.1998 42.7002 29.1998H38.6002L37.4002 25.9999C37.3002 25.6999 36.9002 25.3999 36.6002 25.3999H27.2002C26.7002 25.3999 26.3002 25.7999 26.3002 26.2999C26.3002 26.7999 26.7002 27.1998 27.2002 27.1998H36.0002L36.8002 29.1998H11.1002C10.6002 29.1998 10.2002 29.5999 10.2002 30.0999V50.8999C10.2002 51.3999 10.6002 51.7999 11.1002 51.7999H12.7002V51.8999L13.6002 54.1998C13.7002 54.4998 14.1002 54.7999 14.4002 54.7999H39.3002C39.7002 54.7999 40.0002 54.5998 40.1002 54.1998L41.0002 51.8999V51.7999H42.6002C43.1002 51.7999 43.5002 51.3999 43.5002 50.8999V47.4999H45.8002C46.3002 47.4999 46.7002 47.0999 46.7002 46.5999V44.2999L51.3002 47.0999C51.6002 47.2999 51.9002 47.3999 52.2002 47.3999C52.5002 47.3999 52.8002 47.2998 53.0002 47.1998C53.6002 46.8998 53.9002 46.2998 53.9002 45.6998V35.2999C54.0002 34.5999 53.7002 33.9998 53.1002 33.6998ZM38.8002 52.8999H15.1002L14.6002 51.6998H39.2002L38.8002 52.8999ZM41.9002 49.8999H12.0002V30.8999H41.9002V49.8999ZM45.0002 45.6998H43.6002V35.8999H45.0002V45.6998ZM52.2002 45.4999L46.8002 42.0999V38.6998L52.2002 35.2999V45.4999Z" fill="white"/>
<path id="Vector_3" d="M16.3004 45.3H25.3004C25.8004 45.3 26.2004 44.9 26.2004 44.4V36.4C26.2004 35.9 25.8004 35.5 25.3004 35.5H16.3004C15.8004 35.5 15.4004 35.9 15.4004 36.4V44.4C15.4004 44.9 15.8004 45.3 16.3004 45.3ZM17.2004 37.3H24.4004V43.5H17.2004V37.3Z" fill="white"/>
<path id="Vector_4" d="M30.3004 43.0997H38.4004C38.9004 43.0997 39.3004 42.6997 39.3004 42.1997V38.6997C39.3004 38.1997 38.9004 37.7998 38.4004 37.7998H30.3004C29.8004 37.7998 29.4004 38.1997 29.4004 38.6997V42.1997C29.4004 42.6997 29.8004 43.0997 30.3004 43.0997ZM31.2004 39.4998H37.6003V41.2998H31.2004V39.4998Z" fill="white"/>
</g>
</g>
</g>
</svg>
