<svg width="236" height="141" viewBox="0 0 236 141" fill="none" xmlns="http://www.w3.org/2000/svg">
<g id="Group">
<g id="Group_2">
<g id="Group_3">
<g id="Group_4">
<path id="Vector" d="M119.7 117.6C94 117.6 73.2 96.6999 73.2 71.0999C73.2 45.4999 94.1 24.5999 119.7 24.5999C145.4 24.5999 166.2 45.4999 166.2 71.0999C166.2 96.6999 145.4 117.6 119.7 117.6ZM119.7 35.0999C99.8 35.0999 83.7 51.2999 83.7 71.0999C83.7 90.9999 99.9 107.1 119.7 107.1C139.6 107.1 155.7 90.8999 155.7 71.0999C155.8 51.1999 139.6 35.0999 119.7 35.0999Z" fill="white"/>
</g>
<g id="Group_5">
<path id="Vector_2" d="M109.8 97.1C109 97.1 108.1 96.9 107.3 96.5C105.6 95.6 104.5 93.8 104.5 91.9V49.8C104.5 47.9 105.6 46.1 107.3 45.2C109 44.3 111.1 44.4 112.7 45.5L143.8 66.6C145.2 67.6 146.1 69.2 146.1 70.9C146.1 72.6 145.2 74.3 143.8 75.2L112.7 96.3C111.8 96.8 110.8 97.1 109.8 97.1ZM115 59.6V82L131.5 70.8L115 59.6Z" fill="white"/>
</g>
<g id="Group_6">
<g id="Group_7">
<path id="Vector_3" d="M26.2 140.5C24.5 140.5 22.9 139.7 21.9 138.3C8.10002 118.5 0.800049 95.3 0.800049 71.2C0.800049 46.4 8.5 22.5999 23 2.39995C24.7 0.0999455 28 -0.500036 30.3 1.19996C32.6 2.89996 33.2 6.19995 31.5 8.49995C18.3 26.7999 11.3 48.5 11.3 71.1C11.3 93.1 17.9 114.2 30.5 132.2C32.2 134.6 31.6 137.8 29.2 139.5C28.3 140.2 27.2 140.5 26.2 140.5Z" fill="white"/>
</g>
<g id="Group_8">
<path id="Vector_4" d="M39.5 120.3C30.3 105.5 25.4 88.4999 25.4 71.0999C25.4 52.9999 30.6 35.3 40.6 20.2L49.4 25.8999C40.6 39.2999 35.9 54.9999 35.9 71.0999C35.9 86.5999 40.2 101.7 48.4 114.7L39.5 120.3Z" fill="white"/>
</g>
<g id="Group_9">
<path id="Vector_5" d="M43.9 122.8C42.2 122.8 40.4 121.9 39.4 120.3C30.2 105.5 25.3 88.4998 25.3 71.0998C25.3 52.9998 30.5 35.2998 40.5 20.1998C42.1 17.7998 45.3 17.0998 47.8 18.6998C50.2 20.2998 50.9 23.4998 49.3 25.9998C40.5 39.3998 35.8 55.0998 35.8 71.1998C35.8 86.6998 40.1 101.8 48.3 114.8C49.8 117.3 49.1 120.5 46.6 122C45.8 122.5 44.9 122.8 43.9 122.8Z" fill="white"/>
</g>
<g id="Group_10">
<path id="Vector_6" d="M57.9 101.1C53.2 91.6999 50.9 81.5999 50.9 71.0999C50.9 59.9999 53.7 48.9 58.9 39.2L68.1 44.2C63.7 52.4 61.3 61.8 61.3 71.2C61.3 80.1 63.3 88.5999 67.2 96.4999L57.9 101.1Z" fill="white"/>
</g>
<g id="Group_11">
<path id="Vector_7" d="M62.6 104C60.7 104 58.8 102.9 57.9 101.1C53.2 91.7 50.9 81.6 50.9 71.1C50.9 60 53.7 48.9 58.9 39.2C60.3 36.6 63.4 35.7 66 37.1C68.6 38.5 69.5 41.6 68.1 44.2C63.7 52.4 61.3 61.8 61.3 71.2C61.3 80.1 63.3 88.6 67.2 96.5C68.5 99.1 67.4 102.2 64.8 103.5C64.2 103.8 63.4 104 62.6 104Z" fill="white"/>
</g>
</g>
<g id="Group_12">
<g id="Group_13">
<path id="Vector_8" d="M209.8 140.5C208.8 140.5 207.7 140.2 206.8 139.6C204.4 137.9 203.8 134.7 205.5 132.3C218 114.3 224.7 93.0999 224.7 71.1999C224.7 48.5999 217.7 26.8999 204.5 8.5999C202.8 6.2999 203.3 2.99988 205.7 1.29988C208 -0.400121 211.3 0.0998907 213 2.49989C227.5 22.5999 235.2 46.3999 235.2 71.2999C235.2 95.3999 227.9 118.6 214.1 138.4C213 139.7 211.4 140.5 209.8 140.5Z" fill="white"/>
</g>
<g id="Group_14">
<path id="Vector_9" d="M196.5 120.3L187.6 114.8C195.8 101.7 200.1 86.5998 200.1 71.1998C200.1 55.0998 195.4 39.4998 186.6 25.9998L195.4 20.2998C205.3 35.4998 210.6 53.0998 210.6 71.1998C210.6 88.4998 205.7 105.5 196.5 120.3Z" fill="white"/>
</g>
<g id="Group_15">
<path id="Vector_10" d="M192 122.8C191.1 122.8 190.1 122.5 189.2 122C186.7 120.5 186 117.2 187.5 114.8C195.7 101.7 200 86.5998 200 71.1998C200 55.0998 195.3 39.4998 186.5 25.9998C184.9 23.5998 185.6 20.2998 188 18.6998C190.4 17.0998 193.7 17.7998 195.3 20.1998C205.2 35.3998 210.5 52.9998 210.5 71.0998C210.5 88.4998 205.6 105.5 196.4 120.3C195.5 121.9 193.8 122.8 192 122.8Z" fill="white"/>
</g>
<g id="Group_16">
<path id="Vector_11" d="M178 101.1L168.6 96.3998C172.5 88.4998 174.5 79.8999 174.5 71.0999C174.5 61.6999 172.2 52.3999 167.7 44.0999L176.9 39.0999C182.1 48.8999 184.9 59.8998 184.9 70.9998C185 81.5998 182.7 91.6999 178 101.1Z" fill="white"/>
</g>
<g id="Group_17">
<path id="Vector_12" d="M173.3 104C172.5 104 171.7 103.8 171 103.5C168.4 102.2 167.4 99.0998 168.6 96.4998C172.5 88.5998 174.5 79.9998 174.5 71.1998C174.5 61.7998 172.2 52.4998 167.7 44.1998C166.3 41.5998 167.3 38.4998 169.8 37.0998C172.3 35.6998 175.5 36.6998 176.9 39.1998C182.1 48.9998 184.9 59.9998 184.9 71.0998C184.9 81.5998 182.5 91.6998 177.9 101.1C177.1 103 175.2 104 173.3 104Z" fill="white"/>
</g>
</g>
</g>
</g>
</g>
</svg>
