<svg width="226" height="40" viewBox="0 0 226 40" fill="none" xmlns="http://www.w3.org/2000/svg">
<g id="Group">
<path id="Vector" fill-rule="evenodd" clip-rule="evenodd" d="M222.4 31.8999C220.5 31.8999 219 33.3999 219 35.2999C219 37.1999 220.5 38.6999 222.4 38.6999C224.3 38.6999 225.8 37.1999 225.8 35.2999C225.9 33.3999 224.3 31.8999 222.4 31.8999ZM222.4 38.2999C220.7 38.2999 219.4 36.9999 219.4 35.2999C219.4 33.5999 220.7 32.2999 222.4 32.2999C224.1 32.2999 225.4 33.5999 225.4 35.2999C225.5 36.9999 224.1 38.2999 222.4 38.2999Z" fill="#231F20"/>
<path id="Vector_2" fill-rule="evenodd" clip-rule="evenodd" d="M224.2 34.3999C224.2 34.0999 224.1 33.6999 223.8 33.5999C223.5 33.3999 223.2 33.3999 222.9 33.3999H221.2V37.1999H221.7V35.3999H222.6L223.7 37.1999H224.3L223.1 35.3999C223.7 35.3999 224.2 35.1999 224.2 34.3999ZM222.4 35.0999H221.7V33.6999H222.8C223.3 33.6999 223.8 33.7999 223.8 34.3999C223.7 35.1999 222.9 35.0999 222.4 35.0999Z" fill="#231F20"/>
<path id="Vector_3" fill-rule="evenodd" clip-rule="evenodd" d="M202.3 15.8999L209.3 8.3999C209.7 7.8999 209.9 7.49985 209.9 7.09985C209.9 6.49985 209.4 6.29987 207.9 6.29987H206.1V1.59985H225.3V6.29987H222.8C219.9 6.29987 219.4 6.6999 215.3 11.8999L204.2 23.8999V31.1999C204.2 33.0999 205.1 33.6999 207.9 33.6999H212.1V38.2999H185.3V33.6999H189.5C192.2 33.6999 193.2 32.9999 193.2 31.1999V23.8999L180 9.3999C177.8 6.8999 178.1 6.29987 172.1 6.29987V1.59985H196.4V6.29987H194.7C192.9 6.29987 192.2 6.59987 192.2 7.29987C192.2 7.89987 192.7 8.29989 193.1 8.69989L199.7 15.8999C200.5 16.7999 201.4 16.8999 202.3 15.8999Z" fill="#231F20"/>
<path id="Vector_4" fill-rule="evenodd" clip-rule="evenodd" d="M39.4001 1.59985H45.3001V14.7999H39.9001C39.4001 12.1999 37.8001 11.0999 36.3001 9.69989C33.6001 7.19989 27.7001 5.09985 22.7001 5.09985C16.3001 5.09985 10.9001 7.09988 10.9001 9.99988C10.9001 18.0999 47.4001 11.6999 47.4001 26.8999C47.4001 34.8999 39.6001 39.2999 25.5001 39.2999C20.6001 39.2999 13.3001 37.7999 8.90015 35.4999C7.50015 34.6999 7.00013 36.1999 6.70013 38.1999H0.700134V24.5999H6.1001C7.3001 28.0999 8.90012 28.7999 10.5001 30.1999C13.1001 32.5999 19.4001 34.3999 25.2001 34.2999C33.9001 34.1999 36.8001 32.2999 36.8001 29.5999C36.8001 26.8999 33.9001 26.1999 24.4001 24.6999L16.3001 23.3999C7.20011 21.9999 0.600098 19.9999 0.600098 12.6999C0.600098 5.19989 9.00013 0.399902 22.2001 0.399902C27.8001 0.399902 32.5001 1.09989 36.9001 3.69989C38.3001 4.49989 39.4001 4.59985 39.4001 1.59985Z" fill="#231F20"/>
<path id="Vector_5" fill-rule="evenodd" clip-rule="evenodd" d="M153.7 23.6998L153.8 8.99982C153.8 7.09982 152.8 6.39984 149.9 6.39984H146.5V1.7998H168V6.39984H165.2C162.3 6.39984 161.3 7.09982 161.3 8.99982V38.4998L152.9 38.3998L125.8 12.6998V31.2998C125.8 33.1998 126.8 33.8998 129.7 33.8998H133.4V38.3998H111.2V33.8998H114.9C117.8 33.8998 118.8 33.1998 118.8 31.2998V8.99982C118.8 7.09982 117.8 6.39984 114.9 6.39984H111.2V1.7998H130.4L153.7 23.6998Z" fill="#231F20"/>
<path id="Vector_6" fill-rule="evenodd" clip-rule="evenodd" d="M82.1003 0.199951C65.1003 0.199951 54.4004 7.69993 54.4004 19.7999C54.4004 31.6999 64.9003 39.2 81.6003 39.2C99.3003 39.2 109.6 31.8 109.6 19.2C109.6 7.89995 98.4003 0.199951 82.1003 0.199951ZM81.7004 34.4C72.3004 34.4 66.8004 28.9999 66.8004 19.4999C66.8004 10.2999 72.5003 4.89996 82.1003 4.89996C91.4003 4.89996 96.8004 10.5 96.8004 19.9C96.9004 29.1 91.3004 34.4 81.7004 34.4Z" fill="#231F20"/>
</g>
</svg>
