<svg width="134" height="168" viewBox="0 0 134 168" fill="none" xmlns="http://www.w3.org/2000/svg">
<g id="teJN0V_00000090254808367445843910000017708539404587726754_">
<g id="Group">
<g id="Group_2">
<path id="Vector" d="M78.3003 0.199951C79.7003 1.09995 80.0003 2.30005 80.0003 3.80005C79.9003 7.70005 80.0003 11.5999 80.0003 15.3999C80.0003 18.3999 79.3003 19.1 76.2003 19.2C76.0003 19.2 75.8003 19.2 75.3003 19.2C75.8003 19.5 76.1003 19.8 76.5003 20C84.3003 24 92.0003 28 99.8003 32C100.7 32.5 101.2 32.5 102 31.8C104.8 29.3 108.1 28.6 111.4 30.3C117.4 33.2001 123.3 36.1999 129.1 39.3999C133.5 41.7999 134.7 46.9 132.3 51.5C129.9 56.2 125.3 58.2999 120.7 56.2C114.5 53.2999 108.4 50.1 102.4 46.7C99.3003 45 98.1003 41.9 98.5003 38.3C98.6003 37.5 98.6003 37.0001 97.8003 36.6001C88.0003 31.6001 78.2003 26.5 68.4003 21.5C68.3003 21.4 68.1003 21.4 67.8003 21.3C67.8003 25.2 67.8003 29.1 67.8003 33.3C69.5003 33.3 71.3003 33.3 73.1003 33.3C80.4003 33.2001 80.0003 33.2999 80.0003 40.2C80.0003 50.7 80.0003 61.3 80.0003 71.8C80.0003 73.1001 80.3003 74.4001 80.8003 75.6001C93.6003 104.8 106.4 133.9 119.2 163.1C119.4 163.5 119.6 164 119.8 164.5C120.4 166.4 119.4 167.9 117.5 167.9C113.7 168 109.9 168 106 167.9C104.6 167.9 104 166.8 103.5 165.6C98.9003 155 94.2003 144.4 89.6003 133.8C82.9003 118.6 76.3003 103.4 69.6003 88.3C69.4003 87.9 69.2003 87.4 68.7003 87C68.7003 87.6 68.7003 88.1 68.7003 88.7C68.7003 113.8 68.7003 138.9 68.7003 163.9C68.7003 167.3 68.1003 167.9 64.7003 167.9C61.9003 167.9 59.0003 167.9 56.2003 167.9C53.0003 167.9 52.3003 167.2 52.3003 164.1C52.3003 148 52.3003 132 52.3003 115.9C52.3003 106.9 52.3003 97.8999 52.3003 88.8999C52.3003 88.2999 52.3003 87.7001 52.3003 87.1001C52.2003 87.1001 52.1003 87.1 52.1003 87C51.8003 87.5 51.6003 88 51.3003 88.5C40.1003 114 28.9003 139.4 17.8003 164.9C16.9003 167.1 15.6003 168.1 13.2003 167.9C10.3003 167.7 7.40031 167.9 4.50031 167.9C1.20031 167.9 0.200306 166.4 1.50031 163.4C13.9003 135 26.4003 106.6 38.9003 78.3C40.2003 75.3 41.0003 72.3999 40.8003 69.2C40.6003 67 40.7003 64.7 40.8003 62.5C40.8003 60.6 41.8003 59.4999 43.3003 59.3999C44.8003 59.3999 45.8003 60.4999 45.8003 62.3999C45.8003 65.4999 45.8003 68.5 45.8003 71.7C55.6003 71.7 65.2003 71.7 75.0003 71.7C75.0003 60.6 75.0003 49.4999 75.0003 38.3999C65.3003 38.3999 55.7003 38.3999 45.8003 38.3999C45.8003 39.7999 45.8003 41.2999 45.8003 42.7C45.8003 44.2 45.2003 45.3001 43.7003 45.6001C42.3003 45.9001 41.0003 44.9 40.9003 43.3C40.8003 40.7001 40.8003 38.2001 40.9003 35.6001C41.0003 34.0001 42.0003 33.3 43.9003 33.3C46.9003 33.3 49.9003 33.3 53.0003 33.3C53.0003 28.6 53.0003 24 53.0003 19.2C51.4003 19.2 49.8003 19.2 48.2003 19.2C46.7003 19.2 45.1003 19.2 43.6003 19.2C41.9003 19.2 40.8003 18.4 40.8003 16.7C40.7003 12.1 40.7003 7.40005 40.8003 2.80005C40.8003 1.90005 41.7003 1.09995 42.3003 0.199951C54.3003 0.199951 66.3003 0.199951 78.3003 0.199951ZM63.4003 163.1C63.4003 134.3 63.4003 105.7 63.4003 77.1001C61.3003 77.1001 59.3003 77.1001 57.2003 77.1001C57.2003 105.8 57.2003 134.5 57.2003 163.1C59.4003 163.1 61.3003 163.1 63.4003 163.1ZM50.8003 77C49.2003 77 47.8003 77.1 46.4003 77C45.1003 76.9 44.6003 77.4 44.1003 78.5C32.3003 105.4 20.5003 132.2 8.70032 159.1C8.10032 160.4 7.60031 161.7 7.00031 163.2C8.60031 163.2 9.90032 163.1 11.2003 163.2C12.5003 163.3 13.1003 162.8 13.6003 161.6C23.2003 139.6 32.9003 117.6 42.5003 95.7C45.3003 89.5 48.0003 83.3 50.8003 77ZM113.6 163.1C113.3 162.3 113.1 161.8 112.9 161.3C106 145.7 99.2003 130 92.3003 114.4C87.0003 102.4 81.7003 90.3 76.4003 78.3C76.2003 77.8 75.6003 77.1 75.1003 77C73.5003 76.8 71.9003 76.8999 70.0003 76.8999C70.3003 77.5999 70.5003 78.2 70.7003 78.7C78.1003 95.6 85.5003 112.5 92.9003 129.3C97.6003 140.1 102.4 150.9 107.1 161.6C107.3 162.1 107.8 162.9 108.3 162.9C110 163.2 111.6 163.1 113.6 163.1ZM74.8003 14.2C74.8003 11.3 74.8003 8.30005 74.8003 5.30005C65.1003 5.30005 55.5003 5.30005 45.8003 5.30005C45.8003 8.30005 45.8003 11.2 45.8003 14.2C55.5003 14.2 65.1003 14.2 74.8003 14.2ZM128.5 47.1001C128.5 45.2001 127.4 44.1 125.8 43.3C120.6 40.6 115.3 37.9 110.1 35.2C107.6 33.9 105.4 34.7 104.1 37.2C102.8 39.7 103.4 41.9 106 43.2C111.3 46 116.5 48.6999 121.8 51.3999C125.1 53.0999 128.5 50.8001 128.5 47.1001ZM58.1003 33.3C59.7003 33.3 61.1003 33.3 62.5003 33.3C62.5003 28.6 62.5003 23.9999 62.5003 19.3999C61.0003 19.3999 59.5003 19.3999 58.1003 19.3999C58.1003 24.0999 58.1003 28.6 58.1003 33.3Z" fill="#E98F2D"/>
</g>
</g>
</g>
</svg>
