<svg width="181" height="121" viewBox="0 0 181 121" fill="none" xmlns="http://www.w3.org/2000/svg">
<g id="Group">
<g id="Group_2">
<path id="Vector" d="M176.499 34.3999C174.199 33.1999 171.499 33.2999 169.399 34.7L150.599 46.3999V39.8C150.599 37.8 148.999 36.2 146.999 36.2H137.699V19.3999C137.699 17.3999 136.099 15.8 134.099 15.8H117.199V15.7L112.099 2.5C111.599 1.1 110.199 0.199951 108.699 0.199951H69.9994C67.9994 0.199951 66.3994 1.80005 66.3994 3.80005C66.3994 5.80005 67.9994 7.3999 69.9994 7.3999H106.299L109.499 15.8H3.99942C1.99942 15.8 0.399414 17.3999 0.399414 19.3999V104.7C0.399414 106.7 1.99942 108.3 3.99942 108.3H10.6994C10.6994 108.5 10.6994 108.6 10.7994 108.8L14.5994 118.1C15.1994 119.5 16.4994 120.4 17.9994 120.4H120.299C121.799 120.4 123.099 119.5 123.699 118.1L127.499 108.8C127.599 108.6 127.599 108.5 127.599 108.3H134.299C136.299 108.3 137.899 106.7 137.899 104.7V90.8H147.199C149.199 90.8 150.799 89.2 150.799 87.2V77.7L169.499 89.3999C170.699 90.1999 171.999 90.6001 173.399 90.6001C174.499 90.6001 175.699 90.3 176.699 89.8C178.999 88.6001 180.399 86.2001 180.399 83.6001V40.7C180.199 37.9 178.799 35.5999 176.499 34.3999ZM117.799 113.1H20.3994L18.3994 108.2H119.699L117.799 113.1ZM130.499 101H7.59943V22.8999H130.499V101ZM143.399 83.5H137.699V43.3999H143.399V83.5ZM172.999 83L150.599 69V54.8999L172.999 41V83Z" fill="#E98F2D"/>
</g>
<g id="Group_3">
<path id="Vector_2" d="M25.1996 82H61.9996C63.9996 82 65.5996 80.3999 65.5996 78.3999V45.5C65.5996 43.5 63.9996 41.8999 61.9996 41.8999H25.1996C23.1996 41.8999 21.5996 43.5 21.5996 45.5V78.3999C21.5996 80.3999 23.1996 82 25.1996 82ZM28.7996 49.1001H58.3996V74.8H28.7996V49.1001Z" fill="#E98F2D"/>
</g>
<g id="Group_4">
<path id="Vector_3" d="M82.6996 72.8H116.1C118.1 72.8 119.7 71.2 119.7 69.2V54.7C119.7 52.7 118.1 51.1001 116.1 51.1001H82.6996C80.6996 51.1001 79.0996 52.7 79.0996 54.7V69.2C79.0996 71.2 80.6996 72.8 82.6996 72.8ZM86.2996 58.3H112.5V65.6001H86.2996V58.3Z" fill="#E98F2D"/>
</g>
</g>
</svg>
