<svg width="124" height="27" viewBox="0 0 124 27" fill="none" xmlns="http://www.w3.org/2000/svg">
<path id="Vector" d="M115.6 10.8002C111.4 10.8002 108 14.2002 108 18.4002C108 22.6002 111.4 26.0002 115.6 26.0002C117.7 26.0002 119.6 25.2002 121 23.8002C122.4 22.4002 123.2 20.5002 123.2 18.4002C123.2 14.2002 119.8 10.8002 115.6 10.8002ZM120.4 23.3002C119.1 24.6002 117.4 25.3002 115.5 25.3002C111.7 25.3002 108.6 22.2002 108.6 18.4002C108.6 14.6002 111.7 11.5002 115.5 11.5002C119.3 11.5002 122.4 14.6002 122.4 18.4002C122.5 20.3002 121.7 22.0002 120.4 23.3002ZM115.6 14.4002C114.5 14.4002 113.5 14.8002 112.8 15.6002C112.1 16.4002 111.6 17.4002 111.6 18.5002C111.6 20.7002 113.4 22.5002 115.6 22.5002C116.7 22.5002 117.7 22.1002 118.5 21.3002C119.3 20.5002 119.7 19.6002 119.7 18.5002C119.6 16.2002 117.8 14.4002 115.6 14.4002ZM117.9 20.7002C117.3 21.3002 116.5 21.6002 115.6 21.6002C113.8 21.6002 112.4 20.1002 112.4 18.4002C112.4 17.5002 112.7 16.7002 113.3 16.1002C113.9 15.5002 114.7 15.2002 115.6 15.2002C117.4 15.2002 118.9 16.7002 118.9 18.5002C118.8 19.3002 118.5 20.1002 117.9 20.7002ZM102.7 15.9002C101.9 15.1002 100.9 14.6002 99.8 14.6002C97.8 14.6002 96.1001 16.1002 95.8 18.0002L95.7001 18.6002L103 16.3002L102.7 15.9002ZM96.8 17.6002C97.3 16.3002 98.5001 15.4002 99.9001 15.4002C100.6 15.4002 101.2 15.6002 101.8 16.0002C100.8 16.3002 97.7001 17.3002 96.8 17.6002ZM107.5 18.5002V18.2002C107.3 14.2002 103.9 11.0002 99.7001 11.0002C95.4001 11.0002 91.9001 14.4002 91.9001 18.7002C91.9001 22.9002 95.4001 26.3002 99.7001 26.3002C102.8 26.3002 105.5 24.5002 106.8 21.8002L107 21.4002C107 21.4002 103.1 19.9002 103 19.9002C105 19.2002 107.5 18.5002 107.5 18.5002ZM103.2 20.8002C103.6 20.9002 105.4 21.6002 105.9 21.8002C104.7 24.0002 102.3 25.5002 99.7001 25.5002C95.8001 25.5002 92.7001 22.4002 92.7001 18.6002C92.7001 14.8002 95.8001 11.7002 99.7001 11.7002C103.3 11.7002 106.3 14.4002 106.7 17.9002C106.1 18.1002 96.6 21.0002 96.6 21.0002L97.1 21.4002C97.9 22.1002 98.8001 22.5002 99.9001 22.5002C101.2 22.7002 102.5 21.9002 103.2 20.8002ZM102.8 19.9002C102.8 20.0002 102.7 20.1002 102.7 20.1002C102.2 21.2002 101 21.9002 99.8 21.9002C99.2001 21.9002 98.6 21.7002 98.1 21.4002C98.7 21.2002 100.5 20.7002 102.8 19.9002ZM87.1 1.2002C87.1 1.2002 87.1 10.5002 87.1 11.6002C86.1 11.1002 84.9 10.8002 83.8 10.8002C79.6001 10.8002 76.2001 14.2002 76.2001 18.4002C76.2001 22.6002 79.6001 26.0002 83.8 26.0002C84.9 26.0002 86.1 25.7002 87.1 25.2002C87.1 25.4002 87.1 26.0002 87.1 26.0002H91.5001V1.10016H87.1V1.2002ZM90.7001 25.3002H87.8C87.8 25.0002 87.8 24.0002 87.8 24.0002L87.2001 24.3002C86.1001 24.9002 84.9001 25.2002 83.7001 25.2002C79.9001 25.2002 76.9001 22.1002 76.9001 18.3002C76.9001 14.5002 80.0001 11.4002 83.7001 11.4002C84.9001 11.4002 86.1001 11.7002 87.2001 12.3002L87.8 12.6002C87.8 12.6002 87.8 2.4002 87.8 1.7002H90.7001V25.3002ZM83.8 14.4002C81.6001 14.4002 79.8 16.2002 79.8 18.4002C79.8 20.6002 81.6001 22.4002 83.8 22.4002C86 22.4002 87.8 20.6002 87.8 18.4002C87.8 16.2002 86 14.4002 83.8 14.4002ZM83.8 21.7002C82 21.7002 80.6 20.2002 80.6 18.5002C80.6 16.7002 82 15.2002 83.8 15.2002C85.6001 15.2002 87.1 16.7002 87.1 18.5002C87.1 20.3002 85.6001 21.7002 83.8 21.7002ZM70.9001 10.8002V26.1002H75.3V10.8002H70.9001ZM74.5001 11.6002C74.5001 12.3002 74.5001 24.6002 74.5001 25.3002C74.0001 25.3002 72.1 25.3002 71.6 25.3002C71.6 24.6002 71.6 12.3002 71.6 11.6002C72.2 11.6002 74.0001 11.6002 74.5001 11.6002ZM70.8 7.00018C70.8 8.20018 71.8001 9.2002 73.0001 9.2002C74.2001 9.2002 75.2001 8.20018 75.2001 7.00018C75.2001 5.90018 74.2001 4.90021 73.0001 4.90021C71.8001 4.90021 70.8 5.90018 70.8 7.00018ZM71.5001 7.00018C71.5001 6.20018 72.2001 5.60016 73.0001 5.60016C73.8001 5.60016 74.4001 6.20018 74.4001 7.00018C74.4001 7.80018 73.8001 8.40021 73.0001 8.40021C72.2001 8.40021 71.5001 7.80018 71.5001 7.00018ZM66.0001 10.8002C66.0001 10.8002 63.4001 17.3002 62.9001 18.7002C62.3001 17.3002 59.5001 10.8002 59.5001 10.8002H55.0001L61.4001 26.1002H64.5001L70.7001 10.8002H66.0001ZM69.5001 11.6002C69.1001 12.5002 64.1001 24.9002 63.9001 25.3002C63.5001 25.3002 62.2001 25.3002 61.8 25.3002C61.6 24.9002 56.4001 12.5002 56.0001 11.6002C56.7001 11.6002 58.5001 11.6002 58.9001 11.6002C59.1001 12.0002 62.8 20.8002 62.8 20.8002C62.8 20.8002 66.2001 12.1002 66.4001 11.6002C66.9001 11.6002 68.7001 11.6002 69.5001 11.6002ZM50.4001 10.9002C50.4001 10.9002 50.4001 11.5002 50.4001 11.7002C49.4001 11.2002 48.2001 10.9002 47.0001 10.9002C42.8001 10.9002 39.4001 14.3002 39.4001 18.4002C39.4001 22.6002 42.8001 26.0002 47.0001 26.0002C48.2001 26.0002 49.3001 25.7002 50.4001 25.2002C50.4001 25.4002 50.4001 26.0002 50.4001 26.0002H54.6V10.9002H50.4001ZM44.7001 16.1002C45.3001 15.5002 46.2001 15.1002 47.0001 15.1002C48.8001 15.1002 50.4001 16.6002 50.4001 18.4002C50.4001 20.2002 48.9001 21.7002 47.0001 21.7002C45.2001 21.7002 43.7001 20.2002 43.7001 18.4002C43.7001 17.5002 44.1001 16.7002 44.7001 16.1002ZM39.9001 15.1002V10.9002C39.9001 10.9002 38.5 10.9002 38.1 10.9002C38.1 10.3002 38.1 0.700195 38.1 0.700195L37.5001 1.10016L33.8 4.10016C33.8 4.10016 33.8 10.3002 33.8 10.9002C33.4 10.9002 32.1 10.9002 32.1 10.9002V15.1002C32.1 15.1002 33.4 15.1002 33.8 15.1002C33.8 15.7002 33.8 23.9002 33.8 23.9002C33.8 25.0002 34.5001 26.0002 35.4001 26.0002H38.6V21.7002C38.6 21.7002 38.1001 21.7002 38.0001 21.7002V15.1002C38.5001 15.1002 39.9001 15.1002 39.9001 15.1002ZM27.0001 10.9002C27.0001 10.9002 27.0001 11.5002 27.0001 11.7002C26.0001 11.2002 24.8 10.9002 23.6 10.9002C21.6 10.9002 19.7001 11.7002 18.2001 13.1002C16.7001 14.5002 16.0001 16.4002 16.0001 18.5002C16.0001 20.5002 16.8001 22.4002 18.2001 23.9002C19.6001 25.4002 21.5 26.1002 23.6 26.1002C24.8 26.1002 25.9001 25.8002 27.0001 25.3002C27.0001 25.5002 27.0001 26.1002 27.0001 26.1002H31.2001V11.0002L27.0001 10.9002ZM21.3 16.1002C21.9 15.5002 22.8 15.1002 23.6 15.1002C25.4 15.1002 27.0001 16.6002 27.0001 18.4002C27.0001 20.2002 25.5 21.7002 23.6 21.7002C21.8 21.7002 20.3 20.2002 20.3 18.4002C20.3 17.5002 20.7 16.7002 21.3 16.1002ZM11.0001 1.30017C11.0001 1.30017 11.0001 10.8002 11.0001 11.7002C10.0001 11.2002 8.80004 10.9002 7.60004 10.9002C3.50004 10.9002 0.100037 14.3002 0.100037 18.5002C0.100037 22.7002 3.50004 26.0002 7.60004 26.0002C8.80004 26.0002 9.90006 25.7002 11.0001 25.2002C11.0001 25.4002 11.0001 26.0002 11.0001 26.0002H15.3V1.2002H11.0001V1.30017ZM7.60004 15.1002C9.40004 15.1002 11.0001 16.6002 11.0001 18.4002C11.0001 20.2002 9.50004 21.7002 7.60004 21.7002C5.80004 21.7002 4.30005 20.2002 4.30005 18.4002C4.40005 16.6002 5.80004 15.1002 7.60004 15.1002Z" fill="white"/>
</svg>
