<svg width="191" height="128" viewBox="0 0 191 128" fill="none" xmlns="http://www.w3.org/2000/svg">
<g id="Group">
<g id="Group_2">
<g id="Group_3">
<path id="Vector" d="M187 36.4001C184.6 35.1001 181.7 35.3001 179.5 36.7001L159.6 49.1001V42.1001C159.6 40.0001 157.9 38.3001 155.8 38.3001H146V20.5001C146 18.4001 144.3 16.7001 142.2 16.7001H124.4V16.6001L119 2.6001C118.4 1.1001 117 0.100098 115.4 0.100098H74.3999C72.2999 0.100098 70.5999 1.80009 70.5999 3.90009C70.5999 6.00009 72.2999 7.7001 74.3999 7.7001H112.8L116.2 16.6001H4.69983C2.59983 16.6001 0.899902 18.3001 0.899902 20.4001V110.6C0.899902 112.7 2.59983 114.4 4.69983 114.4H11.7999C11.7999 114.6 11.7999 114.7 11.8999 114.9L15.8999 124.8C16.4999 126.2 17.8999 127.2 19.3999 127.2H127.5C129.1 127.2 130.5 126.3 131 124.8L135 114.9C135.1 114.7 135.1 114.6 135.1 114.4H142.2C144.3 114.4 146 112.7 146 110.6V96.0001H155.8C157.9 96.0001 159.6 94.3001 159.6 92.2001V82.1001L179.4 94.4001C180.6 95.2001 182.1 95.6001 183.5 95.6001C184.7 95.6001 185.9 95.3001 187 94.7001C189.4 93.4001 190.9 90.9001 190.9 88.2001V43.0001C190.9 40.2001 189.4 37.7001 187 36.4001ZM124.8 119.7H21.7999L19.6998 114.6H126.8L124.8 119.7ZM138.3 106.9H8.3999V24.3001H138.3V106.9ZM151.9 88.3001H145.9V45.9001H151.9V88.3001ZM183.2 87.8001L159.6 73.1001V58.1001L183.2 43.4001V87.8001Z" fill="white"/>
<path id="Vector_2" d="M26.9998 86.8001H65.8998C67.9998 86.8001 69.6997 85.1002 69.6997 83.0002V48.2002C69.6997 46.1002 67.9998 44.4001 65.8998 44.4001H26.9998C24.8998 44.4001 23.1997 46.1002 23.1997 48.2002V83.0002C23.1997 85.1002 24.8998 86.8001 26.9998 86.8001ZM30.7998 52.1002H62.0997V79.2002H30.7998V52.1002Z" fill="white"/>
<path id="Vector_3" d="M87.8001 77.1002H123.1C125.2 77.1002 126.9 75.4002 126.9 73.3002V58.0002C126.9 55.9002 125.2 54.2002 123.1 54.2002H87.8001C85.7001 54.2002 84.0001 55.9002 84.0001 58.0002V73.3002C83.9001 75.4002 85.7001 77.1002 87.8001 77.1002ZM91.6 61.8002H119.3V69.5002H91.6V61.8002Z" fill="white"/>
</g>
</g>
</g>
</svg>
