<svg width="150" height="32" viewBox="0 0 150 32" fill="none" xmlns="http://www.w3.org/2000/svg">
<g id="BvjWwR_00000101101402283779374010000003363816187177049749_">
<g id="Group">
<path id="Vector" d="M18 0.80011C18.3 0.90011 18.5 0.900122 18.8 1.00012C19.7 1.20012 20.6 1.4001 21.5 1.6001C24.5 2.6001 27 4.40012 28.9 7.00012C30.4 9.00012 31.3 11.2001 31.8 13.6001C32.1 14.9001 32.1 16.3001 32 17.6001C31.9 19.0001 31.6 20.3001 31.2 21.6001C30.6 23.3001 29.7 24.8001 28.6 26.1001C27.5 27.5001 26.1 28.6001 24.6 29.6001C23.6 30.2001 22.5 30.7001 21.4 31.1001C20.5 31.4001 19.5 31.6001 18.5 31.8001C18.2 31.9001 17.8 31.9001 17.4 31.9001C17.4 30.6001 17.4 29.3001 17.4 28.0001C18.2 27.8001 19.1 27.7001 19.9 27.5001C17.7 25.3001 15.6 23.2001 13.4 21.0001C15.9 18.5001 18.4 16.0001 20.8 13.6001C21.6 14.4001 22.4 15.2001 23.1 15.9001C21.4 17.6001 19.8 19.2001 18.1 20.9001C19.8 22.6001 21.4 24.2001 23 25.8001C24.7 24.6001 25.9 23.1001 26.8 21.2001C27.7 19.4001 28 17.5001 27.9 15.5001C27.7 12.7001 26.6 10.2001 24.6 8.1001C22.6 6.1001 20.2 4.9001 17.3 4.6001C17.3 4.5001 17.3 4.50015 17.3 4.40015C17.3 3.20015 17.3 2.00011 17.3 0.80011C17.3 0.70011 17.3 0.700098 17.3 0.600098C17.7 0.800098 17.9 0.80011 18 0.80011Z" fill="white"/>
<path id="Vector_2" d="M15.1 0.900208C15.1 2.20021 15.1 3.5002 15.1 4.7002C14.2 4.9002 13.3 5.10021 12.3 5.40021C14.6 7.70021 16.8 9.90018 19 12.0002C16.5 14.5002 14 17.0002 11.6 19.4002C10.8 18.6002 9.99995 17.8002 9.19995 17.0002C10.9 15.3002 12.6 13.6002 14.2 12.0002C12.6 10.4002 11 8.80016 9.30005 7.10016C7.70005 8.30016 6.49995 9.9002 5.69995 11.7002C4.89995 13.4002 4.59995 15.2002 4.69995 17.1002C4.89995 19.9002 6.00002 22.4002 7.90002 24.4002C9.50002 26.1002 12 27.6002 15.1 28.0002C15.1 29.3002 15.1 30.6002 15.1 31.9002C14.8 31.9002 14.5 31.9002 14.3 31.8002C13.2 31.6002 12.2 31.4002 11.2 31.0002C9.39995 30.3002 7.69995 29.3002 6.19995 28.0002C4.19995 26.2002 2.80005 24.1002 1.80005 21.7002C1.40005 20.7002 1.2 19.6002 1 18.5002C0.9 18.2002 0.900024 17.9002 0.900024 17.5002C0.900024 16.7002 0.900024 15.8002 0.900024 15.0002C0.900024 14.7002 1 14.5002 1 14.2002C1.2 13.1002 1.40005 12.0002 1.80005 11.0002C2.50005 9.10018 3.40005 7.50018 4.80005 6.00018C5.80005 4.80018 7.10002 3.80018 8.40002 3.00018C9.30002 2.40018 10.3 2.00016 11.4 1.60016C12.3 1.30016 13.1 1.10021 14 0.900208C14.4 0.900208 14.7 0.800195 15.1 0.700195C15 0.800195 15 0.800208 15.1 0.900208Z" fill="white"/>
<path id="Vector_3" d="M15.1 0.900195C15.1 0.800195 15.1 0.800195 15.1 0.900195C15.2 0.900195 15.2 0.900195 15.1 0.900195Z" fill="white"/>
<path id="Vector_4" d="M99.4 11.6001C100.6 11.6001 101.8 11.6001 103.1 11.6001C103.1 15.2001 103.1 18.7001 103.1 22.3001C103.2 22.3001 103.3 22.3001 103.4 22.3001C105.1 22.3001 106.9 22.3001 108.6 22.3001C108.8 22.3001 108.9 22.3001 109 22.0001C109.4 21.0001 109.8 20.0001 110.2 18.9001C110.6 17.8001 111 16.7001 111.4 15.6001C111.7 14.7001 112.1 13.8001 112.4 12.9001C112.5 12.5001 112.7 12.2001 112.8 11.8001C112.9 11.6001 112.9 11.6001 113.1 11.6001C114.6 11.6001 116 11.6001 117.5 11.6001C119.2 16.0001 120.9 20.4001 122.6 24.8001C122.6 20.4001 122.6 16.0001 122.6 11.6001C124 11.6001 125.4 11.6001 126.7 11.6001C128.4 14.8001 130.1 18.0001 131.8 21.2001C131.8 18.0001 131.8 14.8001 131.8 11.6001C132.9 11.6001 133.9 11.6001 135 11.6001C135 16.1001 135 20.5001 135 25.0001C133.5 25.0001 132.1 25.0001 130.6 25.0001C130.5 25.0001 130.4 24.9001 130.3 24.8001C129.8 23.8001 129.3 22.8001 128.8 21.8001C128.1 20.5001 127.5 19.1001 126.8 17.8001C126.4 17.0001 126.1 16.3001 125.7 15.5001C125.7 15.5001 125.7 15.4001 125.6 15.4001C125.6 18.6001 125.6 21.8001 125.6 25.1001C125.5 25.1001 125.4 25.1001 125.3 25.1001C123.2 25.1001 121.1 25.1001 119 25.1001C118.8 25.1001 118.7 25.0001 118.6 24.8001C118.4 24.0001 118.1 23.3001 117.8 22.5001C117.7 22.3001 117.7 22.3001 117.5 22.3001C115.8 22.3001 114 22.3001 112.3 22.3001C112.1 22.3001 112 22.3001 111.9 22.6001C111.7 23.4001 111.4 24.2001 111.1 25.0001C111.1 25.1001 111 25.2001 110.8 25.2001C106.9 25.2001 103.1 25.2001 99.2 25.2001C99.2 25.2001 99.2 25.2001 99.1 25.2001C99.4 20.6001 99.4 16.1001 99.4 11.6001ZM117.2 20.0001C116.5 17.9001 115.8 15.9001 115.1 13.8001C115.1 13.8001 115.1 13.8001 115 13.8001C114.3 15.8001 113.7 17.9001 113 20.0001C113.1 20.0001 113.2 20.0001 113.2 20.0001C114.5 20.0001 115.8 20.0001 117.2 20.0001Z" fill="white"/>
<path id="Vector_5" d="M53.4 25.1001C52.2 25.1001 50.9 25.1001 49.7 25.1001C49.7 23.1001 49.7 21.1001 49.7 19.1001C48.3 19.1001 46.9 19.1001 45.5 19.1001C45.5 21.1001 45.5 23.1001 45.5 25.1001C44.2 25.1001 43 25.1001 41.8 25.1001C41.8 20.6001 41.8 16.1001 41.8 11.6001C43 11.6001 44.3 11.6001 45.5 11.6001C45.5 13.3001 45.5 15.0001 45.5 16.7001C46.9 16.7001 48.3 16.7001 49.7 16.7001C49.7 15.0001 49.7 13.3001 49.7 11.6001C50.9 11.6001 52.2 11.6001 53.4 11.6001C53.4 16.1001 53.4 20.6001 53.4 25.1001Z" fill="white"/>
<path id="Vector_6" d="M137 25.0001C137 20.5001 137 16.1001 137 11.6001C137.1 11.6001 137.2 11.6001 137.3 11.6001C139.3 11.6001 141.2 11.6001 143.2 11.6001C145.3 11.7001 147.1 12.5001 148.4 14.3001C149.1 15.2001 149.5 16.3001 149.7 17.4001C150 19.9001 149.2 22.0001 147.2 23.6001C146.2 24.4001 145.1 25.0001 143.8 25.0001C141.6 25.1001 139.4 25.0001 137.1 25.0001C137.2 25.0001 137.1 25.0001 137 25.0001ZM140.3 22.9001C141.3 22.9001 142.2 22.9001 143.1 22.9001C144.2 22.9001 145.1 22.4001 145.7 21.5001C146.8 20.0001 146.9 18.4001 146.4 16.7001C145.9 15.0001 144.8 13.7001 142.5 13.8001C141.9 13.8001 141.3 13.8001 140.7 13.8001C140.5 13.8001 140.4 13.8001 140.2 13.8001C140.3 16.8001 140.3 19.8001 140.3 22.9001Z" fill="white"/>
<path id="Vector_7" d="M61.8 25.5001C59.6 25.5001 58.2 24.8001 56.9 23.6001C55.9 22.6001 55.3 21.4001 55 20.1001C54.8 19.5001 54.8 18.8001 54.8 18.1001C54.9 16.4001 55.5 14.9001 56.6 13.6001C57.6 12.4001 59 11.6001 60.5 11.3001C61.6 11.1001 62.7 11.3002 63.8 11.7002C64.9 12.1002 65.8 12.8001 66.6 13.8001C67.4 14.8001 67.9 15.9001 68.1 17.1001C68.3 18.5001 68.2 19.8001 67.7 21.1001C67.2 22.5001 66.3 23.7001 65 24.5001C63.9 25.1001 62.7 25.5001 61.8 25.5001ZM65 18.3001C64.9 17.8001 64.9 17.4001 64.8 17.0001C64.6 15.8001 64.1 14.8001 63.1 14.1001C62.2 13.4001 60.9 13.3001 59.9 14.0001C58.6 14.9001 58.1 16.2002 57.9 17.7002C57.8 18.3002 57.9 18.8002 58 19.4002C58.2 20.5002 58.6 21.6002 59.5 22.4002C60.2 23.0002 61 23.4002 61.9 23.2002C62.9 23.0002 63.6 22.4001 64.1 21.5001C64.7 20.4001 65 19.4001 65 18.3001Z" fill="white"/>
<path id="Vector_8" d="M86 11.6001C86.5 11.6001 86.9 11.6001 87.4 11.6001C88.1 11.6001 88.8 11.6001 89.5 11.6001C89.6 11.6001 89.8 11.7001 89.8 11.8001C90.6 13.3001 91.4 14.8001 92.2 16.3001C92.3 16.6001 92.5 16.8001 92.6 17.1001C92.9 16.5001 93.1 16.0002 93.4 15.4002C93.9 14.4002 94.4 13.4002 94.8 12.4002C94.9 12.1002 95 11.7001 95.3 11.6001C95.5 11.5001 95.9 11.6001 96.3 11.6001C97.2 11.6001 98.1 11.6001 99 11.6001C98.8 11.9001 98.7 12.2001 98.5 12.5001C97.2 14.7001 95.9 16.8001 94.6 19.0001C94.4 19.3001 94.3 19.6001 94.3 20.0001C94.3 21.6001 94.3 23.1001 94.3 24.7001C94.3 24.8001 94.3 24.9001 94.3 25.0001C93.1 25.0001 91.8 25.0001 90.6 25.0001C90.6 24.9001 90.6 24.8001 90.6 24.7001C90.6 23.1001 90.6 21.5002 90.6 19.9002C90.6 19.5002 90.4 19.2002 90.3 18.9002C89.1 16.9002 88 15.0001 86.8 13.0001C86.6 12.6001 86.3 12.2001 86.1 11.8001C86.1 11.8001 86.1 11.7001 86 11.6001Z" fill="white"/>
<path id="Vector_9" d="M73.3 11.6001C73.3 15.2001 73.3 18.7001 73.3 22.3001C75.2 22.3001 77 22.3001 78.9 22.3001C78.9 23.2001 78.9 24.2001 78.9 25.1001C75.8 25.1001 72.7 25.1001 69.6 25.1001C69.6 20.6001 69.6 16.1001 69.6 11.6001C70.9 11.6001 72.1 11.6001 73.3 11.6001Z" fill="white"/>
<path id="Vector_10" d="M79.8 11.5C81 11.5 82.3 11.5 83.5 11.5C83.5 15.1 83.5 18.6 83.5 22.2C85.4 22.2 87.2 22.2 89 22.2C89 23.1 89 24 89 25C85.9 25 82.8 25 79.7 25C79.8 20.6 79.8 16.1 79.8 11.5Z" fill="white"/>
</g>
</g>
</svg>
