<svg width="68" height="69" viewBox="0 0 68 69" fill="none" xmlns="http://www.w3.org/2000/svg">
<g id="Group">
<g id="Group_2">
<path id="Vector" d="M0 58.0001V1.00012C1.4 0.900122 2.79995 0.900146 4.19995 0.900146C39 0.900146 67.3 29.1001 67.3 64.0001C67.3 65.5001 67.2 67.0001 67.1 68.5001H10.4C4.70002 68.4001 0 63.8001 0 58.0001Z" fill="#E98F2D"/>
<g id="Group_3">
<g id="Group_4">
<path id="Vector_2" d="M26.5 22.5C24.9 22.5 23.6 23.8 23.6 25.4V56.8C23.6 58.4 24.9 59.7 26.5 59.7C28.1 59.7 29.4 58.4 29.4 56.8V25.4C29.5 23.8 28.2 22.5 26.5 22.5ZM27.8 56.9C27.8 57.6 27.2 58.2 26.5 58.2C25.8 58.2 25.2 57.6 25.2 56.9V25.5C25.2 24.8 25.8 24.2 26.5 24.2C27.2 24.2 27.8 24.8 27.8 25.5V56.9Z" fill="white"/>
<path id="Vector_3" d="M18.9 28.6001C17.3 28.6001 16 29.9001 16 31.5001V50.6001C16 52.2001 17.3 53.5001 18.9 53.5001C20.5 53.5001 21.8 52.2001 21.8 50.6001V31.5001C21.9 30.0001 20.6 28.6001 18.9 28.6001ZM20.2 50.7001C20.2 51.4001 19.6 52.0001 18.9 52.0001C18.2 52.0001 17.6 51.4001 17.6 50.7001V31.6001C17.6 30.9001 18.2 30.3002 18.9 30.3002C19.6 30.3002 20.2 30.9001 20.2 31.6001V50.7001Z" fill="white"/>
<path id="Vector_4" d="M11.3 35.5C9.70005 35.5 8.40002 36.8 8.40002 38.4V43.7C8.40002 45.3 9.70005 46.6 11.3 46.6C12.9 46.6 14.2 45.3 14.2 43.7V38.4C14.3 36.8 12.9 35.5 11.3 35.5ZM12.6 43.8C12.6 44.5 12 45.1 11.3 45.1C10.6 45.1 10 44.5 10 43.8V38.5C10 37.8 10.6 37.2 11.3 37.2C12 37.2 12.6 37.8 12.6 38.5V43.8Z" fill="white"/>
<path id="Vector_5" d="M41.8 35C40.2 35 38.9 36.3 38.9 37.9V44.2C38.9 45.8 40.2 47.1 41.8 47.1C43.4 47.1 44.7 45.8 44.7 44.2V37.9C44.7 36.4 43.4 35 41.8 35ZM43 44.3C43 45 42.4 45.6 41.7 45.6C41 45.6 40.4 45 40.4 44.3V38C40.4 37.3 41 36.7 41.7 36.7C42.4 36.7 43 37.3 43 38V44.3Z" fill="white"/>
<path id="Vector_6" d="M34.2 28.6001C32.6 28.6001 31.3 29.9001 31.3 31.5001V50.6001C31.3 52.2001 32.6 53.5001 34.2 53.5001C35.8 53.5001 37.1 52.2001 37.1 50.6001V31.5001C37.1 30.0001 35.8 28.6001 34.2 28.6001ZM35.4 50.7001C35.4 51.4001 34.8 52.0001 34.1 52.0001C33.4 52.0001 32.8 51.4001 32.8 50.7001V31.6001C32.8 30.9001 33.4 30.3002 34.1 30.3002C34.8 30.3002 35.4 30.9001 35.4 31.6001V50.7001Z" fill="white"/>
</g>
</g>
</g>
</g>
</svg>
