<svg width="126" height="97" viewBox="0 0 126 97" fill="none" xmlns="http://www.w3.org/2000/svg">
<g id="_x35_cf5KY_00000036943175660124377540000014008746610085562241_">
<g id="Group">
<g id="Group_2">
<path id="Vector" d="M50.1999 16C53.3999 16.6 56.7999 16.9999 59.9999 18.0999C62.5999 18.9999 64.7999 19.0999 67.4999 18.1999C70.1999 17.2999 73.0999 17 75.9999 16.5C75.3999 14.5 76.5998 13.1 78.0998 11.8C81.5998 8.40001 84.9999 4.89997 88.3999 1.49997C90.2999 -0.400033 92.0999 -0.400033 93.9999 1.49997C104.1 11.6 114.3 21.8 124.4 31.9C126.5 34 126.4 35.5999 124.4 37.6999C120.9 41.1999 117.4 44.6999 113.9 48.1999C111.6 50.4999 110.6 50.6 107.8 48.8C107.6 49.4 107.5 49.9999 107.4 50.5999C106 56.4999 103.2 61.6 99.0998 66C98.6998 66.4 98.3999 67.1999 98.4999 67.6999C99.8999 73.5999 95.8999 78.4999 89.7999 78.0999C89.5999 78.0999 89.3998 78.0999 89.0998 78.0999C87.5998 82.6999 84.3999 85 79.1999 84.5C78.5999 86.7 77.3999 88.4999 75.3999 89.6999C73.3999 90.8999 71.1999 91.1999 68.9999 90.5999C68.8999 90.6999 68.6999 90.8 68.6999 90.8C67.0999 96.6 59.2999 98.6 54.6999 93.8C45.9999 84.8 36.9998 75.9999 28.0998 67.0999C23.2998 62.1999 19.9998 56.5 18.5998 49.8C18.4998 49.4 18.3999 49.0999 18.2999 48.6999C15.1999 50.5999 14.4999 50.5 11.8999 48C8.3999 44.5 4.8999 41 1.3999 37.5C-0.400104 35.7 -0.400141 33.8999 1.29986 32.1999C7.29986 26.0999 13.3999 20 19.4999 14C20.8999 12.6 22.6999 12.6999 23.4999 14.0999C24.1999 15.3999 23.6999 16.5 22.6999 17.4C17.6999 22.4 12.5998 27.5 7.59985 32.5C6.89985 33.2 5.99986 33.8 5.29986 34.4C8.89986 38 12.0999 41.3 15.2999 44.5C24.9999 34.8 34.7999 25.1 44.4999 15.4C41.1999 12.1 37.8999 8.89999 34.3999 5.39999C33.4999 6.29999 32.5998 7.39999 31.5998 8.39999C30.3998 9.59999 29.1999 9.59997 28.1999 8.49997C27.1999 7.49997 27.1999 6.19994 28.2999 5.09994C29.5999 3.79994 30.8999 2.49992 32.1999 1.19992C33.6999 -0.300082 35.5998 -0.400058 37.0998 1.09994C41.0998 4.99994 45.0999 8.99997 48.9999 13C49.4999 13.7 49.7999 14.9 50.1999 16ZM57.7999 22.1999C54.1999 21.1999 50.5999 20.8 46.9999 20.9C46.1999 20.9 45.2999 21.3 44.6999 21.8C37.5999 28.9 30.4999 35.9999 23.3999 43.0999C22.8999 43.5999 22.4998 44.7 22.5998 45.4C23.1998 52.8 26.3998 58.9 31.5998 64C39.1998 71.6 46.7999 79.3 54.3999 86.9C55.6999 88.2 56.9999 89.5 58.2999 90.8C59.5999 92 61.0999 92.0999 62.3999 91.1999C64.2999 89.7999 64.4999 87.6 62.6999 85.8C58.4999 81.6 54.2998 77.3999 50.0998 73.0999C49.6998 72.6999 49.2999 72.3 48.9999 71.8C48.3999 70.8 48.5999 69.8999 49.2999 69.0999C50.0999 68.1999 51.0998 67.9999 52.0998 68.5999C52.5998 68.8999 52.9999 69.2999 53.3999 69.6999C58.3999 74.6999 63.2999 79.5999 68.2999 84.5999C69.9999 86.2999 71.8999 86.4 73.3999 84.8C74.7999 83.3 74.6998 81.5 73.0998 79.8C68.4998 75.2 63.8999 70.5 59.1999 65.9C58.8999 65.6 58.4999 65.2 58.1999 64.9C57.4999 63.9 57.5999 62.8999 58.3999 62.0999C59.1999 61.1999 60.2999 60.8999 61.3999 61.6999C61.7999 61.9999 62.1998 62.4 62.5998 62.8C67.7998 68 72.9998 73.2 78.0998 78.3C78.9998 79.2 79.9999 79.9 81.3999 79.5C84.1999 78.8 84.9999 75.7999 82.8999 73.6999C77.4999 68.1999 71.9998 62.8 66.5998 57.4C65.6998 56.5 65.0998 55.7 65.5998 54.4C66.2998 52.7 68.1999 52.4 69.6999 53.9C73.4999 57.6 77.1999 61.3999 80.8999 65.0999C83.2999 67.4999 85.5999 69.8999 87.9999 72.1999C89.5999 73.6999 91.3999 73.7 92.8999 72.3C94.3999 70.8 94.1999 68.9999 92.4999 67.1999C83.0999 57.7999 73.6999 48.4 64.2999 39C64.0999 38.8 63.7999 38.5999 63.1999 38.0999C61.6999 40.1999 60.1999 42.3 58.7999 44.3C57.5999 46 56.4999 47.8999 54.9999 49.1999C51.2999 52.3999 46.3999 51.3 44.1999 46.9C42.4999 43.5 42.7999 40.2 44.4999 36.9C46.4999 32.8 49.2999 29.3 52.6999 26.3C54.1999 24.9 55.9999 23.6999 57.7999 22.1999ZM94.7999 63.3C99.7999 58 102.6 52.2 103.2 45.5C103.3 44.8 102.9 43.8 102.4 43.3C95.4999 36.3 88.4998 29.3 81.5998 22.4C81.0998 21.9 80.1999 21.5 79.3999 21.5C76.4999 21.6 73.5999 21.4999 70.7999 22.0999C60.8999 24.2999 53.4999 29.9 48.6999 38.8C47.6999 40.6 47.3999 42.6 48.2999 44.5C49.1999 46.3 50.5998 46.7 52.0998 45.3C53.1998 44.3 53.9999 42.9999 54.7999 41.6999C56.4999 38.5999 58.6999 36 61.4999 33.9C63.5999 32.2 64.3999 32.2999 66.2999 34.1999C75.4999 43.3999 84.6999 52.4999 93.7999 61.6999C94.0999 62.1999 94.3999 62.7 94.7999 63.3ZM110.6 44.4C113.8 41.2 117 37.9999 120.3 34.6999C110.6 25.0999 100.8 15.2999 91.0998 5.69992C87.9998 8.79992 84.6999 12.1 81.4999 15.4C91.1999 25 100.9 34.7 110.6 44.4Z" fill="#E98F2D"/>
<path id="Vector_2" d="M94.6 16.6C94.6 17.9 93.6 18.8 92.2 18.7C90.7 18.7 89 16.9 89 15.4C89 14.1 90.1 13.2 91.4 13.2C92.9 13.3 94.6 15.1 94.6 16.6Z" fill="#E98F2D"/>
</g>
</g>
</g>
</svg>
