<svg width="93" height="111" viewBox="0 0 93 111" fill="none" xmlns="http://www.w3.org/2000/svg">
<g id="T8axpg_00000049916375233399831200000010397753615412642468_">
<g id="Group">
<path id="Vector" d="M48.9998 0.300049C50.8998 0.600049 52.8998 0.799976 54.7998 1.09998C71.5998 4.39998 83.1998 14.1 89.2998 30.1C94.4998 43.8 93.4998 57.3 85.9998 70.1C81.4998 77.8 75.0997 83.4 67.1997 87.4C66.2997 87.9 65.9998 88.3 65.9998 89.4C66.0998 91.3 65.7997 93.3 65.5997 95.3C65.2997 97.8 64.8997 100.2 64.5997 102.6C64.0997 107 60.6998 110 56.2998 110.1C52.9998 110.1 49.6998 110.1 46.3998 110.1C44.0998 110.1 41.8997 109.5 40.0997 108.1C38.3997 106.7 36.5997 106.8 34.6997 106.9C34.5997 107 34.5997 107.1 34.5997 107.1C34.3997 109.8 33.8998 110.2 31.2998 110.2C28.2998 110.2 25.1997 110.2 22.1997 110.2C20.1997 110.2 19.3998 109.5 19.3998 107.5C19.3998 100.5 19.3998 93.5 19.3998 86.4C19.3998 85.6 19.6998 84.8 19.8998 83.9C18.7998 83 17.3997 82 16.0997 80.8C7.69975 73.5 2.4998 64.4 0.899797 53.3C-2.6002 29.9 12.2998 5.50002 37.7998 0.900024C39.6998 0.600024 41.6997 0.299976 43.5997 0.0999756C45.3997 0.299976 47.1998 0.300049 48.9998 0.300049ZM54.0997 76.7C54.0997 76.7 54.1998 76.8 54.2998 76.8C54.5998 76.7001 54.8997 76.7 55.0997 76.6C61.6997 74.8 67.0997 71.1 71.1997 65.6C80.9997 52.6 80.6998 33.1 65.3998 21.3C62.3998 19 58.9998 17.3 55.2998 16.2C53.7998 15.8 53.1997 14.6 53.6997 13.3C54.0997 12.1 55.2998 11.7 56.7998 12.2C73.6998 17.4 87.0998 35.6 80.2998 56.8C75.9998 70.3 66.7997 78.8 52.5997 81.5C52.2997 81.6 51.9997 81.7001 51.6997 81.8C51.6997 81.9 51.6998 82 51.7998 82.1C53.7998 82.1 55.7998 82.1 57.7998 82.1C59.6998 82.1 61.3998 82.6001 62.8998 83.8C63.4998 84.2001 63.8998 84.3 64.4998 84C80.8998 76.1 92.6998 56.7001 86.4998 35.3C79.3998 10.5 53.3997 -2 29.6997 8C11.5997 15.7 2.39972 35.1 5.19972 53C7.29972 66.8 14.9997 76.7001 27.0997 83.3C27.4997 83.5 27.9998 83.7 28.3998 83.7C29.6998 83.7999 30.9998 83.7999 32.2998 83.7C32.9998 83.6 33.7997 83.3 34.1997 82.8C34.7997 82.2001 35.1997 81.3 35.6997 80.5C35.5997 80.4 35.4998 80.4 35.4998 80.3C35.2998 80.2001 35.1998 80.2 34.9998 80.1C20.2998 74.6 11.9998 64.1 10.8998 48.4C10.0998 36.2 14.5997 26.1 24.0997 18.3C27.6997 15.4 31.8998 13.3 36.2998 12C37.4998 11.6 38.5998 12.2 38.9998 13.3C39.3998 14.4 38.7997 15.5 37.6997 16C37.4997 16.1 37.1998 16.2 36.9998 16.3C24.3998 20.4 16.1997 30.7 15.1997 43.9C13.9997 58.7 23.0998 72 37.2998 76.4C37.9998 76.6 38.3998 76.5 38.7998 75.9C40.3998 73.3 41.9997 70.8 43.5997 68.3C44.3997 67.1001 45.3997 66.8 46.6997 67.4C47.7997 67.9 48.8998 68.5 49.8998 69.1C51.8998 70.2 53.1997 71.9 53.6997 74.1C53.9997 74.9 53.9997 75.7999 54.0997 76.7ZM46.2998 72C46.0998 72.3 45.8997 72.7 45.5997 73C43.1997 76.8 40.7998 80.7 38.2998 84.5C37.5998 85.6 36.4998 86.6 35.3998 87.4C34.8998 87.8 34.5997 88.1001 34.5997 88.8C34.5997 93.1001 34.5997 97.3 34.5997 101.6C34.5997 101.9 34.5997 102.2 34.6997 102.5C34.7997 102.5 34.8998 102.6 34.9998 102.6C35.2998 102.6 35.5998 102.6 35.9998 102.6C38.3998 102.5 40.5997 103 42.6997 104.5C43.6997 105.2 45.1998 105.7 46.4998 105.7C49.8998 105.9 53.2997 105.8 56.6997 105.8C58.5997 105.8 60.1998 104.4 60.4998 102.5C61.0998 98.7 61.5998 94.9 61.9998 91.1C62.2998 88.3 60.4997 86.4 57.6997 86.4C55.2997 86.4 52.7998 86.4 50.3998 86.4C47.6998 86.4 46.0998 83.7001 47.2998 81.3C47.8998 80.2001 48.5997 79.1 49.1997 77.9C49.4997 77.3 49.6998 76.6 49.7998 76C49.7998 73.7 48.0998 72.8 46.2998 72ZM23.7998 88.1C23.7998 94.1 23.7998 100 23.7998 105.9C25.9998 105.9 28.0997 105.9 30.1997 105.9C30.1997 99.9 30.1997 94.1 30.1997 88.1C27.9997 88.1 25.8998 88.1 23.7998 88.1Z" fill="#E98F2D"/>
<path id="Vector_2" d="M32.5995 56.4001C32.6995 54.5001 32.7996 52.7001 32.7996 50.8001C32.7996 50.4001 32.5996 49.8 32.2996 49.5C30.0996 46.7001 27.8995 43.9 25.6995 41.2C24.2995 39.5 24.7996 37.9001 26.8996 37.3001C30.1996 36.4001 33.5996 35.5 36.8996 34.5C37.4996 34.3 38.1996 33.8001 38.4996 33.3001C40.3996 30.5001 42.2995 27.7001 44.1995 24.8001C45.5995 22.7001 47.1996 22.7001 48.4996 24.8001C50.3996 27.6001 52.1995 30.4 54.0995 33.2C54.5995 33.9 55.0996 34.3 55.8996 34.5C59.1996 35.4 62.4996 36.3001 65.7996 37.3001C67.9996 37.9001 68.4995 39.5001 67.0995 41.3001C64.9995 44.0001 62.7995 46.7001 60.6995 49.5C60.2995 50 60.0995 50.7 60.0995 51.2C60.1995 54.7 60.3996 58.1 60.4996 61.6C60.5996 63.9 59.1995 64.9 57.0995 64.1C53.7995 62.9 50.4995 61.6 47.1995 60.5C46.6995 60.3 46.0995 60.3 45.5995 60.5C42.2995 61.7001 38.9995 63 35.5995 64.2C33.4995 65 32.1996 63.9 32.2996 61.7C32.3996 60 32.2996 58.3 32.2996 56.6C32.3996 56.4 32.4995 56.4001 32.5995 56.4001ZM62.0995 40.6C59.2995 39.8 56.5996 39.0001 53.8996 38.3001C52.6996 38.0001 51.7995 37.4001 51.0995 36.3001C49.5995 33.9001 47.9996 31.6 46.3996 29.2C46.0996 29.6 45.8995 29.9 45.6995 30.2C44.2995 32.4 42.8996 34.6 41.2996 36.7C40.8996 37.3 40.0996 37.8 39.3996 38.1C37.6996 38.7 35.8995 39.1 34.1995 39.6C33.0995 39.9 31.9995 40.2 30.6995 40.6C32.2995 42.6 33.6996 44.6001 35.2996 46.3001C36.7996 47.9001 37.1996 49.6001 36.9996 51.8001C36.7996 54.1001 36.8996 56.5001 36.8996 58.9001C37.0996 58.8001 37.4996 58.7 37.7996 58.6C40.1996 57.7 42.5996 56.8 44.9996 56C45.6996 55.8 46.6996 55.8 47.4996 56C49.5996 56.7001 51.6995 57.5001 53.6995 58.3001C54.3995 58.6001 55.0995 58.8 55.6995 59C55.6995 57 55.8995 55 55.6995 53C55.2995 49.9 56.0996 47.5001 58.2996 45.3001C59.7996 43.9001 60.7995 42.2 62.0995 40.6Z" fill="#E98F2D"/>
<path id="Vector_3" d="M46.3995 10.6C47.4995 10.6 48.4994 11.6 48.5994 12.7C48.5994 13.9 47.6995 14.9 46.4995 14.9C45.2995 14.9 44.3995 13.9 44.3995 12.8C44.2995 11.6 45.2995 10.6 46.3995 10.6Z" fill="#E98F2D"/>
</g>
</g>
</svg>
