<svg width="68" height="68" viewBox="0 0 68 68" fill="none" xmlns="http://www.w3.org/2000/svg">
<g id="Group">
<g id="Group_2">
<path id="Vector" d="M0.100098 57.4999V0.499878C1.5001 0.399878 2.90009 0.399902 4.30009 0.399902C39.1001 0.399902 67.4001 28.5999 67.4001 63.4999C67.4001 64.9999 67.3001 66.4999 67.2001 67.9999H10.5001C4.80009 67.9999 0.100098 63.2999 0.100098 57.4999Z" fill="#E98F2D"/>
<g id="Group_3">
<path id="Vector_2" d="M52.5001 33.6998C51.9001 33.3998 51.3001 33.3999 50.8001 33.7999L46.2001 36.6998V35.0999C46.2001 34.5999 45.8001 34.1998 45.3001 34.1998H43.0001V30.0999C43.0001 29.5999 42.6001 29.1998 42.1001 29.1998H38.0001L36.8001 25.9999C36.7001 25.6999 36.3001 25.3999 36.0001 25.3999H26.6001C26.1001 25.3999 25.7001 25.7999 25.7001 26.2999C25.7001 26.7999 26.1001 27.1998 26.6001 27.1998H35.4001L36.2001 29.1998H10.5001C10.0001 29.1998 9.6001 29.5999 9.6001 30.0999V50.8999C9.6001 51.3999 10.0001 51.7999 10.5001 51.7999H12.1001V51.8999L13.0001 54.1998C13.1001 54.4998 13.5001 54.7999 13.8001 54.7999H38.7001C39.1001 54.7999 39.4001 54.5998 39.5001 54.1998L40.4001 51.8999V51.7999H42.0001C42.5001 51.7999 42.9001 51.3999 42.9001 50.8999V47.4999H45.2001C45.7001 47.4999 46.1001 47.0999 46.1001 46.5999V44.2999L50.7001 47.0999C51.0001 47.2999 51.3001 47.3999 51.6001 47.3999C51.9001 47.3999 52.2001 47.2998 52.4001 47.1998C53.0001 46.8998 53.3001 46.2998 53.3001 45.6998V35.2999C53.4001 34.5999 53.1001 33.9998 52.5001 33.6998ZM38.2001 52.8999H14.5001L14.0001 51.6998H38.6001L38.2001 52.8999ZM41.3001 49.8999H11.4001V30.8999H41.3001V49.8999ZM44.5001 45.6998H43.1001V35.8999H44.5001V45.6998ZM51.7001 45.4999L46.3001 42.0999V38.6998L51.7001 35.2999V45.4999Z" fill="white"/>
<path id="Vector_3" d="M15.7003 45.3H24.7003C25.2003 45.3 25.6003 44.9 25.6003 44.4V36.4C25.6003 35.9 25.2003 35.5 24.7003 35.5H15.7003C15.2003 35.5 14.8003 35.9 14.8003 36.4V44.4C14.8003 44.9 15.2003 45.3 15.7003 45.3ZM16.6003 37.3H23.8003V43.5H16.6003V37.3Z" fill="white"/>
<path id="Vector_4" d="M29.7003 43.0997H37.8003C38.3003 43.0997 38.7003 42.6997 38.7003 42.1997V38.6997C38.7003 38.1997 38.3003 37.7998 37.8003 37.7998H29.7003C29.2003 37.7998 28.8003 38.1997 28.8003 38.6997V42.1997C28.8003 42.6997 29.2003 43.0997 29.7003 43.0997ZM30.6003 39.4998H37.0003V41.2998H30.6003V39.4998Z" fill="white"/>
</g>
</g>
</g>
</svg>
