<svg width="157" height="94" viewBox="0 0 157 94" fill="none" xmlns="http://www.w3.org/2000/svg">
<g id="Group">
<g id="Group_2">
<path id="Vector" d="M79.9994 78.8C62.8994 78.8 48.8994 64.9 48.8994 47.7C48.8994 30.5 62.7994 16.6001 79.9994 16.6001C97.1994 16.6001 111.099 30.5 111.099 47.7C111.099 64.9 97.0994 78.8 79.9994 78.8ZM79.9994 23.6001C66.6994 23.6001 55.8994 34.4 55.8994 47.7C55.8994 61 66.6994 71.8 79.9994 71.8C93.2994 71.8 104.099 61 104.099 47.7C104.099 34.4 93.2994 23.6001 79.9994 23.6001Z" fill="#E98F2D"/>
</g>
<g id="Group_3">
<path id="Vector_2" d="M73.3994 65.1002C72.7994 65.1002 72.2994 65 71.7994 64.7C70.6994 64.1 69.8994 62.9002 69.8994 61.6002V33.5001C69.8994 32.2001 70.5994 31 71.7994 30.4C72.8994 29.8 74.2994 29.9002 75.3994 30.6002L96.0994 44.7C97.0994 45.4 97.5994 46.4002 97.5994 47.6002C97.5994 48.8002 96.9994 49.8001 96.0994 50.5001L75.3994 64.6002C74.6994 64.9002 74.0994 65.1002 73.3994 65.1002ZM76.8994 40.0001V54.9L87.8994 47.4L76.8994 40.0001Z" fill="#E98F2D"/>
</g>
<g id="Group_4">
<g id="Group_5">
<path id="Vector_3" d="M17.4995 94.0001C16.3995 94.0001 15.2995 93.5001 14.5995 92.5001C5.39949 79.3001 0.499512 63.8 0.499512 47.7C0.499512 31.1 5.59956 15.2001 15.2996 1.80014C16.3996 0.200144 18.5995 -0.0999051 20.1995 1.00009C21.7995 2.10009 22.0995 4.3 20.9995 5.9C12.1995 18.1 7.49951 32.6 7.49951 47.7C7.49951 62.4 11.8996 76.5001 20.2996 88.5001C21.3996 90.1001 20.9995 92.3 19.3995 93.4C18.8995 93.8 18.1995 94.0001 17.4995 94.0001Z" fill="#E98F2D"/>
</g>
<g id="Group_6">
<path id="Vector_4" d="M26.3995 80.6001C20.2995 70.7001 16.9995 59.4 16.9995 47.8C16.9995 35.7 20.4995 23.9 27.0995 13.8L32.9995 17.6001C27.0995 26.6001 23.9995 37 23.9995 47.8C23.9995 58.1 26.8996 68.1999 32.2996 76.8999L26.3995 80.6001Z" fill="#E98F2D"/>
</g>
<g id="Group_7">
<path id="Vector_5" d="M29.3995 82.1999C28.1995 82.1999 27.0995 81.6001 26.3995 80.6001C20.2995 70.7001 16.9995 59.4 16.9995 47.8C16.9995 35.7 20.4995 23.9 27.0995 13.8C28.1995 12.2 30.2995 11.7 31.8995 12.8C33.4995 13.9 33.9995 16.0001 32.8995 17.6001C26.9995 26.6001 23.8995 37 23.8995 47.8C23.8995 58.1 26.7995 68.1999 32.1995 76.8999C33.1995 78.4999 32.6995 80.6999 31.0995 81.6999C30.5995 81.9999 29.9995 82.1999 29.3995 82.1999Z" fill="#E98F2D"/>
</g>
<g id="Group_8">
<path id="Vector_6" d="M38.6995 67.7C35.5995 61.4 33.9995 54.7 33.9995 47.7C33.9995 40.3 35.7996 32.8999 39.2996 26.3999L45.4995 29.7C42.4995 35.2 40.9995 41.4 40.9995 47.7C40.9995 53.6 42.2995 59.3001 44.9995 64.6001L38.6995 67.7Z" fill="#E98F2D"/>
</g>
<g id="Group_9">
<path id="Vector_7" d="M41.8997 69.7C40.5997 69.7 39.3997 69.0001 38.7997 67.8001C35.6997 61.5001 34.0996 54.8001 34.0996 47.8001C34.0996 40.4001 35.8997 33 39.3997 26.5C40.2997 24.8 42.3996 24.2001 44.0996 25.1001C45.7996 26.0001 46.3996 28.1001 45.4996 29.8001C42.4996 35.3001 40.9996 41.5001 40.9996 47.8001C40.9996 53.7001 42.2996 59.4 44.9996 64.7C45.8996 66.4 45.1997 68.4999 43.3997 69.3999C42.8997 69.5999 42.3997 69.7 41.8997 69.7Z" fill="#E98F2D"/>
</g>
</g>
<g id="Group_10">
<g id="Group_11">
<path id="Vector_8" d="M140.1 94.0001C139.4 94.0001 138.7 93.8 138.1 93.4C136.5 92.3 136.1 90.1001 137.2 88.5001C145.6 76.5001 150 62.4 150 47.7C150 32.6 145.3 18.1 136.5 5.9C135.4 4.3 135.7 2.10009 137.3 1.00009C138.9 -0.0999051 141.1 0.200144 142.2 1.80014C151.9 15.2001 157 31.1 157 47.7C157 63.8 152.1 79.3001 142.9 92.5001C142.3 93.5001 141.2 94.0001 140.1 94.0001Z" fill="#E98F2D"/>
</g>
<g id="Group_12">
<path id="Vector_9" d="M131.3 80.6001L125.4 76.8999C130.9 68.1999 133.7 58.1 133.7 47.8C133.7 37 130.6 26.6001 124.7 17.6001L130.6 13.8C137.2 23.9 140.7 35.7 140.7 47.8C140.7 59.3 137.4 70.7001 131.3 80.6001Z" fill="#E98F2D"/>
</g>
<g id="Group_13">
<path id="Vector_10" d="M128.3 82.1999C127.7 82.1999 127 81.9999 126.5 81.6999C124.9 80.6999 124.4 78.4999 125.4 76.8999C130.9 68.1999 133.7 58.1 133.7 47.8C133.7 37 130.6 26.6001 124.7 17.6001C123.6 16.0001 124.1 13.8 125.7 12.8C127.3 11.7 129.5 12.2 130.5 13.8C137.1 23.9 140.6 35.7 140.6 47.8C140.6 59.4 137.4 70.8001 131.2 80.6001C130.6 81.6001 129.5 82.1999 128.3 82.1999Z" fill="#E98F2D"/>
</g>
<g id="Group_14">
<path id="Vector_11" d="M118.9 67.7L112.6 64.6001C115.2 59.3001 116.6 53.6 116.6 47.7C116.6 41.4 115 35.2 112.1 29.7L118.3 26.3999C121.8 32.8999 123.6 40.3 123.6 47.7C123.6 54.7 122 61.5 118.9 67.7Z" fill="#E98F2D"/>
</g>
<g id="Group_15">
<path id="Vector_12" d="M115.8 69.7C115.3 69.7 114.7 69.6001 114.2 69.3001C112.5 68.4001 111.8 66.3001 112.6 64.6001C115.2 59.3001 116.6 53.6 116.6 47.7C116.6 41.4 115 35.2 112.1 29.7C111.2 28 111.8 25.9 113.5 25C115.2 24.1 117.3 24.6999 118.2 26.3999C121.7 32.8999 123.5 40.3 123.5 47.7C123.5 54.7 121.9 61.5 118.8 67.7C118.3 69 117.1 69.7 115.8 69.7Z" fill="#E98F2D"/>
</g>
</g>
</g>
</svg>
