<svg width="147" height="150" viewBox="0 0 147 150" fill="none" xmlns="http://www.w3.org/2000/svg">
<g id="Group">
<g id="Group_2">
<g id="Group_3">
<g id="Group_4">
<path id="Vector" d="M73.3 0.200195C66.8 0.200195 61.5 5.50018 61.5 12.0002V138C61.5 144.5 66.8 149.8 73.3 149.8C79.8 149.8 85.1 144.5 85.1 138V12.0002C85.1 5.50018 79.8 0.200195 73.3 0.200195ZM78.4 138C78.4 140.8 76.1 143.1 73.3 143.1C70.5 143.1 68.2 140.8 68.2 138V12.0002C68.2 9.20018 70.5 6.90018 73.3 6.90018C76.1 6.90018 78.4 9.20018 78.4 12.0002V138Z" fill="white"/>
<path id="Vector_2" d="M42.8 25.0002C36.3 25.0002 31 30.3002 31 36.8002V113.4C31 119.9 36.3 125.2 42.8 125.2C49.3 125.2 54.6 119.9 54.6 113.4V36.8002C54.6 30.2002 49.3 25.0002 42.8 25.0002ZM47.9 113.3C47.9 116.1 45.6 118.4 42.8 118.4C40 118.4 37.7 116.1 37.7 113.3V36.7003C37.7 33.9003 40 31.6003 42.8 31.6003C45.6 31.6003 47.9 33.9003 47.9 36.7003V113.3Z" fill="white"/>
<path id="Vector_3" d="M12.3 52.5002C5.80005 52.5002 0.5 57.8002 0.5 64.3002V85.7003C0.5 92.2003 5.80005 97.5002 12.3 97.5002C18.8 97.5002 24.1 92.2003 24.1 85.7003V64.3002C24.1 57.8002 18.8 52.5002 12.3 52.5002ZM17.4 85.7003C17.4 88.5003 15.1 90.8002 12.3 90.8002C9.50005 90.8002 7.19995 88.5003 7.19995 85.7003V64.3002C7.19995 61.5002 9.50005 59.2003 12.3 59.2003C15.1 59.2003 17.4 61.5002 17.4 64.3002V85.7003Z" fill="white"/>
<path id="Vector_4" d="M134.4 50.6001C127.9 50.6001 122.6 55.9001 122.6 62.4001V87.6001C122.6 94.1001 127.9 99.4001 134.4 99.4001C140.9 99.4001 146.2 94.1001 146.2 87.6001V62.4001C146.1 55.9001 140.9 50.6001 134.4 50.6001ZM139.5 87.6001C139.5 90.4001 137.2 92.7001 134.4 92.7001C131.6 92.7001 129.3 90.4001 129.3 87.6001V62.4001C129.3 59.6001 131.6 57.3001 134.4 57.3001C137.2 57.3001 139.5 59.6001 139.5 62.4001V87.6001Z" fill="white"/>
<path id="Vector_5" d="M103.9 25.0002C97.4 25.0002 92.1 30.3002 92.1 36.8002V113.4C92.1 119.9 97.4 125.2 103.9 125.2C110.4 125.2 115.7 119.9 115.7 113.4V36.8002C115.6 30.2002 110.3 25.0002 103.9 25.0002ZM108.9 113.3C108.9 116.1 106.6 118.4 103.8 118.4C101 118.4 98.7 116.1 98.7 113.3V36.7003C98.7 33.9003 101 31.6003 103.8 31.6003C106.6 31.6003 108.9 33.9003 108.9 36.7003V113.3Z" fill="white"/>
</g>
</g>
</g>
</g>
</svg>
