<svg width="185" height="233" viewBox="0 0 185 233" fill="none" xmlns="http://www.w3.org/2000/svg">
<g id="teJN0V_00000057131946441095262250000003808552420946785702_">
<g id="Group">
<g id="Group_2">
<g id="Group_3">
<path id="Vector" d="M107.7 0C109.6 1.2 110 2.9 110 5C109.9 10.4 110 15.7 110 21.1C110 25.3 109.1 26.2 104.8 26.3C104.5 26.3 104.2 26.3 103.5 26.4C104.2 26.9 104.7 27.2 105.2 27.5C115.9 33.1 126.7 38.6 137.4 44.2C138.6 44.8 139.4 44.9 140.5 43.9C144.3 40.5 148.9 39.5 153.6 41.8C161.9 45.8 170.1 50 178.2 54.5C184.2 57.9 185.9 64.9 182.7 71.3C179.4 77.8 172.9 80.7 166.6 77.8C158 73.8 149.5 69.4 141.2 64.7C136.9 62.3 135.3 58 135.8 53C135.9 51.9 135.9 51.2 134.8 50.6C121.2 43.6 107.7 36.6 94.1001 29.6C93.9001 29.5 93.7001 29.5 93.2001 29.4C93.2001 34.9 93.2001 40.2 93.2001 46C95.6001 46 98.1001 46 100.5 46C110.6 45.8 110 46 110 55.6C110 70.2 110 84.8 110 99.4C110 101.1 110.4 103 111.1 104.6C128.8 145 146.5 185.4 164.2 225.8C164.5 226.4 164.8 227 165 227.7C165.8 230.3 164.5 232.4 161.8 232.5C156.5 232.6 151.2 232.6 145.9 232.5C143.9 232.5 143.2 231 142.4 229.4C136 214.7 129.5 200.1 123.1 185.4C113.9 164.4 104.6 143.4 95.4002 122.3C95.1002 121.7 94.8001 121.1 94.1001 120.5C94.1001 121.3 94.1001 122 94.1001 122.8C94.1001 157.5 94.1001 192.2 94.1001 227C94.1001 231.7 93.3001 232.6 88.6001 232.6C84.7001 232.6 80.7002 232.6 76.8002 232.6C72.4002 232.6 71.4002 231.6 71.4002 227.3C71.4002 205.1 71.4002 182.8 71.4002 160.6C71.4002 148.1 71.4002 135.6 71.4002 123.2C71.4002 122.4 71.4002 121.6 71.4002 120.7C71.3002 120.7 71.2001 120.6 71.1001 120.6C70.7001 121.3 70.4001 122 70.1001 122.7C54.6001 158 39.1001 193.2 23.7001 228.5C22.4001 231.5 20.7002 232.9 17.4002 232.7C13.4002 232.4 9.40017 232.6 5.40017 232.6C0.900169 232.6 -0.499806 230.5 1.30019 226.4C18.5002 187.1 35.7001 147.8 53.1001 108.6C54.9001 104.5 56.1001 100.5 55.7001 96C55.5001 92.9 55.6001 89.8 55.7001 86.7C55.8001 84 57.1001 82.5 59.1001 82.5C61.2001 82.5 62.6001 84 62.6001 86.7C62.7001 90.9 62.6001 95.2 62.6001 99.5C76.1001 99.5 89.5001 99.5 103 99.5C103 84.1 103 68.8 103 53.3C89.6001 53.3 76.3001 53.3 62.6001 53.3C62.6001 55.3 62.6001 57.3 62.6001 59.3C62.6001 61.3 61.8001 62.9 59.7001 63.3C57.8001 63.7 55.9002 62.3 55.8002 60.1C55.6002 56.6 55.6002 53 55.8002 49.4C55.9002 47.2 57.4001 46.2 60.0001 46.2C64.2001 46.1 68.3001 46.2 72.7001 46.2C72.7001 39.7 72.7001 33.3 72.7001 26.6C70.5001 26.6 68.3001 26.6 66.1001 26.6C64.0001 26.6 61.9001 26.6 59.7001 26.6C57.3001 26.5 55.9002 25.4 55.8002 23.1C55.7002 16.7 55.7002 10.2 55.9002 3.79999C55.9002 2.59999 57.2002 1.39999 57.9002 0.299988C74.4002 -1.2219e-05 91.1001 0 107.7 0ZM87.1001 225.5C87.1001 185.7 87.1001 146 87.1001 106.4C84.2001 106.4 81.4001 106.4 78.6001 106.4C78.6001 146.2 78.6001 185.8 78.6001 225.5C81.5001 225.5 84.2001 225.5 87.1001 225.5ZM69.7001 106.2C67.4001 106.2 65.5001 106.3 63.7001 106.2C62.0001 106 61.2001 106.8 60.5001 108.3C44.2001 145.5 27.9001 182.7 11.5001 219.9C10.7001 221.7 10.0001 223.5 9.10012 225.6C11.3001 225.6 13.1001 225.5 15.0001 225.6C16.9001 225.8 17.6002 225 18.3002 223.4C31.6002 193 45.0002 162.5 58.3002 132.1C62.1002 123.6 65.8001 115.1 69.7001 106.2ZM156.5 225.5C156.1 224.4 155.8 223.7 155.5 223C146 201.4 136.5 179.7 127 158.1C119.7 141.4 112.4 124.8 105 108.1C104.7 107.4 103.8 106.4 103.2 106.3C101 106.1 98.7001 106.2 96.1001 106.2C96.5001 107.2 96.8001 108 97.1001 108.7C107.3 132.1 117.6 155.4 127.8 178.8C134.4 193.7 140.9 208.7 147.5 223.6C147.8 224.3 148.5 225.3 149.1 225.4C151.5 225.6 153.9 225.5 156.5 225.5ZM102.9 19.4C102.9 15.3 102.9 11.2 102.9 7C89.5002 7 76.2001 7 62.7001 7C62.7001 11.2 62.7001 15.2 62.7001 19.4C76.1001 19.4 89.4002 19.4 102.9 19.4ZM177.2 64.9C177.2 62.3 175.7 60.7 173.5 59.6C166.3 55.9 159 52.1 151.7 48.4C148.2 46.6 145.2 47.7 143.4 51.2C141.6 54.7 142.4 57.7 146 59.6C153.3 63.4 160.6 67.2 167.9 70.9C172.6 73.2 177.2 70.1 177.2 64.9ZM79.7001 45.8C81.9001 45.8 83.8002 45.8 85.8002 45.8C85.8002 39.3 85.8002 32.9 85.8002 26.5C83.7002 26.5 81.7001 26.5 79.7001 26.5C79.7001 33 79.7001 39.3 79.7001 45.8Z" fill="white"/>
</g>
</g>
</g>
</g>
</svg>
