<svg width="265" height="78" viewBox="0 0 265 78" fill="none" xmlns="http://www.w3.org/2000/svg">
<path d="M156.699 75.0001H155.899L156.599 70.4001H157.399L156.699 75.0001ZM157.799 68.7001C157.799 69.0001 157.499 69.3001 157.199 69.3001C156.899 69.3001 156.699 69.1001 156.699 68.7001C156.699 68.4001 157.099 68.1001 157.399 68.1001C157.699 68.2001 157.899 68.4001 157.799 68.7001Z" fill="white"/>
<path d="M159.1 74.9999H158.3L158.9 71.1999H158.4L158.5 70.4999H159L159.3 68.8999H160.1L159.8 70.4999H160.6L160.5 71.1999H159.7L159.1 74.9999Z" fill="white"/>
<path d="M164.6 75.0001H163.8L164.5 70.4001H165.3L164.6 75.0001ZM165.7 68.7001C165.7 69.0001 165.4 69.3001 165.1 69.3001C164.8 69.3001 164.6 69.1001 164.6 68.7001C164.6 68.4001 164.9 68.1001 165.3 68.1001C165.7 68.1001 165.8 68.4001 165.7 68.7001Z" fill="white"/>
<path d="M168.599 71.5002C168.499 71.3002 168.299 71.0002 168.099 71.0002C167.799 71.0002 167.499 71.2002 167.499 71.5002C167.399 71.9002 167.899 72.1002 168.399 72.3002C168.899 72.5002 169.399 72.8002 169.199 73.6002C169.099 74.5002 168.299 75.1002 167.399 75.1002C166.599 75.1002 166.099 74.7002 165.999 73.9002L166.699 73.6002C166.799 74.0002 166.999 74.3002 167.499 74.3002C167.899 74.3002 168.299 74.0002 168.299 73.6002C168.499 72.6002 166.299 72.9002 166.599 71.5002C166.699 70.7002 167.399 70.2002 168.199 70.2002C168.699 70.2002 169.099 70.6002 169.299 71.0002L168.599 71.5002Z" fill="white"/>
<path d="M174.499 70.9999C174.799 70.5999 175.299 70.3999 175.699 70.3999C176.199 70.3999 176.699 70.6999 176.799 71.1999C177.099 70.6999 177.699 70.3999 178.299 70.3999C179.499 70.3999 179.599 71.3999 179.399 72.2999L178.999 74.9999H178.199L178.599 72.2999C178.699 71.6999 178.799 70.9999 177.999 70.9999C177.099 70.9999 176.899 71.8999 176.799 72.5999L176.399 74.9999H175.599L175.999 72.3999C176.099 71.7999 176.199 70.9999 175.399 70.9999C174.499 70.9999 174.199 71.8999 174.099 72.5999L173.699 74.9999H172.899L173.599 70.3999H174.399L174.499 70.9999Z" fill="white"/>
<path d="M180.499 72.7999C180.699 71.4999 181.899 70.3999 183.299 70.3999C184.599 70.3999 185.499 71.4999 185.299 72.7999C185.099 74.0999 183.899 75.1999 182.499 75.1999C181.099 75.1999 180.299 74.0999 180.499 72.7999ZM181.299 72.6999C181.199 73.5999 181.699 74.3999 182.699 74.3999C183.699 74.3999 184.399 73.5999 184.599 72.6999C184.699 71.7999 184.199 70.9999 183.199 70.9999C182.199 71.0999 181.399 71.7999 181.299 72.6999Z" fill="white"/>
<path d="M187.399 70.9999C187.799 70.5999 187.999 70.3999 188.499 70.3999C188.799 70.3999 188.999 70.4999 189.199 70.5999L188.699 71.2999C188.599 71.1999 188.499 71.0999 188.299 71.0999C187.399 71.0999 187.199 72.1999 187.099 72.7999L186.699 75.0999H185.899L186.599 70.4999H187.399V70.9999Z" fill="white"/>
<path d="M190 72.8998C189.9 73.6998 190.4 74.3998 191.3 74.3998C192 74.3998 192.4 73.9998 192.8 73.4998L193.4 73.8998C192.8 74.6998 192 75.1998 191.1 75.1998C189.7 75.1998 189 74.1998 189.2 72.7998C189.4 71.3998 190.4 70.2998 191.8 70.2998C193.3 70.2998 193.9 71.4998 193.6 72.8998H190ZM192.8 72.1998C192.8 71.4998 192.3 70.9998 191.7 70.9998C191 70.9998 190.3 71.4998 190.1 72.1998H192.8Z" fill="white"/>
<path d="M198.1 74.9999H197.3L197.9 71.1999H197.4L197.5 70.4999H198L198.3 68.8999H199.1L198.8 70.4999H199.6L199.5 71.1999H198.7L198.1 74.9999Z" fill="white"/>
<path d="M201.699 67L201.099 71C201.499 70.6 201.999 70.3 202.499 70.3C203.799 70.3 203.899 71.2 203.699 72.3L203.299 75H202.499L202.899 72.4C202.999 71.7 203.099 71 202.199 71C201.099 71 200.899 72 200.799 72.8L200.499 75H199.699L200.999 67H201.699Z" fill="white"/>
<path d="M208.9 74.9999H208.1L208.2 74.3999C207.7 74.8999 207.1 75.1999 206.5 75.1999C205.2 75.1999 204.5 74.0999 204.7 72.7999C204.9 71.4999 205.9 70.3999 207.3 70.3999C207.9 70.3999 208.4 70.6999 208.7 71.1999L208.8 70.4999H209.6L208.9 74.9999ZM205.5 72.6999C205.4 73.5999 205.8 74.3999 206.7 74.3999C207.7 74.3999 208.4 73.5999 208.5 72.6999C208.6 71.7999 208.2 70.9999 207.2 70.9999C206.4 71.0999 205.7 71.7999 205.5 72.6999Z" fill="white"/>
<path d="M211.799 70.9998C212.199 70.5998 212.699 70.2998 213.199 70.2998C214.499 70.2998 214.599 71.1998 214.399 72.2998L213.999 74.9998H213.199L213.599 72.3998C213.699 71.6998 213.799 70.9998 212.899 70.9998C211.799 70.9998 211.599 71.9998 211.499 72.7998L211.199 74.9998H210.399L211.099 70.3998H211.899L211.799 70.9998Z" fill="white"/>
<path d="M219.299 74.9999H218.499L219.099 71.1999H218.599L218.699 70.4999H219.199L219.499 68.8999H220.299L219.999 70.4999H220.799L220.699 71.1999H219.899L219.299 74.9999Z" fill="white"/>
<path d="M221.599 72.8998C221.499 73.6998 221.999 74.3998 222.899 74.3998C223.599 74.3998 223.999 73.9998 224.399 73.4998L224.999 73.8998C224.399 74.6998 223.599 75.1998 222.699 75.1998C221.299 75.1998 220.599 74.1998 220.799 72.7998C220.999 71.3998 221.999 70.2998 223.399 70.2998C224.899 70.2998 225.499 71.4998 225.199 72.8998H221.599ZM224.399 72.1998C224.399 71.4998 223.899 70.9998 223.299 70.9998C222.599 70.9998 221.899 71.4998 221.699 72.1998H224.399Z" fill="white"/>
<path d="M229.8 71.7998C229.5 71.2998 229.1 70.9998 228.5 70.9998C227.6 70.9998 226.8 71.7998 226.6 72.6998C226.5 73.5998 227 74.3998 227.9 74.3998C228.6 74.3998 229 74.0998 229.5 73.5998L229.3 74.5998C228.8 74.8998 228.3 75.0998 227.8 75.0998C226.4 75.0998 225.5 74.0998 225.7 72.6998C225.9 71.2998 227.2 70.2998 228.5 70.2998C229 70.2998 229.5 70.4998 229.8 70.7998V71.7998Z" fill="white"/>
<path d="M232.6 67L232 71C232.4 70.6 232.9 70.3 233.4 70.3C234.7 70.3 234.8 71.2 234.6 72.3L234.2 75H233.4L233.8 72.4C233.9 71.7 234 71 233.1 71C232 71 231.8 72 231.7 72.8L231.4 75H230.6L231.9 67H232.6Z" fill="white"/>
<path d="M237 70.9998C237.4 70.5998 237.9 70.2998 238.4 70.2998C239.7 70.2998 239.8 71.1998 239.6 72.2998L239.2 74.9998H238.4L238.8 72.3998C238.9 71.6998 239 70.9998 238.1 70.9998C237 70.9998 236.8 71.9998 236.7 72.7998L236.4 74.9998H235.6L236.3 70.3998H237.1L237 70.9998Z" fill="white"/>
<path d="M240.699 72.7999C240.899 71.4999 242.099 70.3999 243.499 70.3999C244.899 70.3999 245.699 71.4999 245.499 72.7999C245.299 74.0999 244.099 75.1999 242.699 75.1999C241.299 75.1999 240.499 74.0999 240.699 72.7999ZM241.499 72.6999C241.399 73.5999 241.899 74.3999 242.899 74.3999C243.899 74.3999 244.599 73.5999 244.799 72.6999C244.899 71.7999 244.399 70.9999 243.399 70.9999C242.399 71.0999 241.599 71.7999 241.499 72.6999Z" fill="white"/>
<path d="M246.999 75H246.199L247.499 67H248.299L246.999 75Z" fill="white"/>
<path d="M248.4 72.7999C248.6 71.4999 249.8 70.3999 251.2 70.3999C252.6 70.3999 253.4 71.4999 253.2 72.7999C253 74.0999 251.8 75.1999 250.4 75.1999C249 75.1999 248.2 74.0999 248.4 72.7999ZM249.2 72.6999C249.1 73.5999 249.6 74.3999 250.6 74.3999C251.6 74.3999 252.3 73.5999 252.5 72.6999C252.6 71.7999 252.1 70.9999 251.1 70.9999C250.1 71.0999 249.3 71.7999 249.2 72.6999Z" fill="white"/>
<path d="M258.099 74.8C257.999 75.5 257.899 76.2 257.299 76.8C256.799 77.3 256.099 77.6 255.399 77.6C254.099 77.6 253.299 76.8 253.499 75.5H254.299C254.199 76.3 254.699 76.9 255.499 76.9C256.699 76.9 257.099 76 257.299 75L257.399 74.5C256.999 75 256.299 75.3 255.699 75.3C254.399 75.3 253.699 74.2 253.899 72.9C254.099 71.6 255.099 70.5 256.499 70.5C257.099 70.5 257.599 70.8 257.899 71.3L257.999 70.6H258.799L258.099 74.8ZM254.599 72.7C254.499 73.6 254.899 74.4 255.799 74.4C256.799 74.4 257.499 73.6 257.599 72.7C257.699 71.8 257.299 71 256.299 71C255.499 71.1 254.799 71.8 254.599 72.7Z" fill="white"/>
<path d="M259.499 70.5H260.399L261.499 73.8L263.499 70.5H264.399L259.899 77.6H258.999L260.999 74.6L259.499 70.5Z" fill="white"/>
<path d="M57.7 73.1L57 74.5C56.5 75.9 55 76.6 52.5 76.6H47.6H43.5L44.7 74.3L48.3 67.2L49.5 65H57.9C58.2 65 58.5 65 58.8 65.1C59.1 65.1 59.3 65.2 59.5 65.2C60.1 65.5 60.4 65.9 60.5 66.7V67.3L59.6 69C59.4 69.5 58.7 70.1 57.5 70.8C58 71.5 58.1 72.3 57.7 73.1ZM54.3 74.4L55.2 72.5C55.6 71.8 55.4 71.4 54.7 71.4H48.9L47.3 74.5L47 75H53C53.7 75.1 54.1 74.9 54.3 74.4ZM56.8 66.6H51.4L51 67.3L49.6 69.8H55.5C56.2 69.8 56.8 69.4 57.2 68.6L57.8 67.4C57.7 66.9 57.4 66.6 56.8 66.6Z" fill="white"/>
<path d="M64.5004 70.2001C64.0004 70.2001 63.5004 70.4001 63.3004 70.7001L61.4004 74.5001L60.4004 76.5001H57.9004L58.7004 74.9001L61.0004 70.3001C61.4004 69.2001 62.4004 68.7001 63.8004 68.8001H70.4004L69.6004 70.3001H66.5004H64.5004V70.2001Z" fill="white"/>
<path d="M78.9998 74.9998C78.4998 75.9998 77.2998 76.5998 75.4998 76.5998H71.2998C69.6998 76.5998 68.7998 76.1998 68.7998 75.4998C68.7998 75.3998 68.7998 75.1998 68.8998 74.9998L71.2998 70.1998C71.6998 69.2998 72.5998 68.7998 73.9998 68.7998H78.1998C80.0998 68.7998 81.0998 69.2998 81.1998 70.2998L78.9998 74.9998ZM74.6998 70.1998C74.1998 70.1998 73.6998 70.3998 73.4998 70.6998L71.5998 74.4998C71.5998 74.7998 71.8998 74.9998 72.3998 74.9998H75.7998C76.0998 74.9998 76.3998 74.7998 76.5998 74.4998L78.5998 70.6998C78.5998 70.3998 78.2998 70.1998 77.8998 70.1998H76.8998H74.6998Z" fill="white"/>
<path d="M88.9998 71.8002H89.4998L90.0998 70.7002C90.0998 70.4002 89.7998 70.2002 89.3998 70.2002H82.7998L83.4998 68.7002H89.7998C91.6998 68.7002 92.6998 69.2002 92.7998 70.2002L90.4998 74.9002C89.9998 75.9002 88.7998 76.5002 86.9998 76.5002H82.7998C81.1998 76.5002 80.2998 76.1002 80.2998 75.4002C80.2998 75.3002 80.2998 75.1002 80.3998 74.9002L81.5998 72.5002C81.7998 72.0002 82.2998 71.8002 82.7998 71.8002H88.9998ZM88.7998 73.4002H87.2998H83.6998L83.0998 74.6002C83.0998 74.9002 83.3998 75.1002 83.8998 75.1002H87.2998C87.5998 75.1002 87.8998 74.9002 88.1998 74.6002L88.7998 73.4002Z" fill="white"/>
<path d="M91.7998 75.0001L94.0998 70.3001C94.4998 69.3001 95.6998 68.7001 97.5998 68.7001H102.7L104.3 65.6001H106.6L104.1 70.3001L101.7 75.1001C101.3 76.0001 100.4 76.5001 98.9998 76.5001H94.7998C92.8998 76.5001 91.8998 76.0001 91.7998 75.0001ZM96.2998 75.0001H98.3998C98.8998 75.0001 99.3998 74.8001 99.5998 74.5001L101.5 70.7001C101.5 70.4001 101.2 70.2001 100.7 70.2001H97.2998C96.9998 70.2001 96.6998 70.4001 96.4998 70.7001L94.4998 74.5001C94.4998 74.8001 94.7998 75.0001 95.1998 75.0001H96.2998Z" fill="white"/>
<path d="M111.4 70.2002H109.3C108.8 70.2002 108.3 70.4002 108.1 70.7002L106.2 74.5002C106.2 74.8002 106.5 75.0002 107 75.0002H113.7L112.9 76.5002H105.9C104.3 76.5002 103.4 76.1002 103.4 75.4002C103.4 75.3002 103.4 75.1002 103.5 74.9002L105.9 70.1002C106.3 69.2002 107.2 68.7002 108.6 68.7002H116.5L115.8 70.2002H111.4Z" fill="white"/>
<path d="M123.5 71.8002H124L124.6 70.7002C124.6 70.4002 124.3 70.2002 123.9 70.2002H117.3L118 68.7002H124.3C126.2 68.7002 127.2 69.2002 127.3 70.2002L125 74.9002C124.5 75.9002 123.3 76.5002 121.5 76.5002H117.3C115.7 76.5002 114.8 76.1002 114.8 75.4002C114.8 75.3002 114.8 75.1002 114.9 74.9002L116.1 72.5002C116.3 72.0002 116.8 71.8002 117.3 71.8002H123.5ZM123.4 73.4002H121.9H118.3L117.7 74.6002C117.7 74.9002 118 75.1002 118.5 75.1002H121.9C122.2 75.1002 122.5 74.9002 122.8 74.6002L123.4 73.4002Z" fill="white"/>
<path d="M134.8 73.3998H128.5C127.7 73.3998 127.5 72.8998 128.1 71.7998L128.9 70.1998C129.3 69.2998 130.2 68.7998 131.6 68.7998H139.5L138.8 70.2998H132.3C131.8 70.2998 131.3 70.4998 131.1 70.7998L130.5 71.8998H136.5C137.5 71.8998 137.7 72.3998 137.3 73.4998L136.6 75.0998C136.1 76.0998 134.9 76.6998 133.1 76.6998H125.7L126.6 75.1998H133.4C133.7 75.1998 134 74.9998 134.2 74.6998C134.4 74.3998 134.5 74.1998 134.6 73.9998C134.7 73.6998 134.8 73.4998 134.8 73.3998Z" fill="white"/>
<path d="M146 70.2001H143L142.7 70.7001L140.8 74.5001C140.8 74.9001 141.1 75.0001 141.6 75.0001H144.1L143.1 76.5001H140.4C138.8 76.5001 138 76.0001 138.1 74.9001L140.5 70.1001L142.8 65.6001H145.2L143.7 68.7001H149.4L148.7 70.2001H146Z" fill="white"/>
<path d="M59.1992 43.5002C59.1992 43.4002 59.1992 43.4002 59.1992 43.4002L64.4992 33.2002H88.9992L93.4992 24.8002H68.5992L72.2992 18.0002C74.0992 16.4002 75.8992 15.7002 77.9992 15.9002H105.899L110.899 7.7002H78.9992C77.6992 7.7002 76.4992 7.8002 75.1992 7.9002C73.9992 8.0002 72.6992 8.2002 71.4992 8.4002H71.2992C66.7992 9.8002 63.1992 12.4002 60.5992 16.1002L47.6992 41.7002V41.8002C47.1992 43.1002 47.0992 44.5002 47.3992 46.1002C48.1992 49.9002 52.1992 51.8002 59.1992 51.8002H89.3992L94.7992 43.6002H60.1992C59.6992 43.6002 59.3992 43.6002 59.1992 43.5002Z" fill="white"/>
<path d="M155.6 17.9002L160 7.7002H129.4L125.3 15.9002H144.1L131 42.2002C130.4 43.1002 129.3 43.5002 127.7 43.6002L109.7 43.5002C109.2 43.5002 108.9 43.4002 108.8 43.3002C108.8 43.3002 108.7 43.2002 108.7 43.0002L116.3 28.2002H103.8L97.0996 41.7002V41.8002C96.5996 43.1002 96.4996 44.5002 96.7996 46.1002C97.5996 49.9002 101.6 51.8002 108.6 51.8002H126C135.3 51.8002 141.1 48.9002 143.3 43.3002L155.6 17.9002Z" fill="white"/>
<path d="M206.799 7.7002H163.599L146.499 41.7002L141.199 51.8002H153.799L157.899 44.1002V43.8002C157.899 43.6002 157.899 43.5002 157.999 43.3002L170.799 18.5002H178.999L178.199 20.8002L163.299 51.8002H174.599L190.799 18.5002H197.199C199.599 18.5002 199.999 19.1002 199.999 19.1002C200.099 19.3002 200.099 19.8002 199.599 20.7002L183.999 51.7002H196.899L213.399 17.8002L213.499 17.6002V17.4002C214.099 10.6002 210.199 8.4002 206.799 7.7002Z" fill="white"/>
<path d="M261.9 25.8L228 9.5C226.2 8.6 224.3 9.1 223.6 10.5L215 27.9H221.8L224.9 21.8H233L229.9 27.9H237.7L234.6 34H226.5L222.6 41.8H215.1L219 34H212L206.7 44.7C205.3 47.5 209 51.4 212 50.3L262.8 32.5C265.7 31.5 265.1 27.4 261.9 25.8Z" fill="white"/>
<path d="M154.1 71.7002H149.3V72.5002H154.1V71.7002Z" fill="white"/>
<path d="M220.8 1.80019H0.0996094L0.999603 0.200195H221.6L220.8 1.80019Z" fill="white"/>
<path d="M260 59.6H39.2998L40.1998 58H260.8L260 59.6Z" fill="white"/>
<path d="M41.1998 43.4003L45.3998 34.8003H33.9998L29.7998 43.4003H41.1998Z" fill="white"/>
<path d="M44.5998 22.6003L48.1998 15.3003H38.3998L34.7998 22.6003H44.5998Z" fill="white"/>
<path d="M25.4996 34.9002L30.9996 23.7002H16.0996L10.5996 34.9002H25.4996Z" fill="white"/>
<path d="M16.0998 23.5001L18.9998 17.6001H11.0998L8.2998 23.5001H16.0998Z" fill="white"/>
<path d="M5.8996 29.2003L8.09961 24.8003H2.1996L0.0996094 29.2003H5.8996Z" fill="white"/>
<path d="M9.3 16.1002L11.4 11.7002H5.5L3.5 16.1002H9.3Z" fill="white"/>
</svg>
